blackwide.ufo
<glyph name="exclam" format="1">
  <advance width="290"/>
  <unicode hex="0021"/>
  <outline>
    <contour>
      <point x="287.0" y="65.0"/>
      <point x="93.0" y="65.0"/>
      <point x="287.0" y="65.0" type="curve"/>
      <point x="287.0" y="118.0"/>
      <point x="244.0" y="141.0"/>
      <point x="189.0" y="141.0" type="curve"/>
      <point x="135.0" y="141.0"/>
      <point x="93.0" y="114.0"/>
      <point x="93.0" y="65.0" type="curve"/>
      <point x="287.0" y="65.0"/>
      <point x="93.0" y="65.0"/>
      <point x="287.0" y="65.0" type="curve"/>
      <point x="287.0" y="11.0"/>
      <point x="245.0" y="-10.0"/>
      <point x="189.0" y="-10.0" type="curve"/>
      <point x="134.0" y="-10.0"/>
      <point x="93.0" y="15.0"/>
      <point x="93.0" y="65.0" type="curve"/>
    </contour>
    <contour>
      <point x="269.0" y="229.0"/>
      <point x="108.0" y="229.0"/>
      <point x="269.0" y="229.0" type="curve"/>
      <point x="269.0" y="393.0"/>
      <point x="269.0" y="558.0"/>
      <point x="269.0" y="722.0" type="curve"/>
      <point x="108.0" y="722.0"/>
      <point x="269.0" y="722.0"/>
      <point x="108.0" y="722.0" type="curve"/>
      <point x="108.0" y="558.0"/>
      <point x="108.0" y="393.0"/>
      <point x="108.0" y="229.0" type="curve"/>
    </contour>
  </outline>
</glyph>
<glyph name="quotedbl" format="1">
  <advance width="590"/>
  <unicode hex="0022"/>
  <outline>
    <contour>
      <point x="270.1" y="658.0"/>
      <point x="109.5" y="658.0"/>
      <point x="270.1" y="658.0" type="curve"/>
      <point x="270.1" y="720.66604"/>
      <point x="270.1" y="783.33396"/>
      <point x="270.1" y="846.0" type="curve"/>
      <point x="109.5" y="846.0"/>
      <point x="270.1" y="846.0"/>
      <point x="109.5" y="846.0" type="curve"/>
      <point x="109.5" y="783.33396"/>
      <point x="109.5" y="720.66604"/>
      <point x="109.5" y="658.0" type="curve"/>
    </contour>
    <contour>
      <point x="508.9" y="658.0"/>
      <point x="355.6" y="658.0"/>
      <point x="508.9" y="658.0" type="curve"/>
      <point x="508.9" y="720.66604"/>
      <point x="508.9" y="783.33396"/>
      <point x="508.9" y="846.0" type="curve"/>
      <point x="355.6" y="846.0"/>
      <point x="508.9" y="846.0"/>
      <point x="355.6" y="846.0" type="curve"/>
      <point x="355.6" y="783.33396"/>
      <point x="355.6" y="720.66604"/>
      <point x="355.6" y="658.0" type="curve"/>
    </contour>
  </outline>
</glyph>
<glyph name="numbersign" format="1">
  <advance width="860"/>
  <unicode hex="0023"/>
  <outline>
    <contour>
      <point x="27.1" y="213.802849003"/>
      <point x="78.2" y="330.602849003"/>
      <point x="27.1" y="213.802849003" type="curve"/>
      <point x="238.264555" y="213.802849003"/>
      <point x="449.435445" y="213.802849003"/>
      <point x="660.6" y="213.802849003" type="curve"/>
      <point x="710.0" y="331.0"/>
      <point x="661.0" y="214.0"/>
      <point x="710.0" y="331.0" type="curve"/>
      <point x="496.0" y="331.0"/>
      <point x="286.931246" y="330.602849003"/>
      <point x="78.2" y="330.602849003" type="curve"/>
    </contour>
    <contour>
      <point x="122.0" y="425.0"/>
      <point x="170.0" y="542.0"/>
      <point x="122.0" y="425.0" type="curve"/>
      <point x="333.0" y="425.0"/>
      <point x="544.0" y="425.0"/>
      <point x="752.0" y="425.0" type="curve"/>
      <point x="799.0" y="542.0"/>
      <point x="752.0" y="425.0"/>
      <point x="799.0" y="542.0" type="curve"/>
      <point x="591.0" y="542.0"/>
      <point x="382.0" y="542.0"/>
      <point x="170.0" y="542.0" type="curve"/>
    </contour>
    <contour>
      <point x="530.0" y="39.0"/>
      <point x="369.0" y="39.0"/>
      <point x="530.0" y="39.0" type="curve"/>
      <point x="530.0" y="39.0"/>
      <point x="812.0" y="722.0"/>
      <point x="812.0" y="722.0" type="curve"/>
      <point x="651.0" y="722.0"/>
      <point x="812.0" y="722.0"/>
      <point x="651.0" y="722.0" type="curve"/>
      <point x="651.0" y="722.0"/>
      <point x="369.0" y="39.0"/>
      <point x="369.0" y="39.0" type="curve"/>
    </contour>
    <contour>
      <point x="186.5" y="46.0"/>
      <point x="33.2" y="46.0"/>
      <point x="186.5" y="46.0" type="curve"/>
      <point x="186.5" y="46.0"/>
      <point x="466.4" y="722.0"/>
      <point x="466.4" y="722.0" type="curve"/>
      <point x="305.8" y="722.0"/>
      <point x="466.4" y="722.0"/>
      <point x="305.8" y="722.0" type="curve"/>
      <point x="305.8" y="722.0"/>
      <point x="33.2" y="46.0"/>
      <point x="33.2" y="46.0" type="curve"/>
    </contour>
  </outline>
</glyph>
<glyph name="ampersand" format="1">
  <advance width="644"/>
  <unicode hex="0026"/>
  <outline>
    <contour>
      <point x="937.0" y="1.73798753167e-11"/>
      <point x="726.0" y="1.7386980744e-11"/>
      <point x="937.0" y="1.73798753167e-11" type="curve"/>
      <point x="779.0" y="110.0"/>
      <point x="586.0" y="261.0"/>
      <point x="422.0" y="379.65994302" type="curve"/>
      <point x="351.418523346" y="432.299058429"/>
      <point x="257.1" y="457.79211684"/>
      <point x="257.1" y="547.215384615" type="curve"/>
      <point x="257.1" y="589.373337069"/>
      <point x="293.75473039" y="610.2"/>
      <point x="340.2" y="610.2" type="curve"/>
      <point x="397.043723258" y="610.2"/>
      <point x="447.5" y="597.961810193"/>
      <point x="447.5" y="548.93960114" type="curve"/>
      <point x="447.289218695" y="465.940476315"/>
      <point x="361.534596319" y="453.115657582"/>
      <point x="279.8" y="422.375840456" type="curve"/>
      <point x="144.915407225" y="370.051850075"/>
      <point x="8.1" y="340.01729659"/>
      <point x="8.1" y="202.372079772" type="curve"/>
      <point x="8.1" y="48.4109408792"/>
      <point x="158.849921352" y="-5.0"/>
      <point x="333.7" y="-5.0" type="curve"/>
      <point x="561.730456465" y="-5.0"/>
      <point x="726.854566612" y="104.007242183"/>
      <point x="822.7" y="311.484615385" type="curve"/>
      <point x="684.0" y="340.684615385"/>
      <point x="822.7" y="311.484615385"/>
      <point x="684.0" y="340.684615385" type="curve"/>
      <point x="615.250945515" y="194.052201087"/>
      <point x="501.953411914" y="111.8"/>
      <point x="341.0" y="111.8" type="curve"/>
      <point x="250.891568032" y="111.8"/>
      <point x="168.7" y="124.935255896"/>
      <point x="168.7" y="202.372079772" type="curve"/>
      <point x="168.7" y="289.17940682"/>
      <point x="261.331228535" y="296.205989681"/>
      <point x="345.5" y="328.935840456" type="curve"/>
      <point x="476.844853488" y="380.274326966"/>
      <point x="606.467946748" y="414.672159074"/>
      <point x="608.1" y="548.93960114" type="curve"/>
      <point x="608.1" y="676.549859946"/>
      <point x="489.124900349" y="727.0"/>
      <point x="347.5" y="727.0" type="curve"/>
      <point x="209.140892373" y="727.0"/>
      <point x="96.5" y="672.02717053"/>
      <point x="96.5" y="547.215384615" type="curve"/>
      <point x="96.5" y="426.553356374"/>
      <point x="213.368128647" y="378.907417629"/>
      <point x="312.5" y="309.57994302" type="curve"/>
      <point x="436.0" y="217.0"/>
      <point x="606.0" y="88.0"/>
      <point x="726.0" y="1.7386980744e-11" type="curve"/>
    </contour>
  </outline>
</glyph>
<glyph name="quotesingle" format="1">
  <advance width="207"/>
  <unicode hex="0027"/>
  <outline>
    <contour>
      <point x="186.0" y="658.0"/>
      <point x="26.0" y="658.0"/>
      <point x="186.0" y="658.0" type="curve"/>
      <point x="186.0" y="721.0"/>
      <point x="186.0" y="783.0"/>
      <point x="186.0" y="846.0" type="curve"/>
      <point x="26.0" y="846.0"/>
      <point x="186.0" y="846.0"/>
      <point x="26.0" y="846.0" type="curve"/>
      <point x="26.0" y="783.0"/>
      <point x="26.0" y="721.0"/>
      <point x="26.0" y="658.0" type="curve"/>
    </contour>
  </outline>
</glyph>
<glyph name="parenleft" format="1">
  <advance width="565"/>
  <unicode hex="0028"/>
  <outline>
    <contour>
      <point x="516.1" y="-202.12"/>
      <point x="421.2" y="-283.88"/>
      <point x="516.1" y="-202.12" type="curve"/>
      <point x="330.522725962" y="-61.0788053252"/>
      <point x="231.0" y="93.0"/>
      <point x="231.0" y="326.0" type="curve"/>
      <point x="231.0" y="560.0"/>
      <point x="330.235791099" y="712.902451783"/>
      <point x="514.8" y="857.54" type="curve"/>
      <point x="419.9" y="933.46"/>
      <point x="514.8" y="857.54"/>
      <point x="419.9" y="933.46" type="curve"/>
      <point x="200.81637294" y="767.981419041"/>
      <point x="72.7" y="599.947018914"/>
      <point x="72.7" y="326.0" type="curve"/>
      <point x="72.7" y="51.1477453708"/>
      <point x="201.300138413" y="-116.692069279"/>
      <point x="421.2" y="-283.88" type="curve"/>
    </contour>
  </outline>
</glyph>
<glyph name="parenright" format="1">
  <advance width="557"/>
  <unicode hex="0029"/>
  <outline>
    <contour>
      <point x="152.0" y="-297.0"/>
      <point x="57.0" y="-222.0"/>
      <point x="152.0" y="-297.0" type="curve"/>
      <point x="376.0" y="-122.0"/>
      <point x="517.0" y="45.0"/>
      <point x="517.0" y="329.0" type="curve"/>
      <point x="517.0" y="606.0"/>
      <point x="383.0" y="773.0"/>
      <point x="157.0" y="936.0" type="curve"/>
      <point x="62.0" y="854.0"/>
      <point x="157.0" y="936.0"/>
      <point x="62.0" y="854.0" type="curve"/>
      <point x="252.0" y="711.0"/>
      <point x="359.0" y="560.0"/>
      <point x="359.0" y="324.0" type="curve"/>
      <point x="359.0" y="83.0"/>
      <point x="243.0" y="-68.0"/>
      <point x="57.0" y="-222.0" type="curve"/>
    </contour>
  </outline>
</glyph>
<glyph name="asterisk" format="1">
  <advance width="338"/>
  <unicode hex="002A"/>
  <outline>
    <contour>
      <point x="160.0" y="656.0"/>
      <point x="320.0" y="656.0"/>
      <point x="160.0" y="656.0" type="curve"/>
      <point x="174.0" y="497.0"/>
      <point x="161.0" y="656.0"/>
      <point x="174.0" y="496.0" type="curve"/>
      <point x="306.0" y="496.0"/>
      <point x="174.0" y="496.0"/>
      <point x="306.0" y="496.0" type="curve"/>
      <point x="320.0" y="655.0"/>
      <point x="306.0" y="496.0"/>
      <point x="320.0" y="656.0" type="curve"/>
    </contour>
    <contour>
      <point x="395.0" y="605.0"/>
      <point x="442.0" y="486.0"/>
      <point x="395.0" y="605.0" type="curve"/>
      <point x="219.0" y="544.0"/>
      <point x="395.0" y="604.0"/>
      <point x="218.0" y="543.0" type="curve"/>
      <point x="262.0" y="450.0"/>
      <point x="218.0" y="543.0"/>
      <point x="262.0" y="450.0" type="curve"/>
      <point x="442.0" y="486.0"/>
      <point x="262.0" y="449.0"/>
      <point x="442.0" y="486.0" type="curve"/>
    </contour>
    <contour>
      <point x="424.0" y="426.0"/>
      <point x="308.0" y="338.0"/>
      <point x="424.0" y="426.0" type="curve"/>
      <point x="290.0" y="532.0"/>
      <point x="424.0" y="426.0"/>
      <point x="291.0" y="531.0" type="curve"/>
      <point x="189.0" y="461.0"/>
      <point x="291.0" y="531.0"/>
      <point x="189.0" y="461.0" type="curve"/>
      <point x="307.0" y="338.0"/>
      <point x="188.0" y="460.0"/>
      <point x="308.0" y="338.0" type="curve"/>
    </contour>
    <contour>
      <point x="35.0" y="490.0"/>
      <point x="84.0" y="605.0"/>
      <point x="35.0" y="490.0" type="curve"/>
      <point x="217.0" y="450.0"/>
      <point x="36.0000000003" y="490.0"/>
      <point x="218.0" y="450.0" type="curve"/>
      <point x="262.0" y="543.0"/>
      <point x="218.0" y="450.0"/>
      <point x="262.0" y="543.0" type="curve"/>
      <point x="85.0000000004" y="605.0"/>
      <point x="261.0" y="543.0"/>
      <point x="84.0" y="605.0" type="curve"/>
    </contour>
    <contour>
      <point x="168.0" y="342.0"/>
      <point x="51.0" y="430.0"/>
      <point x="168.0" y="342.0" type="curve"/>
      <point x="291.0" y="461.0"/>
      <point x="168.0" y="342.0"/>
      <point x="291.0" y="461.0" type="curve"/>
      <point x="189.0" y="531.0"/>
      <point x="291.0" y="461.0"/>
      <point x="189.0" y="531.0" type="curve"/>
      <point x="52.0" y="430.0"/>
      <point x="189.0" y="531.0"/>
      <point x="51.0" y="430.0" type="curve"/>
    </contour>
  </outline>
</glyph>
<glyph name="plus" format="1">
  <advance width="845"/>
  <unicode hex="002B"/>
  <outline>
    <contour>
      <point x="73.0" y="249.0"/>
      <point x="73.0" y="377.0"/>
      <point x="73.0" y="249.0" type="curve"/>
      <point x="73.0" y="249.0"/>
      <point x="719.0" y="249.0"/>
      <point x="719.0" y="249.0" type="curve"/>
      <point x="719.0" y="377.0"/>
      <point x="719.0" y="249.0"/>
      <point x="719.0" y="377.0" type="curve"/>
      <point x="719.0" y="377.0"/>
      <point x="73.0" y="377.0"/>
      <point x="73.0" y="377.0" type="curve"/>
    </contour>
    <contour>
      <point x="486.0" y="18.0"/>
      <point x="316.0" y="18.0"/>
      <point x="476.0" y="18.0" type="curve"/>
      <point x="476.0" y="18.0"/>
      <point x="476.0" y="588.0"/>
      <point x="476.0" y="588.0" type="curve"/>
      <point x="316.0" y="588.0"/>
      <point x="486.0" y="588.0"/>
      <point x="326.0" y="588.0" type="curve"/>
      <point x="326.0" y="588.0"/>
      <point x="326.0" y="18.0"/>
      <point x="326.0" y="18.0" type="curve"/>
    </contour>
  </outline>
</glyph>
<glyph name="comma" format="1">
  <advance width="355"/>
  <unicode hex="002C"/>
  <outline>
    <contour>
      <point x="184.0" y="-99.0"/>
      <point x="23.0" y="-99.0"/>
      <point x="184.0" y="-99.0" type="curve"/>
      <point x="346.0" y="131.0"/>
      <point x="183.0" y="-99.0"/>
      <point x="347.0" y="131.0" type="curve"/>
      <point x="142.0" y="131.0"/>
      <point x="347.0" y="131.0"/>
      <point x="142.0" y="131.0" type="curve"/>
      <point x="24.0" y="-98.0"/>
      <point x="142.0" y="131.0"/>
      <point x="23.0" y="-99.0" type="curve"/>
    </contour>
  </outline>
</glyph>
<glyph name="hyphen" format="1">
  <advance width="472"/>
  <unicode hex="002D"/>
  <outline>
    <contour>
      <point x="118.3" y="220.032364672"/>
      <point x="118.3" y="348.512364672"/>
      <point x="118.3" y="220.032364672" type="curve"/>
      <point x="244.398739" y="220.032364672"/>
      <point x="370.501261" y="220.032364672"/>
      <point x="496.6" y="220.032364672" type="curve"/>
      <point x="496.6" y="348.512364672"/>
      <point x="496.6" y="220.032364672"/>
      <point x="496.6" y="348.512364672" type="curve"/>
      <point x="370.501261" y="348.512364672"/>
      <point x="244.398739" y="348.512364672"/>
      <point x="118.3" y="348.512364672" type="curve"/>
    </contour>
  </outline>
</glyph>
<glyph name="period" format="1">
  <advance width="240"/>
  <unicode hex="002E"/>
  <outline>
    <contour>
      <point x="215.0" y="65.0"/>
      <point x="26.0" y="65.0"/>
      <point x="215.0" y="65.0" type="curve"/>
      <point x="215.0" y="117.0"/>
      <point x="174.0" y="141.0"/>
      <point x="119.0" y="141.0" type="curve"/>
      <point x="64.0" y="141.0"/>
      <point x="26.0" y="114.0"/>
      <point x="26.0" y="65.0" type="curve"/>
      <point x="215.0" y="65.0"/>
      <point x="26.0" y="65.0"/>
      <point x="215.0" y="65.0" type="curve"/>
      <point x="215.0" y="12.0"/>
      <point x="174.0" y="-10.0"/>
      <point x="118.0" y="-10.0" type="curve"/>
      <point x="63.0" y="-10.0"/>
      <point x="26.0" y="15.0"/>
      <point x="26.0" y="65.0" type="curve"/>
    </contour>
  </outline>
</glyph>
<glyph name="slash" format="1">
  <advance width="800"/>
  <unicode hex="002F"/>
  <outline>
    <contour>
      <point x="222.0" y="-9.0"/>
      <point x="61.0" y="-9.0"/>
      <point x="222.0" y="-9.0" type="curve"/>
      <point x="406.0" y="253.0"/>
      <point x="591.0" y="515.0"/>
      <point x="776.0" y="777.0" type="curve"/>
      <point x="615.0" y="777.0"/>
      <point x="776.0" y="777.0"/>
      <point x="615.0" y="777.0" type="curve"/>
      <point x="430.0" y="515.0"/>
      <point x="246.0" y="253.0"/>
      <point x="61.0" y="-9.0" type="curve"/>
    </contour>
  </outline>
</glyph>
<glyph name="zero" format="1">
  <advance width="909"/>
  <unicode hex="0030"/>
  <outline>
    <contour>
      <point x="186.0" y="360.0"/>
      <point x="32.0" y="360.0"/>
      <point x="186.0" y="360.0" type="curve"/>
      <point x="186.0" y="518.0"/>
      <point x="290.0" y="605.0"/>
      <point x="453.0" y="605.0" type="curve"/>
      <point x="619.0" y="605.0"/>
      <point x="730.0" y="522.0"/>
      <point x="730.0" y="363.0" type="curve"/>
      <point x="730.0" y="205.0"/>
      <point x="627.0" y="117.0"/>
      <point x="466.0" y="117.0" type="curve"/>
      <point x="298.0" y="117.0"/>
      <point x="186.0" y="200.0"/>
      <point x="186.0" y="360.0" type="curve"/>
      <point x="32.0" y="360.0"/>
      <point x="186.0" y="360.0"/>
      <point x="32.0" y="360.0" type="curve"/>
      <point x="32.0" y="119.0"/>
      <point x="205.0" y="-5.0"/>
      <point x="459.0" y="-5.0" type="curve"/>
      <point x="713.0" y="-5.0"/>
      <point x="884.0" y="120.0"/>
      <point x="884.0" y="363.0" type="curve"/>
      <point x="884.0" y="602.0"/>
      <point x="717.0" y="727.0"/>
      <point x="468.0" y="727.0" type="curve"/>
      <point x="209.0" y="727.0"/>
      <point x="32.0" y="604.0"/>
      <point x="32.0" y="360.0" type="curve"/>
    </contour>
  </outline>
</glyph>
<glyph name="one" format="1">
  <advance width="552"/>
  <unicode hex="0031"/>
  <outline>
    <contour>
      <point x="337.0" y="0.0"/>
      <point x="337.0" y="117.0"/>
      <point x="337.0" y="0.0" type="curve"/>
      <point x="401.0" y="0.0"/>
      <point x="466.0" y="0.0"/>
      <point x="531.0" y="0.0" type="curve"/>
      <point x="531.0" y="117.0"/>
      <point x="531.0" y="0.0"/>
      <point x="531.0" y="117.0" type="curve"/>
      <point x="337.0" y="117.0"/>
      <point x="531.0" y="117.0"/>
      <point x="337.0" y="117.0" type="curve"/>
    </contour>
    <contour>
      <point x="337.0" y="117.0"/>
      <point x="337.0" y="0.0"/>
      <point x="337.0" y="117.0" type="curve"/>
      <point x="143.0" y="117.0"/>
      <point x="337.0" y="117.0"/>
      <point x="143.0" y="117.0" type="curve"/>
      <point x="143.0" y="0.0"/>
      <point x="143.0" y="117.0"/>
      <point x="143.0" y="0.0" type="curve"/>
      <point x="207.0" y="0.0"/>
      <point x="272.0" y="0.0"/>
      <point x="337.0" y="0.0" type="curve"/>
    </contour>
    <contour>
      <point x="80.0" y="462.0"/>
      <point x="14.0" y="571.0"/>
      <point x="80.0" y="462.0" type="curve"/>
      <point x="372.0" y="643.0"/>
      <point x="80.0" y="462.0"/>
      <point x="372.0" y="643.0" type="curve"/>
      <point x="254.0" y="722.0"/>
      <point x="372.0" y="643.0"/>
      <point x="254.0" y="722.0" type="curve"/>
      <point x="14.0" y="571.0"/>
      <point x="254.0" y="722.0"/>
      <point x="14.0" y="571.0" type="curve"/>
    </contour>
    <contour>
      <point x="414.0" y="0.0"/>
      <point x="254.0" y="0.0"/>
      <point x="414.0" y="0.0" type="curve"/>
      <point x="414.0" y="241.0"/>
      <point x="414.0" y="481.0"/>
      <point x="414.0" y="722.0" type="curve"/>
      <point x="254.0" y="722.0"/>
      <point x="414.0" y="722.0"/>
      <point x="254.0" y="722.0" type="curve"/>
      <point x="254.0" y="481.0"/>
      <point x="254.0" y="241.0"/>
      <point x="254.0" y="0.0" type="curve"/>
    </contour>
  </outline>
</glyph>
<glyph name="two" format="1">
  <advance width="738"/>
  <unicode hex="0032"/>
  <outline>
    <contour>
      <point x="734.0" y="117.0"/>
      <point x="611.0" y="117.0"/>
      <point x="734.0" y="117.0" type="curve"/>
      <point x="734.0" y="237.0"/>
      <point x="734.0" y="117.0"/>
      <point x="734.0" y="237.0" type="curve"/>
      <point x="611.0" y="237.0"/>
      <point x="734.0" y="237.0"/>
      <point x="611.0" y="237.0" type="curve"/>
      <point x="611.0" y="117.0"/>
      <point x="611.0" y="237.0"/>
      <point x="611.0" y="117.0" type="curve"/>
    </contour>
    <contour>
      <point x="52.0" y="0.0"/>
      <point x="52.0" y="117.0"/>
      <point x="52.0" y="0.0" type="curve"/>
      <point x="323.950155763" y="0.0"/>
      <point x="539.598130841" y="0.0"/>
      <point x="734.0" y="0.0" type="curve"/>
      <point x="734.0" y="117.0"/>
      <point x="734.0" y="0.0"/>
      <point x="734.0" y="117.0" type="curve"/>
      <point x="514.102803738" y="117.0"/>
      <point x="271.897196262" y="117.0"/>
      <point x="52.0" y="117.0" type="curve"/>
    </contour>
    <contour>
      <point x="164.0" y="502.0"/>
      <point x="60.0" y="576.0"/>
      <point x="164.0" y="502.0" type="curve"/>
      <point x="237.0" y="572.0"/>
      <point x="293.0" y="605.0"/>
      <point x="377.0" y="605.0" type="curve"/>
      <point x="465.0" y="605.0"/>
      <point x="534.0" y="582.0"/>
      <point x="534.0" y="501.0" type="curve"/>
      <point x="534.0" y="403.0"/>
      <point x="438.0" y="353.0"/>
      <point x="337.0" y="293.0" type="curve"/>
      <point x="242.0" y="234.0"/>
      <point x="147.0" y="176.0"/>
      <point x="52.0" y="117.0" type="curve"/>
      <point x="52.0" y="0.0"/>
      <point x="52.0" y="117.0"/>
      <point x="52.0" y="0.0" type="curve"/>
      <point x="237.0" y="67.0"/>
      <point x="334.0" y="134.0"/>
      <point x="439.0" y="200.0" type="curve"/>
      <point x="577.0" y="281.0"/>
      <point x="682.0" y="349.0"/>
      <point x="682.0" y="507.0" type="curve"/>
      <point x="682.0" y="667.0"/>
      <point x="558.0" y="727.0"/>
      <point x="384.0" y="727.0" type="curve"/>
      <point x="246.0" y="727.0"/>
      <point x="138.0" y="684.0"/>
      <point x="60.0" y="576.0" type="curve"/>
    </contour>
  </outline>
</glyph>
<glyph name="four" format="1">
  <advance width="779"/>
  <unicode hex="0034"/>
  <outline>
    <contour>
      <point x="486.0" y="117.0"/>
      <point x="486.0" y="0.0"/>
      <point x="486.0" y="117.0" type="curve"/>
      <point x="292.0" y="117.0"/>
      <point x="486.0" y="117.0"/>
      <point x="292.0" y="117.0" type="curve"/>
      <point x="292.0" y="0.0"/>
      <point x="292.0" y="117.0"/>
      <point x="292.0" y="0.0" type="curve"/>
      <point x="356.0" y="0.0"/>
      <point x="421.0" y="0.0"/>
      <point x="486.0" y="0.0" type="curve"/>
    </contour>
    <contour>
      <point x="486.0" y="0.0"/>
      <point x="486.0" y="117.0"/>
      <point x="486.0" y="0.0" type="curve"/>
      <point x="550.0" y="0.0"/>
      <point x="615.0" y="0.0"/>
      <point x="679.0" y="0.0" type="curve"/>
      <point x="679.0" y="117.0"/>
      <point x="679.0" y="0.0"/>
      <point x="679.0" y="117.0" type="curve"/>
      <point x="486.0" y="117.0"/>
      <point x="679.0" y="117.0"/>
      <point x="486.0" y="117.0" type="curve"/>
    </contour>
    <contour>
      <point x="83.0" y="223.0"/>
      <point x="22.0" y="352.0"/>
      <point x="83.0" y="223.0" type="curve"/>
      <point x="534.0" y="631.0"/>
      <point x="84.0" y="224.0"/>
      <point x="533.0" y="631.0" type="curve"/>
      <point x="408.0" y="695.0"/>
      <point x="533.0" y="631.0"/>
      <point x="407.0" y="695.0" type="curve"/>
      <point x="22.0" y="351.0"/>
      <point x="407.0" y="694.0"/>
      <point x="22.0" y="352.0" type="curve"/>
    </contour>
    <contour>
      <point x="743.0" y="352.0"/>
      <point x="743.0" y="223.0"/>
      <point x="743.0" y="352.0" type="curve"/>
      <point x="743.0" y="352.0"/>
      <point x="22.0" y="352.0"/>
      <point x="22.0" y="352.0" type="curve"/>
      <point x="83.0" y="223.0"/>
      <point x="22.0" y="352.0"/>
      <point x="83.0" y="223.0" type="curve"/>
      <point x="83.0" y="223.0"/>
      <point x="743.0" y="223.0"/>
      <point x="743.0" y="223.0" type="curve"/>
    </contour>
    <contour>
      <point x="407.0" y="695.0"/>
      <point x="567.0" y="695.0"/>
      <point x="407.0" y="695.0" type="curve"/>
      <point x="407.0" y="695.0"/>
      <point x="407.0" y="50.0"/>
      <point x="407.0" y="50.0" type="curve"/>
      <point x="567.0" y="50.0"/>
      <point x="407.0" y="50.0"/>
      <point x="567.0" y="50.0" type="curve"/>
      <point x="567.0" y="50.0"/>
      <point x="567.0" y="695.0"/>
      <point x="567.0" y="695.0" type="curve"/>
    </contour>
  </outline>
</glyph>
<glyph name="five" format="1">
  <advance width="692"/>
  <unicode hex="0035"/>
  <outline>
    <contour>
      <point x="93.0" y="722.0"/>
      <point x="246.3" y="605.2"/>
      <point x="93.0" y="722.0" type="curve"/>
      <point x="93.0" y="628.768168795"/>
      <point x="93.0" y="536.0"/>
      <point x="93.0" y="390.0" type="curve"/>
      <point x="246.0" y="355.0"/>
      <point x="93.0" y="390.0"/>
      <point x="246.3" y="354.701709402" type="curve"/>
      <point x="246.3" y="438.200304607"/>
      <point x="246.3" y="521.701404795"/>
      <point x="246.3" y="605.2" type="curve"/>
    </contour>
    <contour>
      <point x="246.0" y="355.0"/>
      <point x="93.0" y="390.0"/>
      <point x="246.3" y="354.701709402" type="curve"/>
      <point x="264.19058484" y="360.745259909"/>
      <point x="298.103917157" y="363.044957265"/>
      <point x="324.2" y="363.044957265" type="curve"/>
      <point x="423.882150532" y="363.044957265"/>
      <point x="508.6" y="329.915670539"/>
      <point x="508.6" y="242.891168091" type="curve"/>
      <point x="508.6" y="154.94576493"/>
      <point x="420.181531704" y="116.8"/>
      <point x="320.2" y="116.8" type="curve"/>
      <point x="252.618197371" y="116.8"/>
      <point x="197.0" y="123.0"/>
      <point x="134.0" y="148.0" type="curve"/>
      <point x="54.0" y="43.0"/>
      <point x="134.0" y="148.0"/>
      <point x="54.0" y="43.0" type="curve"/>
      <point x="142.0" y="10.0"/>
      <point x="219.389509956" y="-5.0"/>
      <point x="312.9" y="-5.0" type="curve"/>
      <point x="503.536804578" y="-5.0"/>
      <point x="669.2" y="71.5283763502"/>
      <point x="669.2" y="242.891168091" type="curve"/>
      <point x="669.2" y="406.450863613"/>
      <point x="521.221186293" y="485.684957265"/>
      <point x="338.8" y="485.684957265" type="curve"/>
      <point x="253.933069516" y="485.684957265"/>
      <point x="152.0" y="465.0"/>
      <point x="93.0" y="390.0" type="curve"/>
    </contour>
    <contour>
      <point x="626.0" y="722.0"/>
      <point x="626.0" y="605.0"/>
      <point x="626.0" y="722.0" type="curve"/>
      <point x="430.0" y="722.0"/>
      <point x="261.33165" y="722.0"/>
      <point x="93.0" y="722.0" type="curve"/>
      <point x="246.3" y="605.2"/>
      <point x="93.0" y="722.0"/>
      <point x="246.3" y="605.2" type="curve"/>
      <point x="363.532161" y="605.2"/>
      <point x="481.0" y="605.0"/>
      <point x="626.0" y="605.0" type="curve"/>
    </contour>
  </outline>
</glyph>
<glyph name="six" format="1">
  <advance width="755"/>
  <unicode hex="0036"/>
  <outline>
    <contour>
      <point x="177.6" y="223.174358974"/>
      <point x="68.1" y="281.574358974"/>
      <point x="177.6" y="223.174358974" type="curve"/>
      <point x="229.073562162" y="305.45801969"/>
      <point x="298.696408833" y="331.146951567"/>
      <point x="397.0" y="331.146951567" type="curve"/>
      <point x="495.779987372" y="331.146951567"/>
      <point x="574.9" y="307.598338722"/>
      <point x="574.9" y="221.435840456" type="curve"/>
      <point x="574.9" y="143.754880543"/>
      <point x="501.0" y="125.0"/>
      <point x="413.0" y="125.0" type="curve"/>
      <point x="294.0" y="125.0"/>
      <point x="201.0" y="161.0"/>
      <point x="200.8" y="260.898062678" type="curve"/>
      <point x="201.0" y="504.0"/>
      <point x="441.0" y="561.0"/>
      <point x="697.0" y="614.0" type="curve"/>
      <point x="665.0" y="727.0"/>
      <point x="697.0" y="614.0"/>
      <point x="665.3" y="727.367407407" type="curve"/>
      <point x="325.056871472" y="663.580584612"/>
      <point x="47.5" y="572.993749899"/>
      <point x="47.5" y="255.058062678" type="curve"/>
      <point x="47.5" y="67.5741468543"/>
      <point x="200.36367781" y="-12.4668376068"/>
      <point x="405.2" y="-12.4668376068" type="curve"/>
      <point x="593.800092899" y="-12.4668376068"/>
      <point x="735.5" y="57.1113819273"/>
      <point x="735.5" y="227.275840456" type="curve"/>
      <point x="735.5" y="392.455885778"/>
      <point x="594.866619404" y="453.786951567"/>
      <point x="411.6" y="453.786951567" type="curve"/>
      <point x="257.620483783" y="453.786951567"/>
      <point x="199.0" y="400.0"/>
      <point x="68.1" y="281.574358974" type="curve"/>
    </contour>
  </outline>
</glyph>
<glyph name="seven" format="1">
  <advance width="762"/>
  <unicode hex="0037"/>
  <outline>
    <contour>
      <point x="207.0" y="485.0"/>
      <point x="84.0" y="485.0"/>
      <point x="207.0" y="485.0" type="curve"/>
      <point x="207.0" y="605.0"/>
      <point x="207.0" y="485.0"/>
      <point x="207.0" y="605.0" type="curve"/>
      <point x="84.0" y="605.0"/>
      <point x="207.0" y="605.0"/>
      <point x="84.0" y="605.0" type="curve"/>
      <point x="84.0" y="485.0"/>
      <point x="84.0" y="605.0"/>
      <point x="84.0" y="485.0" type="curve"/>
    </contour>
    <contour>
      <point x="84.0" y="605.0"/>
      <point x="84.0" y="722.0"/>
      <point x="84.0" y="605.0" type="curve"/>
      <point x="301.0" y="605.0"/>
      <point x="516.0" y="605.0"/>
      <point x="733.0" y="605.0" type="curve"/>
      <point x="733.0" y="722.0"/>
      <point x="733.0" y="605.0"/>
      <point x="733.0" y="722.0" type="curve"/>
      <point x="456.0" y="722.0"/>
      <point x="272.0" y="722.0"/>
      <point x="84.0" y="722.0" type="curve"/>
    </contour>
    <contour>
      <point x="649.0" y="722.0"/>
      <point x="733.0" y="605.0"/>
      <point x="649.0" y="722.0" type="curve"/>
      <point x="53.0" y="0.0"/>
      <point x="649.0" y="722.0"/>
      <point x="53.0" y="0.0" type="curve"/>
      <point x="236.0" y="0.0"/>
      <point x="53.0" y="0.0"/>
      <point x="236.0" y="0.0" type="curve"/>
      <point x="733.0" y="605.0"/>
      <point x="236.0" y="0.0"/>
      <point x="733.0" y="605.0" type="curve"/>
    </contour>
  </outline>
</glyph>
<glyph name="eight" format="1">
  <advance width="690"/>
  <unicode hex="0038"/>
  <outline>
    <contour>
      <point x="41.9" y="534.283760684"/>
      <point x="202.5" y="534.283760684"/>
      <point x="41.9" y="534.283760684" type="curve"/>
      <point x="41.9" y="399.394601146"/>
      <point x="165.0" y="382.0"/>
      <point x="301.0" y="338.0" type="curve"/>
      <point x="411.0" y="302.0"/>
      <point x="516.0" y="299.0"/>
      <point x="516.4" y="196.337321937" type="curve"/>
      <point x="516.0" y="126.0"/>
      <point x="440.0" y="113.0"/>
      <point x="348.0" y="113.0" type="curve"/>
      <point x="254.0" y="113.0"/>
      <point x="178.0" y="125.0"/>
      <point x="177.8" y="196.337321937" type="curve"/>
      <point x="178.0" y="301.0"/>
      <point x="288.0" y="303.0"/>
      <point x="399.0" y="340.0" type="curve"/>
      <point x="531.0" y="386.0"/>
      <point x="652.3" y="399.97178848"/>
      <point x="652.3" y="532.55954416" type="curve"/>
      <point x="652.3" y="686.89524075"/>
      <point x="524.056047715" y="727.0"/>
      <point x="347.5" y="727.0" type="curve"/>
      <point x="175.215414207" y="727.0"/>
      <point x="41.9" y="685.191838227"/>
      <point x="41.9" y="534.283760684" type="curve"/>
      <point x="202.5" y="534.283760684"/>
      <point x="41.9" y="534.283760684"/>
      <point x="202.5" y="534.283760684" type="curve"/>
      <point x="203.0" y="594.0"/>
      <point x="265.0" y="608.0"/>
      <point x="340.0" y="608.0" type="curve"/>
      <point x="425.0" y="608.0"/>
      <point x="492.0" y="598.0"/>
      <point x="491.7" y="532.55954416" type="curve"/>
      <point x="492.0" y="444.0"/>
      <point x="394.0" y="449.0"/>
      <point x="298.0" y="418.0" type="curve"/>
      <point x="149.0" y="368.0"/>
      <point x="17.2" y="345.378340691"/>
      <point x="17.2" y="196.337321937" type="curve"/>
      <point x="17.2" y="36.2641417559"/>
      <point x="156.686939306" y="-5.0"/>
      <point x="340.2" y="-5.0" type="curve"/>
      <point x="529.139562373" y="-5.0"/>
      <point x="677.0" y="30.8802888215"/>
      <point x="677.0" y="196.337321937" type="curve"/>
      <point x="677.0" y="342.608617429"/>
      <point x="545.0" y="368.0"/>
      <point x="399.0" y="417.0" type="curve"/>
      <point x="302.0" y="451.0"/>
      <point x="203.0" y="448.0"/>
      <point x="202.5" y="534.283760684" type="curve"/>
    </contour>
  </outline>
</glyph>
<glyph name="colon" format="1">
  <advance width="240"/>
  <unicode hex="003A"/>
  <outline>
    <contour>
      <point x="215.0" y="375.0"/>
      <point x="26.0" y="375.0"/>
      <point x="215.0" y="375.0" type="curve"/>
      <point x="215.0" y="427.0"/>
      <point x="174.0" y="451.0"/>
      <point x="119.0" y="451.0" type="curve"/>
      <point x="64.0" y="451.0"/>
      <point x="26.0" y="424.0"/>
      <point x="26.0" y="375.0" type="curve"/>
      <point x="215.0" y="375.0"/>
      <point x="26.0" y="375.0"/>
      <point x="215.0" y="375.0" type="curve"/>
      <point x="215.0" y="322.0"/>
      <point x="174.0" y="300.0"/>
      <point x="118.0" y="300.0" type="curve"/>
      <point x="63.0" y="300.0"/>
      <point x="26.0" y="325.0"/>
      <point x="26.0" y="375.0" type="curve"/>
    </contour>
    <contour>
      <point x="215.0" y="65.0"/>
      <point x="26.0" y="65.0"/>
      <point x="215.0" y="65.0" type="curve"/>
      <point x="215.0" y="117.0"/>
      <point x="174.0" y="141.0"/>
      <point x="119.0" y="141.0" type="curve"/>
      <point x="64.0" y="141.0"/>
      <point x="26.0" y="114.0"/>
      <point x="26.0" y="65.0" type="curve"/>
      <point x="215.0" y="65.0"/>
      <point x="26.0" y="65.0"/>
      <point x="215.0" y="65.0" type="curve"/>
      <point x="215.0" y="12.0"/>
      <point x="174.0" y="-10.0"/>
      <point x="118.0" y="-10.0" type="curve"/>
      <point x="63.0" y="-10.0"/>
      <point x="26.0" y="15.0"/>
      <point x="26.0" y="65.0" type="curve"/>
    </contour>
  </outline>
</glyph>
<glyph name="semicolon" format="1">
  <advance width="269"/>
  <unicode hex="003B"/>
  <outline>
    <contour>
      <point x="83.0" y="-99.0"/>
      <point x="-78.0" y="-99.0"/>
      <point x="83.0" y="-99.0" type="curve"/>
      <point x="243.0" y="82.0"/>
      <point x="82.0" y="-99.0"/>
      <point x="244.0" y="82.0" type="curve"/>
      <point x="39.0" y="82.0"/>
      <point x="244.0" y="82.0"/>
      <point x="39.0" y="82.0" type="curve"/>
      <point x="-77.0" y="-98.0"/>
      <point x="39.0" y="82.0"/>
      <point x="-78.0" y="-99.0" type="curve"/>
    </contour>
    <contour>
      <point x="233.0" y="375.0"/>
      <point x="44.0" y="375.0"/>
      <point x="233.0" y="375.0" type="curve"/>
      <point x="233.0" y="427.0"/>
      <point x="192.0" y="451.0"/>
      <point x="137.0" y="451.0" type="curve"/>
      <point x="82.0" y="451.0"/>
      <point x="44.0" y="424.0"/>
      <point x="44.0" y="375.0" type="curve"/>
      <point x="233.0" y="375.0"/>
      <point x="44.0" y="375.0"/>
      <point x="233.0" y="375.0" type="curve"/>
      <point x="233.0" y="322.0"/>
      <point x="192.0" y="300.0"/>
      <point x="136.0" y="300.0" type="curve"/>
      <point x="81.0" y="300.0"/>
      <point x="44.0" y="325.0"/>
      <point x="44.0" y="375.0" type="curve"/>
    </contour>
  </outline>
</glyph>
<glyph name="equal" format="1">
  <advance width="913"/>
  <unicode hex="003D"/>
  <outline>
    <contour>
      <point x="49.4" y="156.18"/>
      <point x="49.4" y="278.82"/>
      <point x="49.4" y="156.18" type="curve"/>
      <point x="321.963941" y="156.18"/>
      <point x="594.536059" y="156.18"/>
      <point x="867.1" y="156.18" type="curve"/>
      <point x="867.1" y="278.82"/>
      <point x="867.1" y="156.18"/>
      <point x="867.1" y="278.82" type="curve"/>
      <point x="594.536059" y="278.82"/>
      <point x="321.963941" y="278.82"/>
      <point x="49.4" y="278.82" type="curve"/>
    </contour>
    <contour>
      <point x="49.4" y="378.18"/>
      <point x="49.4" y="500.82"/>
      <point x="49.4" y="378.18" type="curve"/>
      <point x="321.963941" y="378.18"/>
      <point x="594.536059" y="378.18"/>
      <point x="867.1" y="378.18" type="curve"/>
      <point x="867.1" y="500.82"/>
      <point x="867.1" y="378.18"/>
      <point x="867.1" y="500.82" type="curve"/>
      <point x="594.536059" y="500.82"/>
      <point x="321.963941" y="500.82"/>
      <point x="49.4" y="500.82" type="curve"/>
    </contour>
  </outline>
</glyph>
<glyph name="question" format="1">
  <advance width="531"/>
  <unicode hex="003F"/>
  <outline>
    <contour>
      <point x="93.0" y="384.0"/>
      <point x="253.0" y="384.0"/>
      <point x="93.0" y="384.0" type="curve"/>
      <point x="93.0" y="347.0"/>
      <point x="92.6" y="258.33296"/>
      <point x="92.6" y="221.0" type="curve"/>
      <point x="253.2" y="221.0"/>
      <point x="92.6" y="221.0"/>
      <point x="253.2" y="221.0" type="curve"/>
      <point x="253.2" y="258.33296"/>
      <point x="253.0" y="347.0"/>
      <point x="253.0" y="384.0" type="curve"/>
    </contour>
    <contour>
      <point x="102.0" y="625.0"/>
      <point x="51.0" y="741.0"/>
      <point x="102.0" y="625.0" type="curve"/>
      <point x="128.0" y="632.0"/>
      <point x="147.0" y="636.0"/>
      <point x="175.0" y="636.0" type="curve"/>
      <point x="269.0" y="636.0"/>
      <point x="346.0" y="604.0"/>
      <point x="346.0" y="519.0" type="curve"/>
      <point x="346.0" y="426.0"/>
      <point x="261.0" y="384.0"/>
      <point x="158.0" y="384.0" type="curve"/>
      <point x="158.0" y="261.0"/>
      <point x="158.0" y="384.0"/>
      <point x="158.0" y="261.0" type="curve"/>
      <point x="346.0" y="261.0"/>
      <point x="499.0" y="346.0"/>
      <point x="499.0" y="519.0" type="curve"/>
      <point x="499.0" y="677.0"/>
      <point x="360.0" y="757.0"/>
      <point x="190.0" y="757.0" type="curve"/>
      <point x="139.0" y="757.0"/>
      <point x="100.0" y="754.0"/>
      <point x="51.0" y="741.0" type="curve"/>
    </contour>
    <contour>
      <point x="268.085" y="17.0"/>
      <point x="79.015" y="17.0"/>
      <point x="268.085" y="17.0" type="curve"/>
      <point x="268.085" y="69.5634788836"/>
      <point x="229.435687856" y="93.128"/>
      <point x="172.9" y="93.128" type="curve"/>
      <point x="119.771389086" y="93.128"/>
      <point x="79.015" y="65.6935055905"/>
      <point x="79.015" y="17.0" type="curve"/>
      <point x="268.085" y="17.0"/>
      <point x="79.015" y="17.0"/>
      <point x="268.085" y="17.0" type="curve"/>
      <point x="268.085" y="-37.0864537571"/>
      <point x="230.233599745" y="-58.128"/>
      <point x="172.9" y="-58.128" type="curve"/>
      <point x="118.937079986" y="-58.128"/>
      <point x="79.015" y="-33.1793250764"/>
      <point x="79.015" y="17.0" type="curve"/>
    </contour>
  </outline>
</glyph>
<glyph name="A" format="1">
  <advance width="1122"/>
  <unicode hex="0041"/>
  <outline>
    <contour>
      <point x="204.0" y="117.0"/>
      <point x="204.0" y="0.0"/>
      <point x="204.0" y="117.0" type="curve"/>
      <point x="10.0" y="117.0"/>
      <point x="204.0" y="117.0"/>
      <point x="10.0" y="117.0" type="curve"/>
      <point x="10.0" y="0.0"/>
      <point x="10.0" y="117.0"/>
      <point x="10.0" y="0.0" type="curve"/>
      <point x="75.0" y="0.0"/>
      <point x="140.0" y="0.0"/>
      <point x="204.0" y="0.0" type="curve"/>
    </contour>
    <contour>
      <point x="204.0" y="0.0"/>
      <point x="204.0" y="117.0"/>
      <point x="204.0" y="0.0" type="curve"/>
      <point x="281.0" y="0.0"/>
      <point x="204.0" y="0.0"/>
      <point x="435.0" y="0.0" type="curve"/>
      <point x="435.0" y="117.0"/>
      <point x="435.0" y="0.0"/>
      <point x="435.0" y="117.0" type="curve"/>
      <point x="204.0" y="117.0"/>
      <point x="435.0" y="117.0"/>
      <point x="204.0" y="117.0" type="curve"/>
    </contour>
    <contour>
      <point x="915.0" y="0.0"/>
      <point x="915.0" y="117.0"/>
      <point x="915.0" y="0.0" type="curve"/>
      <point x="980.0" y="0.0"/>
      <point x="1045.0" y="0.0"/>
      <point x="1109.0" y="0.0" type="curve"/>
      <point x="1109.0" y="117.0"/>
      <point x="1109.0" y="0.0"/>
      <point x="1109.0" y="117.0" type="curve"/>
      <point x="915.0" y="117.0"/>
      <point x="1109.0" y="117.0"/>
      <point x="915.0" y="117.0" type="curve"/>
    </contour>
    <contour>
      <point x="915.0" y="117.0"/>
      <point x="915.0" y="0.0"/>
      <point x="915.0" y="117.0" type="curve"/>
      <point x="685.0" y="117.0"/>
      <point x="915.0" y="117.0"/>
      <point x="685.0" y="117.0" type="curve"/>
      <point x="685.0" y="0.0"/>
      <point x="685.0" y="117.0"/>
      <point x="685.0" y="0.0" type="curve"/>
      <point x="762.0" y="0.0"/>
      <point x="839.0" y="0.0"/>
      <point x="915.0" y="0.0" type="curve"/>
    </contour>
    <contour>
      <point x="777.0" y="327.0"/>
      <point x="828.0" y="204.0"/>
      <point x="777.0" y="327.0" type="curve"/>
      <point x="641.0" y="327.0"/>
      <point x="505.0" y="327.0"/>
      <point x="369.0" y="327.0" type="curve"/>
      <point x="303.0" y="204.0"/>
      <point x="369.0" y="327.0"/>
      <point x="303.0" y="204.0" type="curve"/>
      <point x="478.0" y="204.0"/>
      <point x="653.0" y="204.0"/>
      <point x="828.0" y="204.0" type="curve"/>
    </contour>
    <contour>
      <point x="1014.0" y="0.0"/>
      <point x="846.0" y="0.0"/>
      <point x="1014.0" y="0.0" type="curve"/>
      <point x="897.0" y="242.0"/>
      <point x="772.0" y="480.0"/>
      <point x="654.0" y="722.0" type="curve"/>
      <point x="508.0" y="722.0"/>
      <point x="654.0" y="722.0"/>
      <point x="508.0" y="722.0" type="curve"/>
      <point x="623.0" y="483.0"/>
      <point x="731.0" y="239.0"/>
      <point x="846.0" y="0.0" type="curve"/>
    </contour>
    <contour>
      <point x="276.0" y="0.0"/>
      <point x="101.0" y="0.0"/>
      <point x="276.0" y="0.0" type="curve"/>
      <point x="405.0" y="239.0"/>
      <point x="523.0" y="483.0"/>
      <point x="652.0" y="722.0" type="curve"/>
      <point x="506.0" y="722.0"/>
      <point x="652.0" y="722.0"/>
      <point x="506.0" y="722.0" type="curve"/>
      <point x="374.0" y="480.0"/>
      <point x="233.0" y="242.0"/>
      <point x="101.0" y="0.0" type="curve"/>
    </contour>
    <contour>
      <point x="577" y="856" type="move" name="top"/>
    </contour>
    <contour>
      <point x="950" y="6" type="move" name="bottom"/>
    </contour>
  </outline>
</glyph>
<glyph name="B" format="1">
  <advance width="855"/>
  <unicode hex="0042"/>
  <outline>
    <contour>
      <point x="226.0" y="722.0"/>
      <point x="226.0" y="605.0"/>
      <point x="226.0" y="722.0" type="curve"/>
      <point x="161.0" y="722.0"/>
      <point x="97.0" y="722.0"/>
      <point x="32.0" y="722.0" type="curve"/>
      <point x="32.0" y="605.0"/>
      <point x="32.0" y="722.0"/>
      <point x="32.0" y="605.0" type="curve"/>
      <point x="226.0" y="605.0"/>
      <point x="32.0" y="605.0"/>
      <point x="226.0" y="605.0" type="curve"/>
    </contour>
    <contour>
      <point x="225.0" y="117.0"/>
      <point x="225.0" y="0.0"/>
      <point x="225.0" y="117.0" type="curve"/>
      <point x="31.0" y="117.0"/>
      <point x="225.0" y="117.0"/>
      <point x="31.0" y="117.0" type="curve"/>
      <point x="31.0" y="0.0"/>
      <point x="31.0" y="117.0"/>
      <point x="31.0" y="0.0" type="curve"/>
      <point x="95.0" y="0.0"/>
      <point x="160.0" y="0.0"/>
      <point x="225.0" y="0.0" type="curve"/>
    </contour>
    <contour>
      <point x="212.0" y="605.0"/>
      <point x="212.0" y="722.0"/>
      <point x="212.0" y="605.0" type="curve"/>
      <point x="305.0" y="605.0"/>
      <point x="399.0" y="605.0"/>
      <point x="493.0" y="605.0" type="curve"/>
      <point x="553.0" y="605.0"/>
      <point x="603.0" y="585.0"/>
      <point x="603.0" y="528.0" type="curve"/>
      <point x="603.0" y="471.0"/>
      <point x="535.0" y="462.0"/>
      <point x="471.0" y="462.0" type="curve"/>
      <point x="385.0" y="462.0"/>
      <point x="298.0" y="462.0"/>
      <point x="212.0" y="462.0" type="curve"/>
      <point x="212.0" y="345.0"/>
      <point x="212.0" y="462.0"/>
      <point x="212.0" y="345.0" type="curve"/>
      <point x="271.0" y="345.0"/>
      <point x="331.0" y="345.0"/>
      <point x="391.0" y="345.0" type="curve"/>
      <point x="526.0" y="345.0"/>
      <point x="764.0" y="367.0"/>
      <point x="764.0" y="528.0" type="curve"/>
      <point x="764.0" y="668.0"/>
      <point x="647.0" y="722.0"/>
      <point x="493.0" y="722.0" type="curve"/>
      <point x="399.0" y="722.0"/>
      <point x="305.0" y="722.0"/>
      <point x="212.0" y="722.0" type="curve"/>
    </contour>
    <contour>
      <point x="311.0" y="0.0"/>
      <point x="143.0" y="0.0"/>
      <point x="311.0" y="0.0" type="curve"/>
      <point x="311.0" y="241.0"/>
      <point x="311.0" y="481.0"/>
      <point x="311.0" y="722.0" type="curve"/>
      <point x="143.0" y="722.0"/>
      <point x="311.0" y="722.0"/>
      <point x="143.0" y="722.0" type="curve"/>
      <point x="143.0" y="481.0"/>
      <point x="143.0" y="241.0"/>
      <point x="143.0" y="0.0" type="curve"/>
    </contour>
    <contour>
      <point x="212.0" y="345.0"/>
      <point x="212.0" y="462.0"/>
      <point x="212.0" y="345.0" type="curve"/>
      <point x="298.0" y="345.0"/>
      <point x="385.0" y="345.0"/>
      <point x="471.0" y="345.0" type="curve"/>
      <point x="574.0" y="345.0"/>
      <point x="664.0" y="320.0"/>
      <point x="664.0" y="226.0" type="curve"/>
      <point x="664.0" y="140.0"/>
      <point x="588.0" y="117.0"/>
      <point x="490.0" y="117.0" type="curve"/>
      <point x="397.0" y="117.0"/>
      <point x="304.0" y="117.0"/>
      <point x="212.0" y="117.0" type="curve"/>
      <point x="212.0" y="0.0"/>
      <point x="212.0" y="117.0"/>
      <point x="212.0" y="0.0" type="curve"/>
      <point x="304.0" y="0.0"/>
      <point x="397.0" y="0.0"/>
      <point x="490.0" y="0.0" type="curve"/>
      <point x="682.0" y="0.0"/>
      <point x="825.0" y="57.0"/>
      <point x="825.0" y="226.0" type="curve"/>
      <point x="825.0" y="429.0"/>
      <point x="561.0" y="462.0"/>
      <point x="391.0" y="462.0" type="curve"/>
      <point x="331.0" y="462.0"/>
      <point x="271.0" y="462.0"/>
      <point x="212.0" y="462.0" type="curve"/>
    </contour>
  </outline>
</glyph>
<glyph name="C" format="1">
  <advance width="931"/>
  <unicode hex="0043"/>
  <outline>
    <contour>
      <point x="758.36" y="654.282962963"/>
      <point x="881.0" y="654.282962963"/>
      <point x="758.36" y="654.282962963" type="curve"/>
      <point x="758.36" y="534.282962963"/>
      <point x="758.0" y="604.0"/>
      <point x="758.0" y="484.0" type="curve"/>
      <point x="881.0" y="484.0"/>
      <point x="758.0" y="484.0"/>
      <point x="881.0" y="484.0" type="curve"/>
      <point x="881.0" y="604.0"/>
      <point x="881.0" y="534.282962963"/>
      <point x="881.0" y="654.282962963" type="curve"/>
    </contour>
    <contour>
      <point x="881.0" y="654.282962963"/>
      <point x="793.4" y="560.842962963"/>
      <point x="881.0" y="654.282962963" type="curve"/>
      <point x="779.88468489" y="695.729800674"/>
      <point x="673.708622241" y="727.0"/>
      <point x="555.5" y="727.0" type="curve"/>
      <point x="272.559989959" y="727.0"/>
      <point x="69.2" y="608.257806575"/>
      <point x="69.2" y="343.855213675" type="curve"/>
      <point x="69.2" y="100.470654305"/>
      <point x="258.498511297" y="-5.0"/>
      <point x="522.2" y="-5.0" type="curve"/>
      <point x="676.761454724" y="-5.0"/>
      <point x="771.0" y="22.0"/>
      <point x="881.0" y="87.0" type="curve"/>
      <point x="810.0" y="186.0"/>
      <point x="881.0" y="87.0"/>
      <point x="809.5" y="186.158176638" type="curve"/>
      <point x="715.721902764" y="133.467059496"/>
      <point x="639.424953918" y="116.8"/>
      <point x="529.5" y="116.8" type="curve"/>
      <point x="355.097073987" y="116.8"/>
      <point x="229.8" y="187.756337113"/>
      <point x="229.8" y="349.695213675" type="curve"/>
      <point x="229.8" y="524.026890636"/>
      <point x="362.45678047" y="605.2"/>
      <point x="548.2" y="605.2" type="curve"/>
      <point x="636.629971262" y="605.2"/>
      <point x="718.424488026" y="593.082975083"/>
      <point x="793.4" y="560.842962963" type="curve"/>
    </contour>
    <contour>
      <point x="539.0" y="856.0" type="move" name="top"/>
    </contour>
    <contour>
      <point x="488.0" y="107.0" type="move" name="bottom"/>
    </contour>
  </outline>
</glyph>
<glyph name="D" format="1">
  <advance width="988"/>
  <unicode hex="0044"/>
  <outline>
    <contour>
      <point x="228.0" y="117.0"/>
      <point x="228.0" y="0.0"/>
      <point x="228.0" y="117.0" type="curve"/>
      <point x="34.0" y="117.0"/>
      <point x="228.0" y="117.0"/>
      <point x="34.0" y="117.0" type="curve"/>
      <point x="34.0" y="0.0"/>
      <point x="34.0" y="117.0"/>
      <point x="34.0" y="0.0" type="curve"/>
      <point x="98.0" y="0.0"/>
      <point x="163.0" y="0.0"/>
      <point x="228.0" y="0.0" type="curve"/>
    </contour>
    <contour>
      <point x="228.0" y="722.0"/>
      <point x="228.0" y="605.0"/>
      <point x="228.0" y="722.0" type="curve"/>
      <point x="163.0" y="722.0"/>
      <point x="98.0" y="722.0"/>
      <point x="34.0" y="722.0" type="curve"/>
      <point x="34.0" y="605.0"/>
      <point x="34.0" y="722.0"/>
      <point x="34.0" y="605.0" type="curve"/>
      <point x="228.0" y="605.0"/>
      <point x="34.0" y="605.0"/>
      <point x="228.0" y="605.0" type="curve"/>
    </contour>
    <contour>
      <point x="145.0" y="722.0"/>
      <point x="305.0" y="722.0"/>
      <point x="145.0" y="722.0" type="curve"/>
      <point x="145.0" y="481.0"/>
      <point x="145.0" y="241.0"/>
      <point x="145.0" y="0.0" type="curve"/>
      <point x="305.0" y="0.0"/>
      <point x="145.0" y="0.0"/>
      <point x="305.0" y="0.0" type="curve"/>
      <point x="305.0" y="241.0"/>
      <point x="305.0" y="481.0"/>
      <point x="305.0" y="722.0" type="curve"/>
    </contour>
    <contour>
      <point x="228.0" y="0.0"/>
      <point x="228.0" y="117.0"/>
      <point x="228.0" y="0.0" type="curve"/>
      <point x="312.0" y="0.0"/>
      <point x="397.0" y="0.0"/>
      <point x="482.0" y="0.0" type="curve"/>
      <point x="770.0" y="0.0"/>
      <point x="962.0" y="92.0"/>
      <point x="962.0" y="354.0" type="curve"/>
      <point x="962.0" y="624.0"/>
      <point x="768.0" y="722.0"/>
      <point x="474.0" y="722.0" type="curve"/>
      <point x="392.0" y="722.0"/>
      <point x="310.0" y="722.0"/>
      <point x="228.0" y="722.0" type="curve"/>
      <point x="228.0" y="605.0"/>
      <point x="228.0" y="722.0"/>
      <point x="228.0" y="605.0" type="curve"/>
      <point x="307.0" y="605.0"/>
      <point x="387.0" y="605.0"/>
      <point x="466.0" y="605.0" type="curve"/>
      <point x="669.0" y="605.0"/>
      <point x="803.0" y="535.0"/>
      <point x="803.0" y="349.0" type="curve"/>
      <point x="803.0" y="180.0"/>
      <point x="679.0" y="117.0"/>
      <point x="494.0" y="117.0" type="curve"/>
      <point x="405.0" y="117.0"/>
      <point x="317.0" y="117.0"/>
      <point x="228.0" y="117.0" type="curve"/>
    </contour>
    <contour>
      <point x="467" y="856" type="move" name="top"/>
    </contour>
    <contour>
      <point x="223" y="362" type="move" name="croat"/>
    </contour>
  </outline>
</glyph>
<glyph name="E" format="1">
  <advance width="788"/>
  <unicode hex="0045"/>
  <outline>
    <contour>
      <point x="766.0" y="58.0"/>
      <point x="643.0" y="58.0"/>
      <point x="766.0" y="58.0" type="curve"/>
      <point x="766.0" y="178.0"/>
      <point x="766.0" y="58.0"/>
      <point x="766.0" y="178.0" type="curve"/>
      <point x="643.0" y="178.0"/>
      <point x="766.0" y="178.0"/>
      <point x="643.0" y="178.0" type="curve"/>
      <point x="643.0" y="58.0"/>
      <point x="643.0" y="178.0"/>
      <point x="643.0" y="58.0" type="curve"/>
    </contour>
    <contour>
      <point x="599.0" y="664.0"/>
      <point x="722.0" y="664.0"/>
      <point x="599.0" y="664.0" type="curve"/>
      <point x="599.0" y="544.0"/>
      <point x="599.0" y="664.0"/>
      <point x="599.0" y="544.0" type="curve"/>
      <point x="722.0" y="544.0"/>
      <point x="599.0" y="544.0"/>
      <point x="722.0" y="544.0" type="curve"/>
      <point x="722.0" y="664.0"/>
      <point x="722.0" y="544.0"/>
      <point x="722.0" y="664.0" type="curve"/>
    </contour>
    <contour>
      <point x="210.0" y="117.0"/>
      <point x="210.0" y="0.0"/>
      <point x="210.0" y="117.0" type="curve"/>
      <point x="16.0" y="117.0"/>
      <point x="210.0" y="117.0"/>
      <point x="16.0" y="117.0" type="curve"/>
      <point x="16.0" y="0.0"/>
      <point x="16.0" y="117.0"/>
      <point x="16.0" y="0.0" type="curve"/>
      <point x="80.0" y="0.0"/>
      <point x="145.0" y="0.0"/>
      <point x="210.0" y="0.0" type="curve"/>
    </contour>
    <contour>
      <point x="210.0" y="722.0"/>
      <point x="210.0" y="605.0"/>
      <point x="210.0" y="722.0" type="curve"/>
      <point x="145.0" y="722.0"/>
      <point x="80.0" y="722.0"/>
      <point x="16.0" y="722.0" type="curve"/>
      <point x="16.0" y="605.0"/>
      <point x="16.0" y="722.0"/>
      <point x="16.0" y="605.0" type="curve"/>
      <point x="210.0" y="605.0"/>
      <point x="16.0" y="605.0"/>
      <point x="210.0" y="605.0" type="curve"/>
    </contour>
    <contour>
      <point x="214.0" y="314.0"/>
      <point x="214.0" y="431.0"/>
      <point x="214.0" y="314.0" type="curve"/>
      <point x="356.0" y="314.0"/>
      <point x="498.0" y="314.0"/>
      <point x="640.0" y="314.0" type="curve"/>
      <point x="640.0" y="431.0"/>
      <point x="640.0" y="314.0"/>
      <point x="640.0" y="431.0" type="curve"/>
      <point x="498.0" y="431.0"/>
      <point x="356.0" y="431.0"/>
      <point x="214.0" y="431.0" type="curve"/>
    </contour>
    <contour>
      <point x="194.0" y="605.0"/>
      <point x="194.0" y="722.0"/>
      <point x="194.0" y="605.0" type="curve"/>
      <point x="370.0" y="605.0"/>
      <point x="546.0" y="605.0"/>
      <point x="722.0" y="605.0" type="curve"/>
      <point x="722.0" y="722.0"/>
      <point x="722.0" y="605.0"/>
      <point x="722.0" y="722.0" type="curve"/>
      <point x="546.0" y="722.0"/>
      <point x="370.0" y="722.0"/>
      <point x="194.0" y="722.0" type="curve"/>
    </contour>
    <contour>
      <point x="289.0" y="0.0"/>
      <point x="128.0" y="0.0"/>
      <point x="289.0" y="0.0" type="curve"/>
      <point x="289.0" y="0.0"/>
      <point x="289.0" y="722.0"/>
      <point x="289.0" y="722.0" type="curve"/>
      <point x="128.0" y="722.0"/>
      <point x="289.0" y="722.0"/>
      <point x="128.0" y="722.0" type="curve"/>
      <point x="128.0" y="481.0"/>
      <point x="128.0" y="241.0"/>
      <point x="128.0" y="0.0" type="curve"/>
    </contour>
    <contour>
      <point x="194.0" y="0.0"/>
      <point x="194.0" y="117.0"/>
      <point x="194.0" y="0.0" type="curve"/>
      <point x="385.0" y="0.0"/>
      <point x="575.0" y="0.0"/>
      <point x="766.0" y="0.0" type="curve"/>
      <point x="766.0" y="117.0"/>
      <point x="766.0" y="0.0"/>
      <point x="766.0" y="117.0" type="curve"/>
      <point x="575.0" y="117.0"/>
      <point x="385.0" y="117.0"/>
      <point x="194.0" y="117.0" type="curve"/>
    </contour>
    <contour>
      <point x="392.0" y="856.0" type="move" name="top"/>
    </contour>
    <contour>
      <point x="682.0" y="14.0" type="move" name="bottom"/>
    </contour>
  </outline>
</glyph>
<glyph name="F" format="1">
  <advance width="738"/>
  <unicode hex="0046"/>
  <outline>
    <contour>
      <point x="170.3" y="0.0"/>
      <point x="170.3" y="116.8"/>
      <point x="170.3" y="0.0" type="curve"/>
      <point x="234.932687" y="0.0"/>
      <point x="170.3" y="0.0"/>
      <point x="364.2" y="0.0" type="curve"/>
      <point x="364.2" y="116.8"/>
      <point x="364.2" y="0.0"/>
      <point x="364.2" y="116.8" type="curve"/>
      <point x="170.3" y="116.8"/>
      <point x="364.2" y="116.8"/>
      <point x="170.3" y="116.8" type="curve"/>
    </contour>
    <contour>
      <point x="170.3" y="722.0"/>
      <point x="170.3" y="605.2"/>
      <point x="170.3" y="722.0" type="curve"/>
      <point x="105.667313" y="722.0"/>
      <point x="41.032687" y="722.0"/>
      <point x="-23.6" y="722.0" type="curve"/>
      <point x="-23.6" y="605.2"/>
      <point x="-23.6" y="722.0"/>
      <point x="-23.6" y="605.2" type="curve"/>
      <point x="170.3" y="605.2"/>
      <point x="-23.6" y="605.2"/>
      <point x="170.3" y="605.2" type="curve"/>
    </contour>
    <contour>
      <point x="170.3" y="116.8"/>
      <point x="170.3" y="0.0"/>
      <point x="170.3" y="116.8" type="curve"/>
      <point x="-23.6" y="116.8"/>
      <point x="170.3" y="116.8"/>
      <point x="-23.6" y="116.8" type="curve"/>
      <point x="-23.6" y="0.0"/>
      <point x="-23.6" y="116.8"/>
      <point x="-23.6" y="0.0" type="curve"/>
      <point x="41.032687" y="-7.91495991648e-15"/>
      <point x="105.667313" y="7.91495991648e-15"/>
      <point x="170.3" y="0.0" type="curve"/>
    </contour>
    <contour>
      <point x="566.36" y="663.6"/>
      <point x="689.0" y="663.6"/>
      <point x="566.36" y="663.6" type="curve"/>
      <point x="566.36" y="543.6"/>
      <point x="566.36" y="663.6"/>
      <point x="566.36" y="543.6" type="curve"/>
      <point x="689.0" y="543.6"/>
      <point x="566.36" y="543.6"/>
      <point x="689.0" y="543.6" type="curve"/>
      <point x="689.0" y="663.6"/>
      <point x="689.0" y="543.6"/>
      <point x="689.0" y="663.6" type="curve"/>
    </contour>
    <contour>
      <point x="176.0" y="314.0"/>
      <point x="176.0" y="431.0"/>
      <point x="176.0" y="314.0" type="curve"/>
      <point x="315.0" y="314.0"/>
      <point x="455.0" y="314.0"/>
      <point x="594.0" y="314.0" type="curve"/>
      <point x="594.0" y="431.0"/>
      <point x="594.0" y="314.0"/>
      <point x="594.0" y="431.0" type="curve"/>
      <point x="455.0" y="431.0"/>
      <point x="315.0" y="431.0"/>
      <point x="176.0" y="431.0" type="curve"/>
    </contour>
    <contour>
      <point x="250.6" y="0.0"/>
      <point x="90.0" y="7.86687121695e-15"/>
      <point x="250.6" y="0.0" type="curve"/>
      <point x="250.6" y="0.0"/>
      <point x="250.6" y="722.0"/>
      <point x="250.6" y="722.0" type="curve"/>
      <point x="90.0" y="722.0"/>
      <point x="250.6" y="722.0"/>
      <point x="90.0" y="722.0" type="curve"/>
      <point x="90.0" y="481.33574"/>
      <point x="90.0" y="240.66426"/>
      <point x="90.0" y="7.86687121695e-15" type="curve"/>
    </contour>
    <contour>
      <point x="156.0" y="605.2"/>
      <point x="156.0" y="722.0"/>
      <point x="156.0" y="605.2" type="curve"/>
      <point x="333.66489" y="605.2"/>
      <point x="511.33511" y="605.2"/>
      <point x="689.0" y="605.2" type="curve"/>
      <point x="689.0" y="722.0"/>
      <point x="689.0" y="605.2"/>
      <point x="689.0" y="722.0" type="curve"/>
      <point x="511.33511" y="722.0"/>
      <point x="333.66489" y="722.0"/>
      <point x="156.0" y="722.0" type="curve"/>
    </contour>
  </outline>
</glyph>
<glyph name="H" format="1">
  <advance width="1069"/>
  <unicode hex="0048"/>
  <outline>
    <contour>
      <point x="863.0" y="605.0"/>
      <point x="863.0" y="722.0"/>
      <point x="863.0" y="605.0" type="curve"/>
      <point x="1057.0" y="605.0"/>
      <point x="863.0" y="605.0"/>
      <point x="1057.0" y="605.0" type="curve"/>
      <point x="1057.0" y="722.0"/>
      <point x="1057.0" y="605.0"/>
      <point x="1057.0" y="722.0" type="curve"/>
      <point x="992.0" y="722.0"/>
      <point x="928.0" y="722.0"/>
      <point x="863.0" y="722.0" type="curve"/>
    </contour>
    <contour>
      <point x="863.0" y="0.0"/>
      <point x="863.0" y="117.0"/>
      <point x="863.0" y="0.0" type="curve"/>
      <point x="928.0" y="0.0"/>
      <point x="992.0" y="0.0"/>
      <point x="1057.0" y="0.0" type="curve"/>
      <point x="1057.0" y="117.0"/>
      <point x="1057.0" y="0.0"/>
      <point x="1057.0" y="117.0" type="curve"/>
      <point x="863.0" y="117.0"/>
      <point x="1057.0" y="117.0"/>
      <point x="863.0" y="117.0" type="curve"/>
    </contour>
    <contour>
      <point x="863.0" y="117.0"/>
      <point x="863.0" y="0.0"/>
      <point x="863.0" y="117.0" type="curve"/>
      <point x="669.0" y="117.0"/>
      <point x="863.0" y="117.0"/>
      <point x="669.0" y="117.0" type="curve"/>
      <point x="669.0" y="0.0"/>
      <point x="669.0" y="117.0"/>
      <point x="669.0" y="0.0" type="curve"/>
      <point x="734.0" y="0.0"/>
      <point x="798.0" y="0.0"/>
      <point x="863.0" y="0.0" type="curve"/>
    </contour>
    <contour>
      <point x="863.0" y="722.0"/>
      <point x="863.0" y="605.0"/>
      <point x="863.0" y="722.0" type="curve"/>
      <point x="798.0" y="722.0"/>
      <point x="734.0" y="722.0"/>
      <point x="669.0" y="722.0" type="curve"/>
      <point x="669.0" y="605.0"/>
      <point x="669.0" y="722.0"/>
      <point x="669.0" y="605.0" type="curve"/>
      <point x="863.0" y="605.0"/>
      <point x="669.0" y="605.0"/>
      <point x="863.0" y="605.0" type="curve"/>
    </contour>
    <contour>
      <point x="205.0" y="605.0"/>
      <point x="205.0" y="722.0"/>
      <point x="205.0" y="605.0" type="curve"/>
      <point x="399.0" y="605.0"/>
      <point x="205.0" y="605.0"/>
      <point x="399.0" y="605.0" type="curve"/>
      <point x="399.0" y="722.0"/>
      <point x="399.0" y="605.0"/>
      <point x="399.0" y="722.0" type="curve"/>
      <point x="335.0" y="722.0"/>
      <point x="270.0" y="722.0"/>
      <point x="205.0" y="722.0" type="curve"/>
    </contour>
    <contour>
      <point x="205.0" y="722.0"/>
      <point x="205.0" y="605.0"/>
      <point x="205.0" y="722.0" type="curve"/>
      <point x="141.0" y="722.0"/>
      <point x="76.0" y="722.0"/>
      <point x="11.0" y="722.0" type="curve"/>
      <point x="11.0" y="605.0"/>
      <point x="11.0" y="722.0"/>
      <point x="11.0" y="605.0" type="curve"/>
      <point x="205.0" y="605.0"/>
      <point x="11.0" y="605.0"/>
      <point x="205.0" y="605.0" type="curve"/>
    </contour>
    <contour>
      <point x="205.0" y="0.0"/>
      <point x="205.0" y="117.0"/>
      <point x="205.0" y="0.0" type="curve"/>
      <point x="270.0" y="0.0"/>
      <point x="205.0" y="0.0"/>
      <point x="399.0" y="0.0" type="curve"/>
      <point x="399.0" y="117.0"/>
      <point x="399.0" y="0.0"/>
      <point x="399.0" y="117.0" type="curve"/>
      <point x="205.0" y="117.0"/>
      <point x="399.0" y="117.0"/>
      <point x="205.0" y="117.0" type="curve"/>
    </contour>
    <contour>
      <point x="205.0" y="117.0"/>
      <point x="205.0" y="0.0"/>
      <point x="205.0" y="117.0" type="curve"/>
      <point x="11.0" y="117.0"/>
      <point x="205.0" y="117.0"/>
      <point x="11.0" y="117.0" type="curve"/>
      <point x="11.0" y="0.0"/>
      <point x="11.0" y="117.0"/>
      <point x="11.0" y="0.0" type="curve"/>
      <point x="76.0" y="0.0"/>
      <point x="141.0" y="0.0"/>
      <point x="205.0" y="0.0" type="curve"/>
    </contour>
    <contour>
      <point x="286.0" y="0.0"/>
      <point x="125.0" y="0.0"/>
      <point x="286.0" y="0.0" type="curve"/>
      <point x="286.0" y="0.0"/>
      <point x="286.0" y="722.0"/>
      <point x="286.0" y="722.0" type="curve"/>
      <point x="125.0" y="722.0"/>
      <point x="286.0" y="722.0"/>
      <point x="125.0" y="722.0" type="curve"/>
      <point x="125.0" y="481.0"/>
      <point x="125.0" y="241.0"/>
      <point x="125.0" y="0.0" type="curve"/>
    </contour>
    <contour>
      <point x="859.0" y="421.0"/>
      <point x="859.0" y="304.0"/>
      <point x="859.0" y="421.0" type="curve"/>
      <point x="641.0" y="421.0"/>
      <point x="423.0" y="421.0"/>
      <point x="205.0" y="421.0" type="curve"/>
      <point x="205.0" y="304.0"/>
      <point x="205.0" y="421.0"/>
      <point x="205.0" y="304.0" type="curve"/>
      <point x="423.0" y="304.0"/>
      <point x="641.0" y="304.0"/>
      <point x="859.0" y="304.0" type="curve"/>
    </contour>
    <contour>
      <point x="942.0" y="50.0"/>
      <point x="782.0" y="50.0"/>
      <point x="942.0" y="50.0" type="curve"/>
      <point x="942.0" y="257.0"/>
      <point x="942.0" y="465.0"/>
      <point x="942.0" y="672.0" type="curve"/>
      <point x="782.0" y="672.0"/>
      <point x="942.0" y="672.0"/>
      <point x="782.0" y="672.0" type="curve"/>
      <point x="782.0" y="672.0"/>
      <point x="782.0" y="50.0"/>
      <point x="782.0" y="50.0" type="curve"/>
    </contour>
  </outline>
</glyph>
<glyph name="I" format="1">
  <advance width="424"/>
  <unicode hex="0049"/>
  <outline>
    <contour>
      <point x="216.0" y="722.0"/>
      <point x="216.0" y="605.0"/>
      <point x="216.0" y="722.0" type="curve"/>
      <point x="151.0" y="722.0"/>
      <point x="86.0" y="722.0"/>
      <point x="22.0" y="722.0" type="curve"/>
      <point x="22.0" y="605.0"/>
      <point x="22.0" y="722.0"/>
      <point x="22.0" y="605.0" type="curve"/>
      <point x="216.0" y="605.0"/>
      <point x="22.0" y="605.0"/>
      <point x="216.0" y="605.0" type="curve"/>
    </contour>
    <contour>
      <point x="216.0" y="605.0"/>
      <point x="216.0" y="722.0"/>
      <point x="216.0" y="605.0" type="curve"/>
      <point x="410.0" y="605.0"/>
      <point x="216.0" y="605.0"/>
      <point x="410.0" y="605.0" type="curve"/>
      <point x="410.0" y="722.0"/>
      <point x="410.0" y="605.0"/>
      <point x="410.0" y="722.0" type="curve"/>
      <point x="345.0" y="722.0"/>
      <point x="280.0" y="722.0"/>
      <point x="216.0" y="722.0" type="curve"/>
    </contour>
    <contour>
      <point x="216.0" y="0.0"/>
      <point x="216.0" y="117.0"/>
      <point x="216.0" y="0.0" type="curve"/>
      <point x="280.0" y="0.0"/>
      <point x="345.0" y="0.0"/>
      <point x="410.0" y="0.0" type="curve"/>
      <point x="410.0" y="117.0"/>
      <point x="410.0" y="0.0"/>
      <point x="410.0" y="117.0" type="curve"/>
      <point x="216.0" y="117.0"/>
      <point x="410.0" y="117.0"/>
      <point x="216.0" y="117.0" type="curve"/>
    </contour>
    <contour>
      <point x="216.0" y="117.0"/>
      <point x="216.0" y="0.0"/>
      <point x="216.0" y="117.0" type="curve"/>
      <point x="22.0" y="117.0"/>
      <point x="216.0" y="117.0"/>
      <point x="22.0" y="117.0" type="curve"/>
      <point x="22.0" y="0.0"/>
      <point x="22.0" y="117.0"/>
      <point x="22.0" y="0.0" type="curve"/>
      <point x="86.0" y="0.0"/>
      <point x="151.0" y="0.0"/>
      <point x="216.0" y="0.0" type="curve"/>
    </contour>
    <contour>
      <point x="295.0" y="0.0"/>
      <point x="134.0" y="0.0"/>
      <point x="295.0" y="0.0" type="curve"/>
      <point x="295.0" y="241.0"/>
      <point x="295.0" y="481.0"/>
      <point x="295.0" y="722.0" type="curve"/>
      <point x="134.0" y="722.0"/>
      <point x="295.0" y="722.0"/>
      <point x="134.0" y="722.0" type="curve"/>
      <point x="134.0" y="481.0"/>
      <point x="134.0" y="241.0"/>
      <point x="134.0" y="0.0" type="curve"/>
    </contour>
    <contour>
      <point x="215" y="856" type="move" name="top"/>
    </contour>
    <contour>
      <point x="278" y="38" type="move" name="bottom"/>
    </contour>
  </outline>
</glyph>
<glyph name="J" format="1">
  <advance width="644"/>
  <unicode hex="004A"/>
  <outline>
    <contour>
      <point x="430.3" y="722.0"/>
      <point x="430.3" y="605.2"/>
      <point x="430.3" y="722.0" type="curve"/>
      <point x="365.667313" y="722.0"/>
      <point x="301.032687" y="722.0"/>
      <point x="236.4" y="722.0" type="curve"/>
      <point x="236.4" y="605.2"/>
      <point x="236.4" y="722.0"/>
      <point x="236.4" y="605.2" type="curve"/>
      <point x="430.3" y="605.2"/>
      <point x="236.4" y="605.2"/>
      <point x="430.3" y="605.2" type="curve"/>
    </contour>
    <contour>
      <point x="430.3" y="605.2"/>
      <point x="430.3" y="722.0"/>
      <point x="430.3" y="605.2" type="curve"/>
      <point x="624.2" y="605.2"/>
      <point x="430.3" y="605.2"/>
      <point x="624.2" y="605.2" type="curve"/>
      <point x="624.2" y="722.0"/>
      <point x="624.2" y="605.2"/>
      <point x="624.2" y="722.0" type="curve"/>
      <point x="559.567313" y="722.0"/>
      <point x="494.932687" y="722.0"/>
      <point x="430.3" y="722.0" type="curve"/>
    </contour>
    <contour>
      <point x="22.0" y="45.0"/>
      <point x="95.0" y="138.0"/>
      <point x="22.0" y="45.0" type="curve"/>
      <point x="66.0" y="22.0"/>
      <point x="129.0" y="-5.0"/>
      <point x="204.0" y="-5.0" type="curve"/>
      <point x="387.0" y="-5.0"/>
      <point x="509.0" y="72.0"/>
      <point x="509.0" y="247.0" type="curve"/>
      <point x="509.0" y="404.0"/>
      <point x="509.0" y="565.0"/>
      <point x="509.0" y="722.0" type="curve"/>
      <point x="349.0" y="722.0"/>
      <point x="509.0" y="722.0"/>
      <point x="349.0" y="722.0" type="curve"/>
      <point x="349.0" y="565.0"/>
      <point x="349.0" y="404.0"/>
      <point x="349.0" y="247.0" type="curve"/>
      <point x="349.0" y="160.0"/>
      <point x="293.0" y="111.0"/>
      <point x="204.0" y="111.0" type="curve"/>
      <point x="161.0" y="111.0"/>
      <point x="132.0" y="122.0"/>
      <point x="95.0" y="138.0" type="curve"/>
    </contour>
  </outline>
</glyph>
<glyph name="K" format="1">
  <advance width="994"/>
  <unicode hex="004B"/>
  <outline>
    <contour>
      <point x="738.0" y="117.0"/>
      <point x="730.0" y="0.0"/>
      <point x="738.0" y="117.0" type="curve"/>
      <point x="541.0" y="117.0"/>
      <point x="644.0" y="117.0"/>
      <point x="447.0" y="117.0" type="curve"/>
      <point x="447.0" y="0.0"/>
      <point x="447.0" y="117.0"/>
      <point x="447.0" y="0.0" type="curve"/>
      <point x="510.0" y="0.0"/>
      <point x="667.0" y="0.0"/>
      <point x="730.0" y="0.0" type="curve"/>
    </contour>
    <contour>
      <point x="726.0" y="722.0"/>
      <point x="726.0" y="605.0"/>
      <point x="726.0" y="722.0" type="curve"/>
      <point x="661.0" y="722.0"/>
      <point x="499.0" y="722.0"/>
      <point x="434.0" y="722.0" type="curve"/>
      <point x="434.0" y="605.0"/>
      <point x="434.0" y="722.0"/>
      <point x="434.0" y="605.0" type="curve"/>
      <point x="628.0" y="605.0"/>
      <point x="532.0" y="605.0"/>
      <point x="726.0" y="605.0" type="curve"/>
    </contour>
    <contour>
      <point x="735.0" y="0.0"/>
      <point x="735.0" y="117.0"/>
      <point x="735.0" y="0.0" type="curve"/>
      <point x="799.0" y="0.0"/>
      <point x="864.0" y="0.0"/>
      <point x="929.0" y="0.0" type="curve"/>
      <point x="929.0" y="117.0"/>
      <point x="929.0" y="0.0"/>
      <point x="929.0" y="117.0" type="curve"/>
      <point x="735.0" y="117.0"/>
      <point x="929.0" y="117.0"/>
      <point x="735.0" y="117.0" type="curve"/>
    </contour>
    <contour>
      <point x="726.0" y="605.0"/>
      <point x="726.0" y="722.0"/>
      <point x="726.0" y="605.0" type="curve"/>
      <point x="920.0" y="605.0"/>
      <point x="696.0" y="605.0"/>
      <point x="890.0" y="605.0" type="curve"/>
      <point x="890.0" y="722.0"/>
      <point x="890.0" y="605.0"/>
      <point x="890.0" y="722.0" type="curve"/>
      <point x="825.0" y="722.0"/>
      <point x="790.0" y="722.0"/>
      <point x="726.0" y="722.0" type="curve"/>
    </contour>
    <contour>
      <point x="214.0" y="722.0"/>
      <point x="214.0" y="605.0"/>
      <point x="214.0" y="722.0" type="curve"/>
      <point x="149.0" y="722.0"/>
      <point x="85.0" y="722.0"/>
      <point x="20.0" y="722.0" type="curve"/>
      <point x="20.0" y="605.0"/>
      <point x="20.0" y="722.0"/>
      <point x="20.0" y="605.0" type="curve"/>
      <point x="214.0" y="605.0"/>
      <point x="20.0" y="605.0"/>
      <point x="214.0" y="605.0" type="curve"/>
    </contour>
    <contour>
      <point x="214.0" y="605.0"/>
      <point x="214.0" y="722.0"/>
      <point x="214.0" y="605.0" type="curve"/>
      <point x="408.0" y="605.0"/>
      <point x="195.0" y="605.0"/>
      <point x="389.0" y="605.0" type="curve"/>
      <point x="389.0" y="722.0"/>
      <point x="389.0" y="605.0"/>
      <point x="389.0" y="722.0" type="curve"/>
      <point x="324.0" y="722.0"/>
      <point x="279.0" y="722.0"/>
      <point x="214.0" y="722.0" type="curve"/>
    </contour>
    <contour>
      <point x="214.0" y="0.0"/>
      <point x="214.0" y="117.0"/>
      <point x="214.0" y="0.0" type="curve"/>
      <point x="279.0" y="0.0"/>
      <point x="214.0" y="0.0"/>
      <point x="408.0" y="0.0" type="curve"/>
      <point x="408.0" y="117.0"/>
      <point x="408.0" y="0.0"/>
      <point x="408.0" y="117.0" type="curve"/>
      <point x="214.0" y="117.0"/>
      <point x="408.0" y="117.0"/>
      <point x="214.0" y="117.0" type="curve"/>
    </contour>
    <contour>
      <point x="214.0" y="117.0"/>
      <point x="214.0" y="0.0"/>
      <point x="214.0" y="117.0" type="curve"/>
      <point x="20.0" y="117.0"/>
      <point x="214.0" y="117.0"/>
      <point x="20.0" y="117.0" type="curve"/>
      <point x="20.0" y="0.0"/>
      <point x="20.0" y="117.0"/>
      <point x="20.0" y="0.0" type="curve"/>
      <point x="85.0" y="0.0"/>
      <point x="149.0" y="0.0"/>
      <point x="214.0" y="0.0" type="curve"/>
    </contour>
    <contour>
      <point x="618.0" y="722.0"/>
      <point x="912.0" y="722.0"/>
      <point x="649.0" y="722.0" type="curve"/>
      <point x="476.0" y="610.0"/>
      <point x="309.0" y="492.0"/>
      <point x="137.0" y="380.0" type="curve"/>
      <point x="364.0" y="380.0"/>
      <point x="131.0" y="380.0"/>
      <point x="358.0" y="380.0" type="curve"/>
      <point x="562.0" y="514.0"/>
      <point x="699.0" y="606.0"/>
      <point x="881.0" y="722.0" type="curve"/>
    </contour>
    <contour>
      <point x="294.0" y="0.0"/>
      <point x="134.0" y="0.0"/>
      <point x="294.0" y="0.0" type="curve"/>
      <point x="294.0" y="0.0"/>
      <point x="294.0" y="722.0"/>
      <point x="294.0" y="722.0" type="curve"/>
      <point x="134.0" y="722.0"/>
      <point x="294.0" y="722.0"/>
      <point x="134.0" y="722.0" type="curve"/>
      <point x="134.0" y="481.0"/>
      <point x="134.0" y="241.0"/>
      <point x="134.0" y="0.0" type="curve"/>
    </contour>
    <contour>
      <point x="946.0" y="0.0"/>
      <point x="655.0" y="0.0"/>
      <point x="925.0" y="0.0" type="curve"/>
      <point x="733.0" y="129.0"/>
      <point x="550.0" y="251.0"/>
      <point x="358.0" y="380.0" type="curve"/>
      <point x="131.0" y="380.0"/>
      <point x="364.0" y="380.0"/>
      <point x="137.0" y="380.0" type="curve"/>
      <point x="319.0" y="256.0"/>
      <point x="494.0" y="124.0"/>
      <point x="676.0" y="0.0" type="curve"/>
    </contour>
    <contour>
      <point x="428.0" y="37.0" type="move" name="bottom"/>
    </contour>
  </outline>
</glyph>
<glyph name="L" format="1">
  <advance width="772"/>
  <unicode hex="004C"/>
  <outline>
    <contour>
      <point x="765.0" y="58.0"/>
      <point x="643.0" y="58.0"/>
      <point x="765.0" y="58.0" type="curve"/>
      <point x="765.0" y="178.0"/>
      <point x="765.0" y="58.0"/>
      <point x="765.0" y="178.0" type="curve"/>
      <point x="643.0" y="178.0"/>
      <point x="765.0" y="178.0"/>
      <point x="643.0" y="178.0" type="curve"/>
      <point x="643.0" y="58.0"/>
      <point x="643.0" y="178.0"/>
      <point x="643.0" y="58.0" type="curve"/>
    </contour>
    <contour>
      <point x="217.0" y="117.0"/>
      <point x="217.0" y="0.0"/>
      <point x="217.0" y="117.0" type="curve"/>
      <point x="23.0" y="117.0"/>
      <point x="217.0" y="117.0"/>
      <point x="23.0" y="117.0" type="curve"/>
      <point x="23.0" y="0.0"/>
      <point x="23.0" y="117.0"/>
      <point x="23.0" y="0.0" type="curve"/>
      <point x="87.0" y="0.0"/>
      <point x="152.0" y="0.0"/>
      <point x="217.0" y="0.0" type="curve"/>
    </contour>
    <contour>
      <point x="217.0" y="722.0"/>
      <point x="217.0" y="605.0"/>
      <point x="217.0" y="722.0" type="curve"/>
      <point x="152.0" y="722.0"/>
      <point x="87.0" y="722.0"/>
      <point x="23.0" y="722.0" type="curve"/>
      <point x="23.0" y="605.0"/>
      <point x="23.0" y="722.0"/>
      <point x="23.0" y="605.0" type="curve"/>
      <point x="217.0" y="605.0"/>
      <point x="23.0" y="605.0"/>
      <point x="217.0" y="605.0" type="curve"/>
    </contour>
    <contour>
      <point x="217.0" y="605.0"/>
      <point x="217.0" y="722.0"/>
      <point x="217.0" y="605.0" type="curve"/>
      <point x="411.0" y="605.0"/>
      <point x="217.0" y="605.0"/>
      <point x="411.0" y="605.0" type="curve"/>
      <point x="411.0" y="722.0"/>
      <point x="411.0" y="605.0"/>
      <point x="411.0" y="722.0" type="curve"/>
      <point x="346.0" y="722.0"/>
      <point x="281.0" y="722.0"/>
      <point x="217.0" y="722.0" type="curve"/>
    </contour>
    <contour>
      <point x="298.0" y="0.0"/>
      <point x="138.0" y="0.0"/>
      <point x="298.0" y="0.0" type="curve"/>
      <point x="298.0" y="241.0"/>
      <point x="298.0" y="481.0"/>
      <point x="298.0" y="722.0" type="curve"/>
      <point x="138.0" y="722.0"/>
      <point x="298.0" y="722.0"/>
      <point x="138.0" y="722.0" type="curve"/>
      <point x="138.0" y="481.0"/>
      <point x="138.0" y="241.0"/>
      <point x="138.0" y="0.0" type="curve"/>
    </contour>
    <contour>
      <point x="217.0" y="0.0"/>
      <point x="217.0" y="117.0"/>
      <point x="217.0" y="0.0" type="curve"/>
      <point x="400.0" y="0.0"/>
      <point x="582.0" y="0.0"/>
      <point x="765.0" y="0.0" type="curve"/>
      <point x="765.0" y="117.0"/>
      <point x="765.0" y="0.0"/>
      <point x="765.0" y="117.0" type="curve"/>
      <point x="582.0" y="117.0"/>
      <point x="400.0" y="117.0"/>
      <point x="217.0" y="117.0" type="curve"/>
    </contour>
    <contour>
      <point x="212.0" y="855.0" type="move" name="top"/>
    </contour>
    <contour>
      <point x="393.0" y="32.0" type="move" name="bottom"/>
    </contour>
  </outline>
</glyph>
<glyph name="M" format="1">
  <advance width="1322"/>
  <unicode hex="004D"/>
  <outline>
    <contour>
      <point x="1101.0" y="0.0"/>
      <point x="1101.0" y="117.0"/>
      <point x="1101.0" y="0.0" type="curve"/>
      <point x="1165.0" y="0.0"/>
      <point x="1230.0" y="0.0"/>
      <point x="1294.0" y="0.0" type="curve"/>
      <point x="1294.0" y="117.0"/>
      <point x="1294.0" y="0.0"/>
      <point x="1294.0" y="117.0" type="curve"/>
      <point x="1101.0" y="117.0"/>
      <point x="1294.0" y="117.0"/>
      <point x="1101.0" y="117.0" type="curve"/>
    </contour>
    <contour>
      <point x="1101.0" y="117.0"/>
      <point x="1101.0" y="0.0"/>
      <point x="1101.0" y="117.0" type="curve"/>
      <point x="907.0" y="117.0"/>
      <point x="1101.0" y="117.0"/>
      <point x="907.0" y="117.0" type="curve"/>
      <point x="907.0" y="0.0"/>
      <point x="907.0" y="117.0"/>
      <point x="907.0" y="0.0" type="curve"/>
      <point x="971.0" y="0.0"/>
      <point x="1036.0" y="0.0"/>
      <point x="1101.0" y="0.0" type="curve"/>
    </contour>
    <contour>
      <point x="226.0" y="117.0"/>
      <point x="226.0" y="0.0"/>
      <point x="226.0" y="117.0" type="curve"/>
      <point x="32.0" y="117.0"/>
      <point x="226.0" y="117.0"/>
      <point x="32.0" y="117.0" type="curve"/>
      <point x="32.0" y="0.0"/>
      <point x="32.0" y="117.0"/>
      <point x="32.0" y="0.0" type="curve"/>
      <point x="97.0" y="0.0"/>
      <point x="161.0" y="0.0"/>
      <point x="226.0" y="0.0" type="curve"/>
    </contour>
    <contour>
      <point x="293.0" y="722.0"/>
      <point x="293.0" y="605.0"/>
      <point x="293.0" y="722.0" type="curve"/>
      <point x="228.0" y="722.0"/>
      <point x="163.0" y="722.0"/>
      <point x="99.0" y="722.0" type="curve"/>
      <point x="99.0" y="605.0"/>
      <point x="99.0" y="722.0"/>
      <point x="99.0" y="605.0" type="curve"/>
      <point x="293.0" y="605.0"/>
      <point x="99.0" y="605.0"/>
      <point x="293.0" y="605.0" type="curve"/>
    </contour>
    <contour>
      <point x="1032.0" y="605.0"/>
      <point x="1032.0" y="722.0"/>
      <point x="1032.0" y="605.0" type="curve"/>
      <point x="1226.0" y="605.0"/>
      <point x="1032.0" y="605.0"/>
      <point x="1226.0" y="605.0" type="curve"/>
      <point x="1226.0" y="722.0"/>
      <point x="1226.0" y="605.0"/>
      <point x="1226.0" y="722.0" type="curve"/>
      <point x="1161.0" y="722.0"/>
      <point x="1097.0" y="722.0"/>
      <point x="1032.0" y="722.0" type="curve"/>
    </contour>
    <contour>
      <point x="226.0" y="0.0"/>
      <point x="226.0" y="117.0"/>
      <point x="226.0" y="0.0" type="curve"/>
      <point x="290.0" y="0.0"/>
      <point x="226.0" y="0.0"/>
      <point x="420.0" y="0.0" type="curve"/>
      <point x="420.0" y="117.0"/>
      <point x="420.0" y="0.0"/>
      <point x="420.0" y="117.0" type="curve"/>
      <point x="226.0" y="117.0"/>
      <point x="420.0" y="117.0"/>
      <point x="226.0" y="117.0" type="curve"/>
    </contour>
    <contour>
      <point x="1191.0" y="0.0"/>
      <point x="1030.0" y="0.0"/>
      <point x="1191.0" y="0.0" type="curve"/>
      <point x="1164.0" y="241.0"/>
      <point x="1131.0" y="481.0"/>
      <point x="1104.0" y="722.0" type="curve"/>
      <point x="958.0" y="722.0"/>
      <point x="1104.0" y="722.0"/>
      <point x="958.0" y="722.0" type="curve"/>
      <point x="984.0" y="482.0"/>
      <point x="1004.0" y="240.0"/>
      <point x="1030.0" y="0.0" type="curve"/>
    </contour>
    <contour>
      <point x="295.0" y="0.0"/>
      <point x="134.0" y="0.0"/>
      <point x="295.0" y="0.0" type="curve"/>
      <point x="320.0" y="241.0"/>
      <point x="344.0" y="481.0"/>
      <point x="369.0" y="722.0" type="curve"/>
      <point x="211.0" y="722.0"/>
      <point x="369.0" y="722.0"/>
      <point x="211.0" y="722.0" type="curve"/>
      <point x="185.0" y="481.0"/>
      <point x="160.0" y="241.0"/>
      <point x="134.0" y="0.0" type="curve"/>
    </contour>
    <contour>
      <point x="738.0" y="0.0"/>
      <point x="578.0" y="0.0"/>
      <point x="738.0" y="0.0" type="curve"/>
      <point x="616.0" y="241.0"/>
      <point x="494.0" y="481.0"/>
      <point x="372.0" y="722.0" type="curve"/>
      <point x="213.0" y="722.0"/>
      <point x="372.0" y="722.0"/>
      <point x="213.0" y="722.0" type="curve"/>
      <point x="335.0" y="481.0"/>
      <point x="456.0" y="241.0"/>
      <point x="578.0" y="0.0" type="curve"/>
    </contour>
    <contour>
      <point x="750.0" y="0.0"/>
      <point x="588.0" y="0.0"/>
      <point x="750.0" y="0.0" type="curve"/>
      <point x="869.0" y="241.0"/>
      <point x="988.0" y="481.0"/>
      <point x="1108.0" y="722.0" type="curve"/>
      <point x="949.0" y="722.0"/>
      <point x="1108.0" y="722.0"/>
      <point x="949.0" y="722.0" type="curve"/>
      <point x="829.0" y="481.0"/>
      <point x="708.0" y="241.0"/>
      <point x="588.0" y="0.0" type="curve"/>
    </contour>
  </outline>
</glyph>
<glyph name="N" format="1">
  <advance width="1142"/>
  <unicode hex="004E"/>
  <outline>
    <contour>
      <point x="228.0" y="722.0"/>
      <point x="228.0" y="605.0"/>
      <point x="228.0" y="722.0" type="curve"/>
      <point x="164.0" y="722.0"/>
      <point x="99.0" y="722.0"/>
      <point x="34.0" y="722.0" type="curve"/>
      <point x="34.0" y="605.0"/>
      <point x="34.0" y="722.0"/>
      <point x="34.0" y="605.0" type="curve"/>
      <point x="228.0" y="605.0"/>
      <point x="34.0" y="605.0"/>
      <point x="228.0" y="605.0" type="curve"/>
    </contour>
    <contour>
      <point x="930.0" y="605.0"/>
      <point x="930.0" y="722.0"/>
      <point x="930.0" y="605.0" type="curve"/>
      <point x="1124.0" y="605.0"/>
      <point x="930.0" y="605.0"/>
      <point x="1124.0" y="605.0" type="curve"/>
      <point x="1124.0" y="722.0"/>
      <point x="1124.0" y="605.0"/>
      <point x="1124.0" y="722.0" type="curve"/>
      <point x="1059.0" y="722.0"/>
      <point x="995.0" y="722.0"/>
      <point x="930.0" y="722.0" type="curve"/>
    </contour>
    <contour>
      <point x="950.0" y="722.0"/>
      <point x="950.0" y="605.0"/>
      <point x="950.0" y="722.0" type="curve"/>
      <point x="886.0" y="722.0"/>
      <point x="821.0" y="722.0"/>
      <point x="756.0" y="722.0" type="curve"/>
      <point x="756.0" y="605.0"/>
      <point x="756.0" y="722.0"/>
      <point x="756.0" y="605.0" type="curve"/>
      <point x="950.0" y="605.0"/>
      <point x="756.0" y="605.0"/>
      <point x="950.0" y="605.0" type="curve"/>
    </contour>
    <contour>
      <point x="227.0" y="117.0"/>
      <point x="227.0" y="0.0"/>
      <point x="227.0" y="117.0" type="curve"/>
      <point x="33.0" y="117.0"/>
      <point x="227.0" y="117.0"/>
      <point x="33.0" y="117.0" type="curve"/>
      <point x="33.0" y="0.0"/>
      <point x="33.0" y="117.0"/>
      <point x="33.0" y="0.0" type="curve"/>
      <point x="98.0" y="0.0"/>
      <point x="162.0" y="0.0"/>
      <point x="227.0" y="0.0" type="curve"/>
    </contour>
    <contour>
      <point x="227.0" y="0.0"/>
      <point x="227.0" y="117.0"/>
      <point x="227.0" y="0.0" type="curve"/>
      <point x="292.0" y="0.0"/>
      <point x="227.0" y="0.0"/>
      <point x="421.0" y="0.0" type="curve"/>
      <point x="421.0" y="117.0"/>
      <point x="421.0" y="0.0"/>
      <point x="421.0" y="117.0" type="curve"/>
      <point x="227.0" y="117.0"/>
      <point x="421.0" y="117.0"/>
      <point x="227.0" y="117.0" type="curve"/>
    </contour>
    <contour>
      <point x="1024.0" y="0.0"/>
      <point x="827.0" y="0.0"/>
      <point x="1024.0" y="0.0" type="curve"/>
      <point x="792.0" y="241.0"/>
      <point x="561.0" y="481.0"/>
      <point x="329.0" y="722.0" type="curve"/>
      <point x="132.0" y="722.0"/>
      <point x="329.0" y="722.0"/>
      <point x="132.0" y="722.0" type="curve"/>
      <point x="363.0" y="481.0"/>
      <point x="595.0" y="241.0"/>
      <point x="827.0" y="0.0" type="curve"/>
    </contour>
    <contour>
      <point x="869.0" y="722.0"/>
      <point x="1029.0" y="722.0"/>
      <point x="869.0" y="722.0" type="curve"/>
      <point x="869.0" y="481.0"/>
      <point x="869.0" y="241.0"/>
      <point x="869.0" y="0.0" type="curve"/>
      <point x="1029.0" y="0.0"/>
      <point x="869.0" y="0.0"/>
      <point x="1029.0" y="0.0" type="curve"/>
      <point x="1029.0" y="241.0"/>
      <point x="1029.0" y="481.0"/>
      <point x="1029.0" y="722.0" type="curve"/>
    </contour>
    <contour>
      <point x="307.0" y="0.0"/>
      <point x="147.0" y="0.0"/>
      <point x="307.0" y="0.0" type="curve"/>
      <point x="307.0" y="241.0"/>
      <point x="307.0" y="481.0"/>
      <point x="307.0" y="722.0" type="curve"/>
      <point x="147.0" y="722.0"/>
      <point x="307.0" y="722.0"/>
      <point x="147.0" y="722.0" type="curve"/>
      <point x="147.0" y="481.0"/>
      <point x="147.0" y="241.0"/>
      <point x="147.0" y="0.0" type="curve"/>
    </contour>
    <contour>
      <point x="568.0" y="856.0" type="move" name="top"/>
    </contour>
    <contour>
      <point x="560.0" y="36.0" type="move" name="bottom"/>
    </contour>
  </outline>
</glyph>
<glyph name="O" format="1">
  <advance width="1037"/>
  <unicode hex="004F"/>
  <outline>
    <contour>
      <point x="229.8" y="360.137891738"/>
      <point x="69.2" y="360.137891738"/>
      <point x="229.8" y="360.137891738" type="curve"/>
      <point x="229.8" y="519.076676765"/>
      <point x="348.773417421" y="605.2"/>
      <point x="516.6" y="605.2" type="curve"/>
      <point x="690.926992792" y="605.2"/>
      <point x="820.6" y="524.680204783"/>
      <point x="820.6" y="362.724216524" type="curve"/>
      <point x="820.6" y="202.933840322"/>
      <point x="698.799171385" y="116.8"/>
      <point x="529.5" y="116.8" type="curve"/>
      <point x="355.887438063" y="116.8"/>
      <point x="229.8" y="198.365176254"/>
      <point x="229.8" y="360.137891738" type="curve"/>
      <point x="69.2" y="360.137891738"/>
      <point x="229.8" y="360.137891738"/>
      <point x="69.2" y="360.137891738" type="curve"/>
      <point x="69.2" y="116.986515576"/>
      <point x="262.276909104" y="-5.0"/>
      <point x="522.2" y="-5.0" type="curve"/>
      <point x="785.55532744" y="-5.0"/>
      <point x="981.2" y="117.51657312"/>
      <point x="981.2" y="362.724216524" type="curve"/>
      <point x="981.2" y="604.164426901"/>
      <point x="789.978370809" y="727.0"/>
      <point x="531.2" y="727.0" type="curve"/>
      <point x="266.328450823" y="727.0"/>
      <point x="69.2" y="605.151182902"/>
      <point x="69.2" y="360.137891738" type="curve"/>
    </contour>
    <contour>
      <point x="526" y="856" type="move" name="top"/>
    </contour>
  </outline>
</glyph>
<glyph name="P" format="1">
  <advance width="796"/>
  <unicode hex="0050"/>
  <outline>
    <contour>
      <point x="211.0" y="722.0"/>
      <point x="211.0" y="605.0"/>
      <point x="211.0" y="722.0" type="curve"/>
      <point x="147.0" y="722.0"/>
      <point x="82.0" y="722.0"/>
      <point x="17.0" y="722.0" type="curve"/>
      <point x="17.0" y="605.0"/>
      <point x="17.0" y="722.0"/>
      <point x="17.0" y="605.0" type="curve"/>
      <point x="211.0" y="605.0"/>
      <point x="17.0" y="605.0"/>
      <point x="211.0" y="605.0" type="curve"/>
    </contour>
    <contour>
      <point x="211.0" y="117.0"/>
      <point x="211.0" y="0.0"/>
      <point x="211.0" y="117.0" type="curve"/>
      <point x="17.0" y="117.0"/>
      <point x="211.0" y="117.0"/>
      <point x="17.0" y="117.0" type="curve"/>
      <point x="17.0" y="0.0"/>
      <point x="17.0" y="117.0"/>
      <point x="17.0" y="0.0" type="curve"/>
      <point x="82.0" y="0.0"/>
      <point x="147.0" y="0.0"/>
      <point x="211.0" y="0.0" type="curve"/>
    </contour>
    <contour>
      <point x="211.0" y="0.0"/>
      <point x="211.0" y="117.0"/>
      <point x="211.0" y="0.0" type="curve"/>
      <point x="276.0" y="0.0"/>
      <point x="211.0" y="0.0"/>
      <point x="405.0" y="0.0" type="curve"/>
      <point x="405.0" y="117.0"/>
      <point x="405.0" y="0.0"/>
      <point x="405.0" y="117.0" type="curve"/>
      <point x="211.0" y="117.0"/>
      <point x="405.0" y="117.0"/>
      <point x="211.0" y="117.0" type="curve"/>
    </contour>
    <contour>
      <point x="188.0" y="287.0"/>
      <point x="239.0" y="392.0"/>
      <point x="188.0" y="287.0" type="curve"/>
      <point x="262.0" y="261.0"/>
      <point x="328.0" y="242.0"/>
      <point x="407.0" y="242.0" type="curve"/>
      <point x="601.0" y="245.0"/>
      <point x="762.0" y="306.0"/>
      <point x="762.0" y="478.0" type="curve"/>
      <point x="762.0" y="657.0"/>
      <point x="593.0" y="722.0"/>
      <point x="391.0" y="722.0" type="curve"/>
      <point x="332.0" y="722.0"/>
      <point x="274.0" y="722.0"/>
      <point x="215.0" y="722.0" type="curve"/>
      <point x="215.0" y="605.0"/>
      <point x="215.0" y="722.0"/>
      <point x="215.0" y="605.0" type="curve"/>
      <point x="266.0" y="605.0"/>
      <point x="318.0" y="605.0"/>
      <point x="369.0" y="605.0" type="curve"/>
      <point x="493.0" y="605.0"/>
      <point x="602.0" y="580.0"/>
      <point x="602.0" y="472.0" type="curve"/>
      <point x="602.0" y="387.0"/>
      <point x="518.0" y="359.0"/>
      <point x="421.0" y="359.0" type="curve"/>
      <point x="353.0" y="359.0"/>
      <point x="303.0" y="370.0"/>
      <point x="239.0" y="392.0" type="curve"/>
    </contour>
    <contour>
      <point x="290.0" y="0.0"/>
      <point x="130.0" y="0.0"/>
      <point x="290.0" y="0.0" type="curve"/>
      <point x="290.0" y="241.0"/>
      <point x="290.0" y="481.0"/>
      <point x="290.0" y="722.0" type="curve"/>
      <point x="130.0" y="722.0"/>
      <point x="290.0" y="722.0"/>
      <point x="130.0" y="722.0" type="curve"/>
      <point x="130.0" y="481.0"/>
      <point x="130.0" y="241.0"/>
      <point x="130.0" y="0.0" type="curve"/>
    </contour>
  </outline>
</glyph>
<glyph name="Q" format="1">
  <advance width="1036"/>
  <unicode hex="0051"/>
  <outline>
    <contour>
      <point x="465.6" y="28.3378917379"/>
      <point x="604.3" y="86.7378917379"/>
      <point x="465.6" y="28.3378917379" type="curve"/>
      <point x="631.281891091" y="-174.034546476"/>
      <point x="802.218996541" y="-209.394928775"/>
      <point x="1050.4" y="-209.394928775" type="curve"/>
      <point x="1050.4" y="-86.7549287749"/>
      <point x="1050.4" y="-209.394928775"/>
      <point x="1050.4" y="-86.7549287749" type="curve"/>
      <point x="863.236369456" y="-86.7549287749"/>
      <point x="731.405875106" y="-66.5974128055"/>
      <point x="604.3" y="86.7378917379" type="curve"/>
    </contour>
    <contour>
      <point x="227.2" y="360.137891738"/>
      <point x="66.6" y="360.137891738"/>
      <point x="227.2" y="360.137891738" type="curve"/>
      <point x="227.2" y="517.697524582"/>
      <point x="355.0" y="601.0"/>
      <point x="523.0" y="601.0" type="curve"/>
      <point x="697.0" y="601.0"/>
      <point x="820.6" y="521.455867461"/>
      <point x="820.6" y="360.235270655" type="curve"/>
      <point x="820.6" y="201.353034189"/>
      <point x="698.374516674" y="116.8"/>
      <point x="529.5" y="116.8" type="curve"/>
      <point x="355.412313201" y="116.8"/>
      <point x="227.2" y="197.98736409"/>
      <point x="227.2" y="360.137891738" type="curve"/>
      <point x="66.6" y="360.137891738"/>
      <point x="227.2" y="360.137891738"/>
      <point x="66.6" y="360.137891738" type="curve"/>
      <point x="66.6" y="116.725045621"/>
      <point x="262.093088737" y="-5.0"/>
      <point x="522.2" y="-5.0" type="curve"/>
      <point x="785.778720097" y="-5.0"/>
      <point x="981.2" y="120.202962816"/>
      <point x="981.2" y="366.075270655" type="curve"/>
      <point x="981.2" y="608.601674491"/>
      <point x="790.56809786" y="731.977891738"/>
      <point x="531.2" y="731.977891738" type="curve"/>
      <point x="265.338811006" y="731.977891738"/>
      <point x="66.6" y="607.144907648"/>
      <point x="66.6" y="360.137891738" type="curve"/>
    </contour>
  </outline>
</glyph>
<glyph name="R" format="1">
  <advance width="1007"/>
  <unicode hex="0052"/>
  <outline>
    <contour>
      <point x="792.0" y="0.0"/>
      <point x="792.0" y="117.0"/>
      <point x="792.0" y="0.0" type="curve"/>
      <point x="856.0" y="0.0"/>
      <point x="921.0" y="0.0"/>
      <point x="986.0" y="0.0" type="curve"/>
      <point x="986.0" y="117.0"/>
      <point x="986.0" y="0.0"/>
      <point x="986.0" y="117.0" type="curve"/>
      <point x="792.0" y="117.0"/>
      <point x="986.0" y="117.0"/>
      <point x="792.0" y="117.0" type="curve"/>
    </contour>
    <contour>
      <point x="207.0" y="722.0"/>
      <point x="207.0" y="605.0"/>
      <point x="207.0" y="722.0" type="curve"/>
      <point x="142.0" y="722.0"/>
      <point x="77.0" y="722.0"/>
      <point x="13.0" y="722.0" type="curve"/>
      <point x="13.0" y="605.0"/>
      <point x="13.0" y="722.0"/>
      <point x="13.0" y="605.0" type="curve"/>
      <point x="207.0" y="605.0"/>
      <point x="13.0" y="605.0"/>
      <point x="207.0" y="605.0" type="curve"/>
    </contour>
    <contour>
      <point x="207.0" y="117.0"/>
      <point x="207.0" y="0.0"/>
      <point x="207.0" y="117.0" type="curve"/>
      <point x="13.0" y="117.0"/>
      <point x="207.0" y="117.0"/>
      <point x="13.0" y="117.0" type="curve"/>
      <point x="13.0" y="0.0"/>
      <point x="13.0" y="117.0"/>
      <point x="13.0" y="0.0" type="curve"/>
      <point x="77.0" y="0.0"/>
      <point x="142.0" y="0.0"/>
      <point x="207.0" y="0.0" type="curve"/>
    </contour>
    <contour>
      <point x="207.0" y="0.0"/>
      <point x="207.0" y="117.0"/>
      <point x="207.0" y="0.0" type="curve"/>
      <point x="271.0" y="0.0"/>
      <point x="207.0" y="0.0"/>
      <point x="401.0" y="0.0" type="curve"/>
      <point x="401.0" y="117.0"/>
      <point x="401.0" y="0.0"/>
      <point x="401.0" y="117.0" type="curve"/>
      <point x="207.0" y="117.0"/>
      <point x="401.0" y="117.0"/>
      <point x="207.0" y="117.0" type="curve"/>
    </contour>
    <contour>
      <point x="378.0" y="354.0"/>
      <point x="575.0" y="354.0"/>
      <point x="378.0" y="354.0" type="curve"/>
      <point x="489.0" y="236.0"/>
      <point x="600.0" y="118.0"/>
      <point x="711.0" y="0.0" type="curve"/>
      <point x="908.0" y="0.0"/>
      <point x="711.0" y="0.0"/>
      <point x="908.0" y="0.0" type="curve"/>
      <point x="797.0" y="118.0"/>
      <point x="686.0" y="236.0"/>
      <point x="575.0" y="354.0" type="curve"/>
    </contour>
    <contour>
      <point x="288.0" y="0.0"/>
      <point x="128.0" y="0.0"/>
      <point x="288.0" y="0.0" type="curve"/>
      <point x="288.0" y="241.0"/>
      <point x="288.0" y="481.0"/>
      <point x="288.0" y="722.0" type="curve"/>
      <point x="128.0" y="722.0"/>
      <point x="288.0" y="722.0"/>
      <point x="128.0" y="722.0" type="curve"/>
      <point x="128.0" y="481.0"/>
      <point x="128.0" y="241.0"/>
      <point x="128.0" y="0.0" type="curve"/>
    </contour>
    <contour>
      <point x="211.0" y="294.0"/>
      <point x="211.0" y="411.0"/>
      <point x="211.0" y="294.0" type="curve"/>
      <point x="281.0" y="294.0"/>
      <point x="352.0" y="294.0"/>
      <point x="423.0" y="294.0" type="curve"/>
      <point x="625.0" y="294.0"/>
      <point x="781.0" y="341.0"/>
      <point x="781.0" y="518.0" type="curve"/>
      <point x="781.0" y="680.0"/>
      <point x="638.0" y="722.0"/>
      <point x="454.0" y="722.0" type="curve"/>
      <point x="373.0" y="722.0"/>
      <point x="292.0" y="722.0"/>
      <point x="211.0" y="722.0" type="curve"/>
      <point x="211.0" y="605.0"/>
      <point x="211.0" y="722.0"/>
      <point x="211.0" y="605.0" type="curve"/>
      <point x="282.0" y="605.0"/>
      <point x="353.0" y="605.0"/>
      <point x="425.0" y="605.0" type="curve"/>
      <point x="532.0" y="605.0"/>
      <point x="620.0" y="597.0"/>
      <point x="620.0" y="506.0" type="curve"/>
      <point x="620.0" y="423.0"/>
      <point x="541.0" y="411.0"/>
      <point x="444.0" y="411.0" type="curve"/>
      <point x="366.0" y="411.0"/>
      <point x="288.0" y="411.0"/>
      <point x="211.0" y="411.0" type="curve"/>
    </contour>
    <contour>
      <point x="399" y="856" type="move" name="top"/>
    </contour>
    <contour>
      <point x="497" y="34" type="move" name="bottom"/>
    </contour>
  </outline>
</glyph>
<glyph name="U" format="1">
  <advance width="1074"/>
  <unicode hex="0055"/>
  <outline>
    <contour>
      <point x="862.0" y="605.0"/>
      <point x="862.0" y="722.0"/>
      <point x="862.0" y="605.0" type="curve"/>
      <point x="1056.0" y="605.0"/>
      <point x="862.0" y="605.0"/>
      <point x="1056.0" y="605.0" type="curve"/>
      <point x="1056.0" y="722.0"/>
      <point x="1056.0" y="605.0"/>
      <point x="1056.0" y="722.0" type="curve"/>
      <point x="992.0" y="722.0"/>
      <point x="927.0" y="722.0"/>
      <point x="862.0" y="722.0" type="curve"/>
    </contour>
    <contour>
      <point x="862.0" y="722.0"/>
      <point x="862.0" y="605.0"/>
      <point x="862.0" y="722.0" type="curve"/>
      <point x="798.0" y="722.0"/>
      <point x="733.0" y="722.0"/>
      <point x="669.0" y="722.0" type="curve"/>
      <point x="669.0" y="605.0"/>
      <point x="669.0" y="722.0"/>
      <point x="669.0" y="605.0" type="curve"/>
      <point x="862.0" y="605.0"/>
      <point x="669.0" y="605.0"/>
      <point x="862.0" y="605.0" type="curve"/>
    </contour>
    <contour>
      <point x="212.0" y="722.0"/>
      <point x="212.0" y="605.0"/>
      <point x="212.0" y="722.0" type="curve"/>
      <point x="148.0" y="722.0"/>
      <point x="83.0" y="722.0"/>
      <point x="19.0" y="722.0" type="curve"/>
      <point x="18.0" y="605.0"/>
      <point x="19.0" y="722.0"/>
      <point x="18.0" y="605.0" type="curve"/>
      <point x="212.0" y="605.0"/>
      <point x="18.0" y="605.0"/>
      <point x="212.0" y="605.0" type="curve"/>
    </contour>
    <contour>
      <point x="212.0" y="605.0"/>
      <point x="212.0" y="722.0"/>
      <point x="212.0" y="605.0" type="curve"/>
      <point x="406.0" y="605.0"/>
      <point x="212.0" y="605.0"/>
      <point x="406.0" y="605.0" type="curve"/>
      <point x="406.0" y="722.0"/>
      <point x="406.0" y="605.0"/>
      <point x="406.0" y="722.0" type="curve"/>
      <point x="342.0" y="722.0"/>
      <point x="277.0" y="722.0"/>
      <point x="212.0" y="722.0" type="curve"/>
    </contour>
    <contour>
      <point x="137.0" y="672.0"/>
      <point x="283.0" y="672.0"/>
      <point x="137.0" y="672.0" type="curve"/>
      <point x="137.0" y="539.0"/>
      <point x="137.0" y="416.0"/>
      <point x="137.0" y="283.0" type="curve"/>
      <point x="137.0" y="66.0"/>
      <point x="291.0" y="-5.0"/>
      <point x="533.0" y="-5.0" type="curve"/>
      <point x="779.0" y="-5.0"/>
      <point x="935.0" y="73.0"/>
      <point x="935.0" y="296.0" type="curve"/>
      <point x="935.0" y="425.0"/>
      <point x="935.0" y="544.0"/>
      <point x="935.0" y="672.0" type="curve"/>
      <point x="789.0" y="672.0"/>
      <point x="935.0" y="672.0"/>
      <point x="789.0" y="672.0" type="curve"/>
      <point x="789.0" y="536.0"/>
      <point x="789.0" y="419.0"/>
      <point x="789.0" y="283.0" type="curve"/>
      <point x="789.0" y="160.0"/>
      <point x="689.0" y="124.0"/>
      <point x="547.0" y="124.0" type="curve"/>
      <point x="389.0" y="124.0"/>
      <point x="283.0" y="164.0"/>
      <point x="283.0" y="304.0" type="curve"/>
      <point x="283.0" y="429.0"/>
      <point x="283.0" y="547.0"/>
      <point x="283.0" y="672.0" type="curve"/>
    </contour>
    <contour>
      <point x="538" y="856" type="move" name="top"/>
    </contour>
    <contour>
      <point x="588" y="18" type="move" name="bottom"/>
    </contour>
  </outline>
</glyph>
<glyph name="V" format="1">
  <advance width="1131"/>
  <unicode hex="0056"/>
  <outline>
    <contour>
      <point x="893.0" y="722.0"/>
      <point x="893.0" y="605.0"/>
      <point x="893.0" y="722.0" type="curve"/>
      <point x="816.0" y="722.0"/>
      <point x="739.0" y="722.0"/>
      <point x="662.0" y="722.0" type="curve"/>
      <point x="662.0" y="605.0"/>
      <point x="662.0" y="722.0"/>
      <point x="662.0" y="605.0" type="curve"/>
      <point x="893.0" y="605.0"/>
      <point x="662.0" y="605.0"/>
      <point x="893.0" y="605.0" type="curve"/>
    </contour>
    <contour>
      <point x="228.0" y="722.0"/>
      <point x="228.0" y="605.0"/>
      <point x="228.0" y="722.0" type="curve"/>
      <point x="163.0" y="722.0"/>
      <point x="99.0" y="722.0"/>
      <point x="34.0" y="722.0" type="curve"/>
      <point x="34.0" y="605.0"/>
      <point x="34.0" y="722.0"/>
      <point x="34.0" y="605.0" type="curve"/>
      <point x="228.0" y="605.0"/>
      <point x="34.0" y="605.0"/>
      <point x="228.0" y="605.0" type="curve"/>
    </contour>
    <contour>
      <point x="913.0" y="605.0"/>
      <point x="913.0" y="722.0"/>
      <point x="913.0" y="605.0" type="curve"/>
      <point x="1107.0" y="605.0"/>
      <point x="913.0" y="605.0"/>
      <point x="1107.0" y="605.0" type="curve"/>
      <point x="1107.0" y="722.0"/>
      <point x="1107.0" y="605.0"/>
      <point x="1107.0" y="722.0" type="curve"/>
      <point x="1042.0" y="722.0"/>
      <point x="977.0" y="722.0"/>
      <point x="913.0" y="722.0" type="curve"/>
    </contour>
    <contour>
      <point x="248.0" y="605.0"/>
      <point x="248.0" y="722.0"/>
      <point x="248.0" y="605.0" type="curve"/>
      <point x="478.0" y="605.0"/>
      <point x="248.0" y="605.0"/>
      <point x="478.0" y="605.0" type="curve"/>
      <point x="478.0" y="722.0"/>
      <point x="478.0" y="605.0"/>
      <point x="478.0" y="722.0" type="curve"/>
      <point x="402.0" y="722.0"/>
      <point x="325.0" y="722.0"/>
      <point x="248.0" y="722.0" type="curve"/>
    </contour>
    <contour>
      <point x="857.0" y="722.0"/>
      <point x="1020.0" y="722.0"/>
      <point x="857.0" y="722.0" type="curve"/>
      <point x="736.0" y="481.0"/>
      <point x="616.0" y="241.0"/>
      <point x="496.0" y="0.0" type="curve"/>
      <point x="659.0" y="0.0"/>
      <point x="496.0" y="0.0"/>
      <point x="659.0" y="0.0" type="curve"/>
      <point x="779.0" y="241.0"/>
      <point x="899.0" y="481.0"/>
      <point x="1020.0" y="722.0" type="curve"/>
    </contour>
    <contour>
      <point x="121.0" y="722.0"/>
      <point x="285.0" y="722.0"/>
      <point x="121.0" y="722.0" type="curve"/>
      <point x="243.0" y="481.0"/>
      <point x="366.0" y="241.0"/>
      <point x="488.0" y="0.0" type="curve"/>
      <point x="651.0" y="0.0"/>
      <point x="488.0" y="0.0"/>
      <point x="651.0" y="0.0" type="curve"/>
      <point x="529.0" y="241.0"/>
      <point x="407.0" y="481.0"/>
      <point x="285.0" y="722.0" type="curve"/>
    </contour>
  </outline>
</glyph>
<glyph name="W" format="1">
  <advance width="1363"/>
  <unicode hex="0057"/>
  <outline>
    <contour>
      <point x="225.0" y="605.0"/>
      <point x="225.0" y="722.0"/>
      <point x="225.0" y="605.0" type="curve"/>
      <point x="419.0" y="605.0"/>
      <point x="225.0" y="605.0"/>
      <point x="419.0" y="605.0" type="curve"/>
      <point x="419.0" y="722.0"/>
      <point x="419.0" y="605.0"/>
      <point x="419.0" y="722.0" type="curve"/>
      <point x="354.0" y="722.0"/>
      <point x="289.0" y="722.0"/>
      <point x="225.0" y="722.0" type="curve"/>
    </contour>
    <contour>
      <point x="225.0" y="722.0"/>
      <point x="225.0" y="605.0"/>
      <point x="225.0" y="722.0" type="curve"/>
      <point x="160.0" y="722.0"/>
      <point x="95.0" y="722.0"/>
      <point x="31.0" y="722.0" type="curve"/>
      <point x="31.0" y="605.0"/>
      <point x="31.0" y="722.0"/>
      <point x="31.0" y="605.0" type="curve"/>
      <point x="225.0" y="605.0"/>
      <point x="31.0" y="605.0"/>
      <point x="225.0" y="605.0" type="curve"/>
    </contour>
    <contour>
      <point x="1141.0" y="722.0"/>
      <point x="1141.0" y="605.0"/>
      <point x="1141.0" y="722.0" type="curve"/>
      <point x="1077.0" y="722.0"/>
      <point x="1012.0" y="722.0"/>
      <point x="948.0" y="722.0" type="curve"/>
      <point x="948.0" y="605.0"/>
      <point x="948.0" y="722.0"/>
      <point x="948.0" y="605.0" type="curve"/>
      <point x="1141.0" y="605.0"/>
      <point x="948.0" y="605.0"/>
      <point x="1141.0" y="605.0" type="curve"/>
    </contour>
    <contour>
      <point x="1141.0" y="605.0"/>
      <point x="1141.0" y="722.0"/>
      <point x="1141.0" y="605.0" type="curve"/>
      <point x="1335.0" y="605.0"/>
      <point x="1141.0" y="605.0"/>
      <point x="1335.0" y="605.0" type="curve"/>
      <point x="1335.0" y="722.0"/>
      <point x="1335.0" y="605.0"/>
      <point x="1335.0" y="722.0" type="curve"/>
      <point x="1271.0" y="722.0"/>
      <point x="1206.0" y="722.0"/>
      <point x="1141.0" y="722.0" type="curve"/>
    </contour>
    <contour>
      <point x="521.0" y="0.0"/>
      <point x="351.0" y="0.0"/>
      <point x="506.0" y="0.0" type="curve"/>
      <point x="592.0" y="241.0"/>
      <point x="674.0" y="481.0"/>
      <point x="761.0" y="722.0" type="curve"/>
      <point x="601.0" y="722.0"/>
      <point x="766.0" y="722.0"/>
      <point x="606.0" y="722.0" type="curve"/>
      <point x="526.0" y="480.0"/>
      <point x="447.0" y="241.0"/>
      <point x="366.0" y="0.0" type="curve"/>
    </contour>
    <contour>
      <point x="616.0" y="722.0"/>
      <point x="784.0" y="722.0"/>
      <point x="625.0" y="722.0" type="curve"/>
      <point x="703.0" y="481.0"/>
      <point x="772.0" y="241.0"/>
      <point x="850.0" y="0.0" type="curve"/>
      <point x="1005.0" y="0.0"/>
      <point x="835.0" y="0.0"/>
      <point x="990.0" y="0.0" type="curve"/>
      <point x="920.0" y="241.0"/>
      <point x="851.0" y="480.0"/>
      <point x="775.0" y="722.0" type="curve"/>
    </contour>
    <contour>
      <point x="108.0" y="722.0"/>
      <point x="269.0" y="722.0"/>
      <point x="108.0" y="722.0" type="curve"/>
      <point x="186.0" y="481.0"/>
      <point x="265.0" y="241.0"/>
      <point x="343.0" y="0.0" type="curve"/>
      <point x="498.0" y="0.0"/>
      <point x="334.0" y="0.0"/>
      <point x="489.0" y="0.0" type="curve"/>
      <point x="413.0" y="241.0"/>
      <point x="345.0" y="481.0"/>
      <point x="269.0" y="722.0" type="curve"/>
    </contour>
    <contour>
      <point x="1097.0" y="722.0"/>
      <point x="1258.0" y="722.0"/>
      <point x="1097.0" y="722.0" type="curve"/>
      <point x="1020.0" y="481.0"/>
      <point x="949.0" y="241.0"/>
      <point x="873.0" y="0.0" type="curve"/>
      <point x="1028.0" y="0.0"/>
      <point x="858.0" y="0.0"/>
      <point x="1013.0" y="0.0" type="curve"/>
      <point x="1095.0" y="241.0"/>
      <point x="1176.0" y="481.0"/>
      <point x="1258.0" y="722.0" type="curve"/>
    </contour>
  </outline>
</glyph>
<glyph name="X" format="1">
  <advance width="980"/>
  <unicode hex="0058"/>
  <outline>
    <contour>
      <point x="217.0" y="0.0"/>
      <point x="217.0" y="117.0"/>
      <point x="217.0" y="0.0" type="curve"/>
      <point x="282.0" y="0.0"/>
      <point x="217.0" y="0.0"/>
      <point x="411.0" y="0.0" type="curve"/>
      <point x="411.0" y="117.0"/>
      <point x="411.0" y="0.0"/>
      <point x="411.0" y="117.0" type="curve"/>
      <point x="217.0" y="117.0"/>
      <point x="411.0" y="117.0"/>
      <point x="217.0" y="117.0" type="curve"/>
    </contour>
    <contour>
      <point x="217.0" y="117.0"/>
      <point x="217.0" y="0.0"/>
      <point x="217.0" y="117.0" type="curve"/>
      <point x="23.0" y="117.0"/>
      <point x="217.0" y="117.0"/>
      <point x="23.0" y="117.0" type="curve"/>
      <point x="23.0" y="0.0"/>
      <point x="23.0" y="117.0"/>
      <point x="23.0" y="0.0" type="curve"/>
      <point x="88.0" y="0.0"/>
      <point x="153.0" y="0.0"/>
      <point x="217.0" y="0.0" type="curve"/>
    </contour>
    <contour>
      <point x="746.0" y="0.0"/>
      <point x="746.0" y="117.0"/>
      <point x="746.0" y="0.0" type="curve"/>
      <point x="811.0" y="0.0"/>
      <point x="875.0" y="0.0"/>
      <point x="940.0" y="0.0" type="curve"/>
      <point x="940.0" y="117.0"/>
      <point x="940.0" y="0.0"/>
      <point x="940.0" y="117.0" type="curve"/>
      <point x="746.0" y="117.0"/>
      <point x="940.0" y="117.0"/>
      <point x="746.0" y="117.0" type="curve"/>
    </contour>
    <contour>
      <point x="746.0" y="117.0"/>
      <point x="746.0" y="0.0"/>
      <point x="746.0" y="117.0" type="curve"/>
      <point x="552.0" y="117.0"/>
      <point x="746.0" y="117.0"/>
      <point x="552.0" y="117.0" type="curve"/>
      <point x="552.0" y="0.0"/>
      <point x="552.0" y="117.0"/>
      <point x="552.0" y="0.0" type="curve"/>
      <point x="617.0" y="0.0"/>
      <point x="681.0" y="0.0"/>
      <point x="746.0" y="0.0" type="curve"/>
    </contour>
    <contour>
      <point x="710.0" y="605.0"/>
      <point x="710.0" y="722.0"/>
      <point x="710.0" y="605.0" type="curve"/>
      <point x="904.0" y="605.0"/>
      <point x="710.0" y="605.0"/>
      <point x="904.0" y="605.0" type="curve"/>
      <point x="904.0" y="722.0"/>
      <point x="904.0" y="605.0"/>
      <point x="904.0" y="722.0" type="curve"/>
      <point x="839.0" y="722.0"/>
      <point x="775.0" y="722.0"/>
      <point x="710.0" y="722.0" type="curve"/>
    </contour>
    <contour>
      <point x="710.0" y="722.0"/>
      <point x="710.0" y="605.0"/>
      <point x="710.0" y="722.0" type="curve"/>
      <point x="646.0" y="722.0"/>
      <point x="581.0" y="722.0"/>
      <point x="516.0" y="722.0" type="curve"/>
      <point x="516.0" y="605.0"/>
      <point x="516.0" y="722.0"/>
      <point x="516.0" y="605.0" type="curve"/>
      <point x="710.0" y="605.0"/>
      <point x="516.0" y="605.0"/>
      <point x="710.0" y="605.0" type="curve"/>
    </contour>
    <contour>
      <point x="266.0" y="722.0"/>
      <point x="266.0" y="605.0"/>
      <point x="266.0" y="722.0" type="curve"/>
      <point x="202.0" y="722.0"/>
      <point x="137.0" y="722.0"/>
      <point x="72.0" y="722.0" type="curve"/>
      <point x="72.0" y="605.0"/>
      <point x="72.0" y="722.0"/>
      <point x="72.0" y="605.0" type="curve"/>
      <point x="266.0" y="605.0"/>
      <point x="72.0" y="605.0"/>
      <point x="266.0" y="605.0" type="curve"/>
    </contour>
    <contour>
      <point x="266.0" y="605.0"/>
      <point x="266.0" y="722.0"/>
      <point x="266.0" y="605.0" type="curve"/>
      <point x="460.0" y="605.0"/>
      <point x="266.0" y="605.0"/>
      <point x="460.0" y="605.0" type="curve"/>
      <point x="460.0" y="722.0"/>
      <point x="460.0" y="605.0"/>
      <point x="460.0" y="722.0" type="curve"/>
      <point x="396.0" y="722.0"/>
      <point x="331.0" y="722.0"/>
      <point x="266.0" y="722.0" type="curve"/>
    </contour>
    <contour>
      <point x="694.0" y="722.0"/>
      <point x="884.0" y="722.0"/>
      <point x="694.0" y="722.0" type="curve"/>
      <point x="477.0" y="480.0"/>
      <point x="254.0" y="242.0"/>
      <point x="37.0" y="0.0" type="curve"/>
      <point x="248.0" y="0.0"/>
      <point x="37.0" y="0.0"/>
      <point x="248.0" y="0.0" type="curve"/>
      <point x="462.0" y="239.0"/>
      <point x="670.0" y="483.0"/>
      <point x="884.0" y="722.0" type="curve"/>
    </contour>
    <contour>
      <point x="88.4" y="722.0"/>
      <point x="278.2" y="722.0"/>
      <point x="88.4" y="722.0" type="curve"/>
      <point x="300.737013238" y="482.337784377"/>
      <point x="509.662986762" y="239.662215623"/>
      <point x="722.0" y="1.00123815489e-14" type="curve"/>
      <point x="926.4" y="-2.00247630977e-14"/>
      <point x="722.0" y="1.00123815489e-14"/>
      <point x="926.4" y="-2.00247630977e-14" type="curve"/>
      <point x="711.463619218" y="241.67469009"/>
      <point x="493.136380782" y="480.32530991"/>
      <point x="278.2" y="722.0" type="curve"/>
    </contour>
  </outline>
</glyph>
<glyph name="Y" format="1">
  <advance width="894"/>
  <unicode hex="0059"/>
  <outline>
    <contour>
      <point x="442.0" y="116.8"/>
      <point x="442.0" y="0.0"/>
      <point x="442.0" y="116.8" type="curve"/>
      <point x="248.1" y="116.8"/>
      <point x="442.0" y="116.8"/>
      <point x="248.1" y="116.8" type="curve"/>
      <point x="248.1" y="0.0"/>
      <point x="248.1" y="116.8"/>
      <point x="248.1" y="0.0" type="curve"/>
      <point x="312.732687" y="-7.91495991648e-15"/>
      <point x="377.367313" y="7.91495991648e-15"/>
      <point x="442.0" y="0.0" type="curve"/>
    </contour>
    <contour>
      <point x="442.0" y="0.0"/>
      <point x="442.0" y="116.8"/>
      <point x="442.0" y="0.0" type="curve"/>
      <point x="506.632687" y="0.0"/>
      <point x="571.267313" y="0.0"/>
      <point x="635.9" y="0.0" type="curve"/>
      <point x="635.9" y="116.8"/>
      <point x="635.9" y="0.0"/>
      <point x="635.9" y="116.8" type="curve"/>
      <point x="442.0" y="116.8"/>
      <point x="635.9" y="116.8"/>
      <point x="442.0" y="116.8" type="curve"/>
    </contour>
    <contour>
      <point x="686.0" y="722.0"/>
      <point x="686.0" y="605.0"/>
      <point x="686.0" y="722.0" type="curve"/>
      <point x="621.0" y="722.0"/>
      <point x="557.0" y="722.0"/>
      <point x="492.0" y="722.0" type="curve"/>
      <point x="492.0" y="605.0"/>
      <point x="492.0" y="722.0"/>
      <point x="492.0" y="605.0" type="curve"/>
      <point x="686.0" y="605.0"/>
      <point x="492.0" y="605.0"/>
      <point x="686.0" y="605.0" type="curve"/>
    </contour>
    <contour>
      <point x="212.0" y="722.0"/>
      <point x="212.0" y="605.0"/>
      <point x="212.0" y="722.0" type="curve"/>
      <point x="147.0" y="722.0"/>
      <point x="83.0" y="722.0"/>
      <point x="18.0" y="722.0" type="curve"/>
      <point x="18.0" y="605.0"/>
      <point x="18.0" y="722.0"/>
      <point x="18.0" y="605.0" type="curve"/>
      <point x="212.0" y="605.0"/>
      <point x="18.0" y="605.0"/>
      <point x="212.0" y="605.0" type="curve"/>
    </contour>
    <contour>
      <point x="212.0" y="605.0"/>
      <point x="212.0" y="722.0"/>
      <point x="212.0" y="605.0" type="curve"/>
      <point x="406.0" y="605.0"/>
      <point x="212.0" y="605.0"/>
      <point x="406.0" y="605.0" type="curve"/>
      <point x="406.0" y="722.0"/>
      <point x="406.0" y="605.0"/>
      <point x="406.0" y="722.0" type="curve"/>
      <point x="341.0" y="722.0"/>
      <point x="277.0" y="722.0"/>
      <point x="212.0" y="722.0" type="curve"/>
    </contour>
    <contour>
      <point x="686.0" y="605.0"/>
      <point x="686.0" y="722.0"/>
      <point x="686.0" y="605.0" type="curve"/>
      <point x="880.0" y="605.0"/>
      <point x="686.0" y="605.0"/>
      <point x="880.0" y="605.0" type="curve"/>
      <point x="880.0" y="722.0"/>
      <point x="880.0" y="605.0"/>
      <point x="880.0" y="722.0" type="curve"/>
      <point x="815.0" y="722.0"/>
      <point x="750.0" y="722.0"/>
      <point x="686.0" y="722.0" type="curve"/>
    </contour>
    <contour>
      <point x="55.2" y="722.0"/>
      <point x="217.8" y="722.0"/>
      <point x="55.2" y="722.0" type="curve"/>
      <point x="157.032315" y="593.66795"/>
      <point x="258.867685" y="465.33205"/>
      <point x="360.7" y="337.0" type="curve"/>
      <point x="523.3" y="337.0"/>
      <point x="360.7" y="337.0"/>
      <point x="523.3" y="337.0" type="curve"/>
      <point x="421.467685" y="465.33205"/>
      <point x="319.632315" y="593.66795"/>
      <point x="217.8" y="722.0" type="curve"/>
    </contour>
    <contour>
      <point x="683.0" y="722.0"/>
      <point x="846.0" y="722.0"/>
      <point x="683.0" y="722.0" type="curve"/>
      <point x="576.0" y="594.0"/>
      <point x="468.0" y="465.0"/>
      <point x="361.0" y="337.0" type="curve"/>
      <point x="523.0" y="337.0"/>
      <point x="361.0" y="337.0"/>
      <point x="523.0" y="337.0" type="curve"/>
      <point x="631.0" y="465.0"/>
      <point x="738.0" y="594.0"/>
      <point x="846.0" y="722.0" type="curve"/>
    </contour>
    <contour>
      <point x="529.6" y="0.0"/>
      <point x="354.4" y="8.58204132759e-15"/>
      <point x="529.6" y="0.0" type="curve"/>
      <point x="529.6" y="115.33218"/>
      <point x="529.6" y="230.66782"/>
      <point x="529.6" y="346.0" type="curve"/>
      <point x="354.4" y="346.0"/>
      <point x="529.6" y="346.0"/>
      <point x="354.4" y="346.0" type="curve"/>
      <point x="354.4" y="230.66782"/>
      <point x="354.4" y="115.33218"/>
      <point x="354.4" y="8.58204132759e-15" type="curve"/>
    </contour>
    <contour>
      <point x="449" y="856" type="move" name="top"/>
    </contour>
  </outline>
</glyph>
<glyph name="Z" format="1">
  <advance width="876"/>
  <unicode hex="005A"/>
  <outline>
    <contour>
      <point x="79.0" y="664.0"/>
      <point x="201.0" y="664.0"/>
      <point x="79.0" y="664.0" type="curve"/>
      <point x="79.0" y="544.0"/>
      <point x="79.0" y="664.0"/>
      <point x="79.0" y="544.0" type="curve"/>
      <point x="201.0" y="544.0"/>
      <point x="79.0" y="544.0"/>
      <point x="201.0" y="544.0" type="curve"/>
      <point x="201.0" y="664.0"/>
      <point x="201.0" y="544.0"/>
      <point x="201.0" y="664.0" type="curve"/>
    </contour>
    <contour>
      <point x="844.0" y="58.0"/>
      <point x="721.0" y="58.0"/>
      <point x="844.0" y="58.0" type="curve"/>
      <point x="844.0" y="178.0"/>
      <point x="844.0" y="58.0"/>
      <point x="844.0" y="178.0" type="curve"/>
      <point x="721.0" y="178.0"/>
      <point x="844.0" y="178.0"/>
      <point x="721.0" y="178.0" type="curve"/>
      <point x="721.0" y="58.0"/>
      <point x="721.0" y="178.0"/>
      <point x="721.0" y="58.0" type="curve"/>
    </contour>
    <contour>
      <point x="79.0" y="605.0"/>
      <point x="79.0" y="722.0"/>
      <point x="79.0" y="605.0" type="curve"/>
      <point x="289.0" y="605.0"/>
      <point x="556.835435" y="605.2"/>
      <point x="767.0" y="605.2" type="curve"/>
      <point x="755.401432537" y="618.850064709"/>
      <point x="731.798567463" y="611.656260078"/>
      <point x="720.2" y="625.306324786" type="curve"/>
      <point x="711.792380136" y="637.637258091"/>
      <point x="707.107619864" y="652.131174957"/>
      <point x="698.7" y="664.462108262" type="curve"/>
      <point x="689.728118088" y="655.421669686"/>
      <point x="673.271881912" y="664.019355955"/>
      <point x="664.3" y="654.978917379" type="curve"/>
      <point x="461.0" y="483.0"/>
      <point x="664.3" y="654.978917379"/>
      <point x="33.5" y="116.8" type="curve"/>
      <point x="33.5" y="57.5378917379"/>
      <point x="33.5" y="116.8"/>
      <point x="33.5" y="57.5378917379" type="curve"/>
      <point x="33.5" y="0.0"/>
      <point x="33.5" y="57.5378917379"/>
      <point x="33.5" y="0.0" type="curve"/>
      <point x="91.0" y="0.0"/>
      <point x="33.5" y="0.0"/>
      <point x="91.0" y="0.0" type="curve"/>
      <point x="843.7" y="0.0"/>
      <point x="593.0" y="0.0"/>
      <point x="844.0" y="0.0" type="curve"/>
      <point x="844.0" y="117.0"/>
      <point x="844.0" y="0.0"/>
      <point x="844.0" y="117.0" type="curve"/>
      <point x="593.0" y="117.0"/>
      <point x="341.897491" y="116.8"/>
      <point x="91.0" y="116.8" type="curve"/>
      <point x="103.274800553" y="108.416361979"/>
      <point x="119.525199447" y="108.428367366"/>
      <point x="131.8" y="100.044729345" type="curve"/>
      <point x="141.746835862" y="86.7385687807"/>
      <point x="147.653164138" y="70.8440523019"/>
      <point x="157.6" y="57.5378917379" type="curve"/>
      <point x="167.422246854" y="65.9943833695"/>
      <point x="183.477753146" y="58.5645909895"/>
      <point x="193.3" y="67.0210826211" type="curve"/>
      <point x="405.0" y="248.0"/>
      <point x="193.3" y="67.0210826211"/>
      <point x="830.1" y="605.2" type="curve"/>
      <point x="830.1" y="664.462108262"/>
      <point x="830.1" y="605.2"/>
      <point x="830.1" y="664.462108262" type="curve"/>
      <point x="830.1" y="722.0"/>
      <point x="830.1" y="664.462108262"/>
      <point x="830.1" y="722.0" type="curve"/>
      <point x="767.0" y="722.0"/>
      <point x="830.1" y="722.0"/>
      <point x="767.0" y="722.0" type="curve"/>
      <point x="556.835435" y="722.0"/>
      <point x="289.0" y="722.0"/>
      <point x="79.0" y="722.0" type="curve"/>
    </contour>
    <contour>
      <point x="430" y="854" type="move" name="top"/>
    </contour>
  </outline>
</glyph>
<glyph name="bracketleft" format="1">
  <advance width="350"/>
  <unicode hex="005B"/>
  <outline>
    <contour>
      <point x="316.0" y="769.0"/>
      <point x="316.0" y="641.0"/>
      <point x="316.0" y="769.0" type="curve"/>
      <point x="249.0" y="769.0"/>
      <point x="183.0" y="769.0"/>
      <point x="117.0" y="769.0" type="curve"/>
      <point x="96.0" y="769.0"/>
      <point x="65.0" y="769.0"/>
      <point x="46.0" y="769.0" type="curve"/>
      <point x="46.0" y="753.0"/>
      <point x="46.0" y="727.0"/>
      <point x="46.0" y="710.0" type="curve"/>
      <point x="46.0" y="455.0"/>
      <point x="46.0" y="200.0"/>
      <point x="46.0" y="-55.0" type="curve"/>
      <point x="46.0" y="-72.0"/>
      <point x="46.0" y="-96.0"/>
      <point x="46.0" y="-112.0" type="curve"/>
      <point x="64.0" y="-112.0"/>
      <point x="94.0" y="-112.0"/>
      <point x="116.0" y="-112.0" type="curve"/>
      <point x="182.0" y="-112.0"/>
      <point x="249.0" y="-112.0"/>
      <point x="316.0" y="-112.0" type="curve"/>
      <point x="316.0" y="17.0"/>
      <point x="316.0" y="-112.0"/>
      <point x="316.0" y="17.0" type="curve"/>
      <point x="249.0" y="17.0"/>
      <point x="182.0" y="17.0"/>
      <point x="116.0" y="17.0" type="curve"/>
      <point x="206.0" y="17.0"/>
      <point x="116.0" y="17.0"/>
      <point x="206.0" y="17.0" type="curve"/>
      <point x="206.0" y="-55.0"/>
      <point x="206.0" y="17.0"/>
      <point x="206.0" y="-55.0" type="curve"/>
      <point x="206.0" y="200.0"/>
      <point x="206.0" y="455.0"/>
      <point x="206.0" y="710.0" type="curve"/>
      <point x="206.0" y="641.0"/>
      <point x="206.0" y="710.0"/>
      <point x="206.0" y="641.0" type="curve"/>
      <point x="117.0" y="641.0"/>
      <point x="206.0" y="641.0"/>
      <point x="117.0" y="641.0" type="curve"/>
      <point x="183.0" y="641.0"/>
      <point x="249.0" y="641.0"/>
      <point x="316.0" y="641.0" type="curve"/>
    </contour>
  </outline>
</glyph>
<glyph name="backslash" format="1">
  <advance width="759"/>
  <unicode hex="005C"/>
  <outline>
    <contour>
      <point x="718.0" y="-68.0"/>
      <point x="550.0" y="-68.0"/>
      <point x="718.0" y="-68.0" type="curve"/>
      <point x="548.0" y="236.0"/>
      <point x="378.0" y="540.0"/>
      <point x="208.0" y="844.0" type="curve"/>
      <point x="40.0" y="844.0"/>
      <point x="208.0" y="844.0"/>
      <point x="40.0" y="844.0" type="curve"/>
      <point x="210.0" y="540.0"/>
      <point x="380.0" y="236.0"/>
      <point x="550.0" y="-68.0" type="curve"/>
    </contour>
  </outline>
</glyph>
<glyph name="bracketright" format="1">
  <advance width="368"/>
  <unicode hex="005D"/>
  <outline>
    <contour>
      <point x="56.0" y="641.0"/>
      <point x="56.0" y="769.0"/>
      <point x="56.0" y="641.0" type="curve"/>
      <point x="122.0" y="641.0"/>
      <point x="188.0" y="641.0"/>
      <point x="255.0" y="641.0" type="curve"/>
      <point x="238.0" y="650.0"/>
      <point x="220.0" y="658.0"/>
      <point x="204.0" y="668.0" type="curve"/>
      <point x="188.0" y="679.0"/>
      <point x="180.0" y="698.0"/>
      <point x="165.0" y="710.0" type="curve"/>
      <point x="165.0" y="455.0"/>
      <point x="165.0" y="200.0"/>
      <point x="165.0" y="-55.0" type="curve"/>
      <point x="181.0" y="-43.0"/>
      <point x="192.0" y="-25.0"/>
      <point x="208.0" y="-14.0" type="curve"/>
      <point x="224.0" y="-3.0"/>
      <point x="240.0" y="6.0"/>
      <point x="256.0" y="17.0" type="curve"/>
      <point x="189.0" y="17.0"/>
      <point x="122.0" y="17.0"/>
      <point x="56.0" y="17.0" type="curve"/>
      <point x="56.0" y="-112.0"/>
      <point x="56.0" y="17.0"/>
      <point x="56.0" y="-112.0" type="curve"/>
      <point x="122.0" y="-112.0"/>
      <point x="189.0" y="-112.0"/>
      <point x="256.0" y="-112.0" type="curve"/>
      <point x="326.0" y="-112.0"/>
      <point x="256.0" y="-112.0"/>
      <point x="326.0" y="-112.0" type="curve"/>
      <point x="326.0" y="-55.0"/>
      <point x="326.0" y="-112.0"/>
      <point x="326.0" y="-55.0" type="curve"/>
      <point x="326.0" y="200.0"/>
      <point x="326.0" y="455.0"/>
      <point x="326.0" y="710.0" type="curve"/>
      <point x="326.0" y="769.0"/>
      <point x="326.0" y="710.0"/>
      <point x="326.0" y="769.0" type="curve"/>
      <point x="255.0" y="769.0"/>
      <point x="326.0" y="769.0"/>
      <point x="255.0" y="769.0" type="curve"/>
      <point x="188.0" y="769.0"/>
      <point x="122.0" y="769.0"/>
      <point x="56.0" y="769.0" type="curve"/>
    </contour>
  </outline>
</glyph>
<glyph name="underscore" format="1">
  <advance width="857"/>
  <unicode hex="005F"/>
  <outline>
    <contour>
      <point x="110.5" y="-181.042735043"/>
      <point x="110.5" y="-64.2427350427"/>
      <point x="110.5" y="-181.042735043" type="curve"/>
      <point x="406.030378" y="-181.042735043"/>
      <point x="701.569622" y="-181.042735043"/>
      <point x="997.1" y="-181.042735043" type="curve"/>
      <point x="997.1" y="-64.2427350427"/>
      <point x="997.1" y="-181.042735043"/>
      <point x="997.1" y="-64.2427350427" type="curve"/>
      <point x="701.569622" y="-64.2427350427"/>
      <point x="406.030378" y="-64.2427350427"/>
      <point x="110.5" y="-64.2427350427" type="curve"/>
    </contour>
  </outline>
</glyph>
<glyph name="grave" format="1">
  <advance width="400"/>
  <unicode hex="0060"/>
  <outline>
    <contour>
      <point x="468.3" y="591.0"/>
      <point x="239" y="591"/>
      <point x="458" y="591" type="curve"/>
      <point x="387" y="646"/>
      <point x="315" y="702"/>
      <point x="244" y="757" type="curve"/>
      <point x="25" y="757"/>
      <point x="253.8" y="757.0"/>
      <point x="34.8" y="757.0" type="curve"/>
      <point x="106.299285" y="701.66722"/>
      <point x="177.800715" y="646.33278"/>
      <point x="249.3" y="591.0" type="curve"/>
    </contour>
    <contour>
      <point x="247" y="646" type="move" name="_top"/>
    </contour>
  </outline>
</glyph>
<glyph name="a" format="1">
  <advance width="760"/>
  <unicode hex="0061"/>
  <outline>
    <contour>
      <point x="63" y="462"/>
      <point x="186" y="462"/>
      <point x="63" y="462" type="curve"/>
      <point x="63" y="342"/>
      <point x="63" y="455"/>
      <point x="63" y="335" type="curve"/>
      <point x="186" y="335"/>
      <point x="63" y="335"/>
      <point x="186" y="335" type="curve"/>
      <point x="186" y="455"/>
      <point x="186" y="342"/>
      <point x="186" y="462" type="curve"/>
    </contour>
    <contour>
      <point x="639.0" y="0.0"/>
      <point x="479.0" y="0.0"/>
      <point x="639.0" y="0.0" type="curve"/>
      <point x="639.0" y="123.0"/>
      <point x="639" y="238"/>
      <point x="639" y="361" type="curve"/>
      <point x="639" y="509"/>
      <point x="508.0" y="538.0"/>
      <point x="348.0" y="538.0" type="curve"/>
      <point x="227.536082474" y="538.0"/>
      <point x="137.593893525" y="508.130434154"/>
      <point x="63" y="462" type="curve"/>
      <point x="123" y="363"/>
      <point x="73" y="456"/>
      <point x="133" y="357" type="curve"/>
      <point x="186.548263368" y="388.155353233"/>
      <point x="239.683417085" y="421.0"/>
      <point x="326.0" y="421.0" type="curve"/>
      <point x="405.0" y="421.0"/>
      <point x="479" y="416"/>
      <point x="479.0" y="334.0" type="curve"/>
      <point x="479.0" y="222.0"/>
      <point x="479.0" y="111.0"/>
      <point x="479.0" y="0.0" type="curve"/>
    </contour>
    <contour>
      <point x="562.0" y="0.0"/>
      <point x="562.0" y="117.0"/>
      <point x="562.0" y="0.0" type="curve"/>
      <point x="622.0" y="0.0"/>
      <point x="682.0" y="0.0"/>
      <point x="743.0" y="0.0" type="curve"/>
      <point x="743.0" y="117.0"/>
      <point x="743.0" y="0.0"/>
      <point x="743.0" y="117.0" type="curve"/>
      <point x="562.0" y="117.0"/>
      <point x="743.0" y="117.0"/>
      <point x="562.0" y="117.0" type="curve"/>
    </contour>
    <contour>
      <point x="555.0" y="349.0"/>
      <point x="562.0" y="250.0"/>
      <point x="555.0" y="349.0" type="curve"/>
      <point x="453.556519176" y="340.049104633"/>
      <point x="393.049184206" y="337.280027121"/>
      <point x="292" y="328" type="curve"/>
      <point x="143" y="315"/>
      <point x="24" y="298"/>
      <point x="24" y="165" type="curve"/>
      <point x="24" y="38"/>
      <point x="127" y="-5"/>
      <point x="271" y="-5" type="curve"/>
      <point x="412.515923567" y="-5.0"/>
      <point x="481.484365633" y="49.5945935873"/>
      <point x="593" y="153" type="curve"/>
      <point x="519" y="212"/>
      <point x="592.391484664" y="152.221542981"/>
      <point x="518.0" y="211.0" type="curve"/>
      <point x="443.5356284" y="149.617207195"/>
      <point x="384.222222222" y="109.0"/>
      <point x="294" y="109" type="curve"/>
      <point x="231" y="109"/>
      <point x="182" y="119"/>
      <point x="182" y="165" type="curve"/>
      <point x="182" y="213"/>
      <point x="232" y="219"/>
      <point x="285" y="223" type="curve"/>
      <point x="392.070275862" y="232.26569695"/>
      <point x="454.593464165" y="240.054950386"/>
      <point x="562.0" y="250.0" type="curve"/>
    </contour>
    <contour>
      <point x="344.0" y="669.0" type="move" name="top"/>
    </contour>
    <contour>
      <point x="595.0" y="11.0" type="move" name="bottom"/>
    </contour>
  </outline>
</glyph>
<glyph name="b" format="1">
  <advance width="879"/>
  <unicode hex="0062"/>
  <outline>
    <contour>
      <point x="225.0" y="799.0"/>
      <point x="225.0" y="683.0"/>
      <point x="225.0" y="799.0" type="curve"/>
      <point x="161.0" y="799.0"/>
      <point x="96.0" y="800.0"/>
      <point x="31.0" y="800.0" type="curve"/>
      <point x="31.0" y="683.0"/>
      <point x="31.0" y="800.0"/>
      <point x="31.0" y="683.0" type="curve"/>
      <point x="225.0" y="683.0"/>
      <point x="31.0" y="683.0"/>
      <point x="225.0" y="683.0" type="curve"/>
    </contour>
    <contour>
      <point x="267.0" y="344.0"/>
      <point x="183.0" y="432.0"/>
      <point x="267.0" y="344.0" type="curve"/>
      <point x="317.0" y="384.0"/>
      <point x="403.0" y="416.0"/>
      <point x="497.0" y="416.0" type="curve"/>
      <point x="605.0" y="416.0"/>
      <point x="688.0" y="363.0"/>
      <point x="688.0" y="261.0" type="curve"/>
      <point x="691.0" y="163.0"/>
      <point x="606.0" y="116.0"/>
      <point x="498.0" y="117.0" type="curve"/>
      <point x="415.0" y="117.0"/>
      <point x="348.0" y="123.0"/>
      <point x="278.0" y="169.0" type="curve"/>
      <point x="173.0" y="99.0"/>
      <point x="278.0" y="169.0"/>
      <point x="173.0" y="99.0" type="curve"/>
      <point x="278.794556574" y="23.7231039764"/>
      <point x="375.0" y="-5.0"/>
      <point x="503.0" y="-5.0" type="curve"/>
      <point x="697.0" y="-5.0"/>
      <point x="850.018726006" y="85.666770902"/>
      <point x="849.0" y="267.0" type="curve"/>
      <point x="849.0" y="446.969924812"/>
      <point x="698.0" y="539.0"/>
      <point x="508.0" y="539.0" type="curve"/>
      <point x="377.0" y="539.0"/>
      <point x="256.677306915" y="490.327867974"/>
      <point x="183.0" y="432.0" type="curve"/>
    </contour>
    <contour>
      <point x="303.0" y="0.0"/>
      <point x="142.0" y="0.0"/>
      <point x="303.0" y="0.0" type="curve"/>
      <point x="303.0" y="267.0"/>
      <point x="303.0" y="533.0"/>
      <point x="303.0" y="800.0" type="curve"/>
      <point x="142.0" y="800.0"/>
      <point x="303.0" y="800.0"/>
      <point x="142.0" y="800.0" type="curve"/>
      <point x="142.0" y="533.0"/>
      <point x="142.0" y="267.0"/>
      <point x="142.0" y="0.0" type="curve"/>
    </contour>
    <contour>
      <point x="225.0" y="116.0"/>
      <point x="225.0" y="-1.0"/>
      <point x="225.0" y="116.0" type="curve"/>
      <point x="31.0" y="117.0"/>
      <point x="225.0" y="116.0"/>
      <point x="31.0" y="117.0" type="curve"/>
      <point x="31.0" y="0.0"/>
      <point x="31.0" y="117.0"/>
      <point x="31.0" y="0.0" type="curve"/>
      <point x="96.0" y="0.0"/>
      <point x="161.0" y="-1.0"/>
      <point x="225.0" y="-1.0" type="curve"/>
    </contour>
  </outline>
</glyph>
<glyph name="c" format="1">
  <advance width="699"/>
  <unicode hex="0063"/>
  <outline>
    <contour>
      <point x="539.06" y="469.235555556"/>
      <point x="661.7" y="469.235555556"/>
      <point x="539.06" y="469.235555556" type="curve"/>
      <point x="539.06" y="305.0"/>
      <point x="539.0" y="469.0"/>
      <point x="539.0" y="305.0" type="curve"/>
      <point x="662.0" y="305.0"/>
      <point x="539.0" y="305.0"/>
      <point x="662.0" y="305.0" type="curve"/>
      <point x="662.0" y="469.0"/>
      <point x="661.7" y="305.0"/>
      <point x="661.7" y="469.235555556" type="curve"/>
    </contour>
    <contour>
      <point x="661.7" y="469.235555556"/>
      <point x="566.8" y="387.475555556"/>
      <point x="661.7" y="469.235555556" type="curve"/>
      <point x="590.0" y="511.0"/>
      <point x="500.0" y="538.0"/>
      <point x="413.0" y="538.0" type="curve"/>
      <point x="199.0" y="538.0"/>
      <point x="41.9" y="466.441095061"/>
      <point x="41.9" y="266.905653021" type="curve"/>
      <point x="41.9" y="69.693439158"/>
      <point x="194.961642219" y="-5.0"/>
      <point x="407.8" y="-5.0" type="curve"/>
      <point x="505.44308072" y="-5.0"/>
      <point x="599.0" y="19.0"/>
      <point x="658.0" y="68.0" type="curve"/>
      <point x="573.0" y="167.0"/>
      <point x="658.0" y="68.0"/>
      <point x="572.5" y="166.698830409" type="curve"/>
      <point x="527.478270409" y="132.118940535"/>
      <point x="472.062487886" y="116.8"/>
      <point x="415.1" y="116.8" type="curve"/>
      <point x="293.636034307" y="116.8"/>
      <point x="202.5" y="154.966811889"/>
      <point x="202.5" y="266.905653021" type="curve"/>
      <point x="202.5" y="377.127555985"/>
      <point x="290.32550216" y="416.2"/>
      <point x="409.1" y="416.2" type="curve"/>
      <point x="463.88329403" y="416.2"/>
      <point x="519.875897209" y="411.002558653"/>
      <point x="566.8" y="387.475555556" type="curve"/>
    </contour>
    <contour>
      <point x="402.0" y="670.0" type="move" name="top"/>
    </contour>
    <contour>
      <point x="344.0" y="42.0" type="move" name="bottom"/>
    </contour>
  </outline>
</glyph>
<glyph name="d" format="1">
  <advance width="899"/>
  <unicode hex="0064"/>
  <outline>
    <contour>
      <point x="683.0" y="799.0"/>
      <point x="683.0" y="684.0"/>
      <point x="683.0" y="800.0" type="curve"/>
      <point x="618.0" y="800.0"/>
      <point x="553.0" y="800.0"/>
      <point x="489.0" y="800.0" type="curve"/>
      <point x="489.0" y="683.0"/>
      <point x="489.0" y="800.0"/>
      <point x="489.0" y="683.0" type="curve"/>
      <point x="683.0" y="683.0"/>
      <point x="489.0" y="683.0"/>
      <point x="683.0" y="683.0" type="curve"/>
    </contour>
    <contour>
      <point x="684.0" y="-1.0"/>
      <point x="684.0" y="117.0"/>
      <point x="684.0" y="0.0" type="curve"/>
      <point x="749.0" y="0.0"/>
      <point x="813.0" y="0.0"/>
      <point x="878.0" y="0.0" type="curve"/>
      <point x="878.0" y="117.0"/>
      <point x="878.0" y="0.0"/>
      <point x="878.0" y="117.0" type="curve"/>
      <point x="684.0" y="116.0"/>
      <point x="878.0" y="117.0"/>
      <point x="684.0" y="116.0" type="curve"/>
    </contour>
    <contour>
      <point x="710.0" y="433.0"/>
      <point x="635.0" y="362.0"/>
      <point x="712.0" y="430.0" type="curve"/>
      <point x="664.0" y="498.0"/>
      <point x="537.0" y="538.0"/>
      <point x="429.0" y="538.0" type="curve"/>
      <point x="219.0" y="538.0"/>
      <point x="50.0" y="454.0"/>
      <point x="50.0" y="262.0" type="curve"/>
      <point x="50.0" y="70.0"/>
      <point x="226.0" y="-5.0"/>
      <point x="439.0" y="-5.0" type="curve"/>
      <point x="569.0" y="-5.0"/>
      <point x="640.0" y="40.0"/>
      <point x="709.0" y="131.0" type="curve"/>
      <point x="633.0" y="193.0"/>
      <point x="709.0" y="131.0"/>
      <point x="633.0" y="193.0" type="curve"/>
      <point x="574.0" y="131.0"/>
      <point x="511.0" y="112.0"/>
      <point x="428.0" y="112.0" type="curve"/>
      <point x="308.0" y="112.0"/>
      <point x="210.0" y="157.0"/>
      <point x="210.0" y="268.0" type="curve"/>
      <point x="210.0" y="379.0"/>
      <point x="312.0" y="421.0"/>
      <point x="433.0" y="421.0" type="curve"/>
      <point x="510.0" y="421.0"/>
      <point x="572.0" y="408.0"/>
      <point x="633.0" y="364.0" type="curve"/>
    </contour>
    <contour>
      <point x="767.0" y="0.0"/>
      <point x="599.0" y="0.0"/>
      <point x="767.0" y="0.0" type="curve"/>
      <point x="767.0" y="267.0"/>
      <point x="767.0" y="533.0"/>
      <point x="767.0" y="800.0" type="curve"/>
      <point x="599.0" y="800.0"/>
      <point x="767.0" y="800.0"/>
      <point x="599.0" y="800.0" type="curve"/>
      <point x="599.0" y="533.0"/>
      <point x="599.0" y="267.0"/>
      <point x="599.0" y="0.0" type="curve"/>
    </contour>
    <contour>
      <point x="685.0" y="602.0" type="move" name="croat"/>
    </contour>
  </outline>
</glyph>
<glyph name="e" format="1">
  <advance width="724"/>
  <unicode hex="0065"/>
  <outline>
    <contour>
      <point x="117.0" y="222.0"/>
      <point x="117.0" y="339.0"/>
      <point x="117.0" y="222.0" type="curve"/>
      <point x="286.0" y="222.0"/>
      <point x="456.0" y="222.0"/>
      <point x="625.0" y="222.0" type="curve"/>
      <point x="643.0" y="218.0"/>
      <point x="643.0" y="254.0"/>
      <point x="661.0" y="250.0" type="curve"/>
      <point x="664.0" y="264.0"/>
      <point x="688.0" y="260.0"/>
      <point x="691.0" y="274.0" type="curve"/>
      <point x="691.0" y="278.0"/>
      <point x="691.0" y="282.0"/>
      <point x="691.0" y="286.0" type="curve"/>
      <point x="691.0" y="464.0"/>
      <point x="562.0" y="537.0"/>
      <point x="375.0" y="537.0" type="curve"/>
      <point x="175.0" y="537.0"/>
      <point x="35.0" y="465.0"/>
      <point x="35.0" y="278.0" type="curve"/>
      <point x="35.0" y="74.0"/>
      <point x="188.0" y="-5.0"/>
      <point x="404.0" y="-5.0" type="curve"/>
      <point x="508.0" y="-5.0"/>
      <point x="577.0" y="15.0"/>
      <point x="653.0" y="63.0" type="curve"/>
      <point x="565.0" y="160.0"/>
      <point x="653.0" y="63.0"/>
      <point x="565.0" y="160.0" type="curve"/>
      <point x="509.0" y="126.0"/>
      <point x="467.0" y="112.0"/>
      <point x="404.0" y="112.0" type="curve"/>
      <point x="282.0" y="112.0"/>
      <point x="196.0" y="161.0"/>
      <point x="196.0" y="278.0" type="curve"/>
      <point x="196.0" y="377.0"/>
      <point x="265.0" y="420.0"/>
      <point x="367.0" y="420.0" type="curve"/>
      <point x="465.0" y="420.0"/>
      <point x="538.0" y="393.0"/>
      <point x="538.0" y="303.0" type="curve"/>
      <point x="538.0" y="293.0"/>
      <point x="538.0" y="284.0"/>
      <point x="538.0" y="274.0" type="curve"/>
      <point x="553.0" y="284.0"/>
      <point x="565.0" y="300.0"/>
      <point x="581.0" y="309.0" type="curve"/>
      <point x="596.0" y="319.0"/>
      <point x="610.0" y="330.0"/>
      <point x="625.0" y="339.0" type="curve"/>
      <point x="456.0" y="339.0"/>
      <point x="286.0" y="339.0"/>
      <point x="117.0" y="339.0" type="curve"/>
    </contour>
    <contour>
      <point x="117.0" y="222.0"/>
      <point x="117.0" y="339.0"/>
      <point x="117.0" y="222.0" type="curve"/>
      <point x="286.0" y="222.0"/>
      <point x="456.0" y="222.0"/>
      <point x="625.0" y="222.0" type="curve"/>
      <point x="691.0" y="222.0"/>
      <point x="625.0" y="222.0"/>
      <point x="691.0" y="222.0" type="curve"/>
      <point x="691.0" y="274.0"/>
      <point x="691.0" y="222.0"/>
      <point x="691.0" y="274.0" type="curve"/>
      <point x="691.0" y="280.0"/>
      <point x="691.0" y="285.0"/>
      <point x="691.0" y="291.0" type="curve"/>
      <point x="691.0" y="467.0"/>
      <point x="561.0" y="537.0"/>
      <point x="375.0" y="537.0" type="curve"/>
      <point x="175.0" y="537.0"/>
      <point x="35.0" y="465.0"/>
      <point x="35.0" y="278.0" type="curve"/>
      <point x="35.0" y="74.0"/>
      <point x="188.0" y="-5.0"/>
      <point x="404.0" y="-5.0" type="curve"/>
      <point x="508.0" y="-5.0"/>
      <point x="577.0" y="15.0"/>
      <point x="653.0" y="63.0" type="curve"/>
      <point x="565.0" y="160.0"/>
      <point x="653.0" y="63.0"/>
      <point x="565.0" y="160.0" type="curve"/>
      <point x="509.0" y="126.0"/>
      <point x="467.0" y="112.0"/>
      <point x="404.0" y="112.0" type="curve"/>
      <point x="282.0" y="112.0"/>
      <point x="196.0" y="161.0"/>
      <point x="196.0" y="278.0" type="curve"/>
      <point x="196.0" y="377.0"/>
      <point x="265.0" y="420.0"/>
      <point x="367.0" y="420.0" type="curve"/>
      <point x="465.0" y="420.0"/>
      <point x="538.0" y="393.0"/>
      <point x="538.0" y="303.0" type="curve"/>
      <point x="538.0" y="293.0"/>
      <point x="538.0" y="284.0"/>
      <point x="538.0" y="274.0" type="curve"/>
      <point x="553.0" y="284.0"/>
      <point x="565.0" y="300.0"/>
      <point x="581.0" y="309.0" type="curve"/>
      <point x="596.0" y="319.0"/>
      <point x="610.0" y="330.0"/>
      <point x="625.0" y="339.0" type="curve"/>
      <point x="456.0" y="339.0"/>
      <point x="286.0" y="339.0"/>
      <point x="117.0" y="339.0" type="curve"/>
    </contour>
    <contour>
      <point x="368" y="670" type="move" name="top"/>
    </contour>
    <contour>
      <point x="493" y="23" type="move" name="bottom"/>
    </contour>
  </outline>
</glyph>
<glyph name="f" format="1">
  <advance width="674"/>
  <unicode hex="0066"/>
  <outline>
    <contour>
      <point x="520.0" y="764.0"/>
      <point x="642.0" y="764.0"/>
      <point x="520.0" y="764.0" type="curve"/>
      <point x="520.0" y="619.0"/>
      <point x="520.0" y="764.0"/>
      <point x="520.0" y="619.0" type="curve"/>
      <point x="642.0" y="619.0"/>
      <point x="520.0" y="619.0"/>
      <point x="642.0" y="619.0" type="curve"/>
      <point x="642.0" y="764.0"/>
      <point x="642.0" y="619.0"/>
      <point x="642.0" y="764.0" type="curve"/>
    </contour>
    <contour>
      <point x="298.0" y="-1.0"/>
      <point x="298.0" y="116.0"/>
      <point x="298.0" y="-1.0" type="curve"/>
      <point x="363.0" y="-1.0"/>
      <point x="427.0" y="0.0"/>
      <point x="492.0" y="0.0" type="curve"/>
      <point x="492.0" y="117.0"/>
      <point x="492.0" y="0.0"/>
      <point x="492.0" y="117.0" type="curve"/>
      <point x="298.0" y="116.0"/>
      <point x="492.0" y="117.0"/>
      <point x="298.0" y="116.0" type="curve"/>
    </contour>
    <contour>
      <point x="298.0" y="116.0"/>
      <point x="298.0" y="-1.0"/>
      <point x="298.0" y="116.0" type="curve"/>
      <point x="104.0" y="117.0"/>
      <point x="298.0" y="116.0"/>
      <point x="104.0" y="117.0" type="curve"/>
      <point x="104.0" y="0.0"/>
      <point x="104.0" y="117.0"/>
      <point x="104.0" y="0.0" type="curve"/>
      <point x="169.0" y="0.0"/>
      <point x="234.0" y="-1.0"/>
      <point x="298.0" y="-1.0" type="curve"/>
    </contour>
    <contour>
      <point x="58.0" y="427.0"/>
      <point x="58.0" y="544.0"/>
      <point x="58.0" y="427.0" type="curve"/>
      <point x="58.0" y="427.0"/>
      <point x="605.0" y="427.0"/>
      <point x="605.0" y="427.0" type="curve"/>
      <point x="605.0" y="544.0"/>
      <point x="605.0" y="427.0"/>
      <point x="605.0" y="544.0" type="curve"/>
      <point x="605.0" y="544.0"/>
      <point x="58.0" y="544.0"/>
      <point x="58.0" y="544.0" type="curve"/>
    </contour>
    <contour>
      <point x="379.0" y="0.0"/>
      <point x="218.0" y="0.0"/>
      <point x="379.0" y="0.0" type="curve"/>
      <point x="379.0" y="0.0"/>
      <point x="379.0" y="602.0"/>
      <point x="379.0" y="602.0" type="curve"/>
      <point x="378.0" y="657.0"/>
      <point x="418.0" y="688.0"/>
      <point x="476.0" y="688.0" type="curve"/>
      <point x="510.0" y="688.0"/>
      <point x="545.0" y="682.0"/>
      <point x="577.0" y="670.0" type="curve"/>
      <point x="642.0" y="764.0"/>
      <point x="577.0" y="670.0"/>
      <point x="642.0" y="764.0" type="curve"/>
      <point x="589.0" y="784.0"/>
      <point x="533.0" y="800.0"/>
      <point x="476.0" y="800.0" type="curve"/>
      <point x="328.0" y="800.0"/>
      <point x="216.0" y="737.0"/>
      <point x="218.0" y="602.0" type="curve"/>
      <point x="218.0" y="602.0"/>
      <point x="218.0" y="0.0"/>
      <point x="218.0" y="0.0" type="curve"/>
    </contour>
  </outline>
</glyph>
<glyph name="g" format="1">
  <advance width="769"/>
  <unicode hex="0067"/>
  <outline>
    <contour>
      <point x="610.0" y="382.0"/>
      <point x="522.0" y="476.0"/>
      <point x="610.0" y="382.0" type="curve"/>
      <point x="666.0" y="402.0"/>
      <point x="724.0" y="416.0"/>
      <point x="760.0" y="433.0" type="curve"/>
      <point x="701.0" y="546.0"/>
      <point x="760.0" y="433.0"/>
      <point x="701.0" y="546.0" type="curve"/>
      <point x="640.0" y="525.0"/>
      <point x="582.0" y="498.0"/>
      <point x="522.0" y="476.0" type="curve"/>
    </contour>
    <contour>
      <point x="241.0" y="336.0"/>
      <point x="80.0" y="330.0"/>
      <point x="241.0" y="336.0" type="curve"/>
      <point x="241.0" y="402.0"/>
      <point x="311.0" y="422.0"/>
      <point x="389.0" y="422.0" type="curve"/>
      <point x="466.0" y="422.0"/>
      <point x="531.0" y="400.0"/>
      <point x="531.0" y="334.0" type="curve"/>
      <point x="531.0" y="272.0"/>
      <point x="466.0" y="255.0"/>
      <point x="392.0" y="255.0" type="curve"/>
      <point x="314.0" y="255.0"/>
      <point x="241.0" y="268.0"/>
      <point x="241.0" y="336.0" type="curve"/>
      <point x="80.0" y="330.0"/>
      <point x="241.0" y="336.0"/>
      <point x="80.0" y="330.0" type="curve"/>
      <point x="80.0" y="189.0"/>
      <point x="218.0" y="138.0"/>
      <point x="378.0" y="138.0" type="curve"/>
      <point x="547.0" y="138.0"/>
      <point x="692.0" y="191.0"/>
      <point x="692.0" y="339.0" type="curve"/>
      <point x="692.0" y="484.0"/>
      <point x="553.0" y="539.0"/>
      <point x="389.0" y="539.0" type="curve"/>
      <point x="221.0" y="539.0"/>
      <point x="80.0" y="479.0"/>
      <point x="80.0" y="330.0" type="curve"/>
    </contour>
    <contour>
      <point x="221.0" y="249.0"/>
      <point x="294.0" y="179.0"/>
      <point x="221.0" y="249.0" type="curve"/>
      <point x="147.0" y="223.0"/>
      <point x="85.0" y="189.0"/>
      <point x="85.0" y="114.0" type="curve"/>
      <point x="85.0" y="-13.0"/>
      <point x="224.0" y="-25.0"/>
      <point x="368.0" y="-34.0" type="curve"/>
      <point x="483.0" y="-40.0"/>
      <point x="611.0" y="-25.0"/>
      <point x="611.0" y="-115.0" type="curve"/>
      <point x="611.0" y="-190.0"/>
      <point x="496.0" y="-187.0"/>
      <point x="386.0" y="-187.0" type="curve"/>
      <point x="284.0" y="-187.0"/>
      <point x="183.0" y="-181.0"/>
      <point x="183.0" y="-99.0" type="curve"/>
      <point x="183.0" y="-36.0"/>
      <point x="237.0" y="-12.0"/>
      <point x="296.0" y="4.0" type="curve"/>
      <point x="216.0" y="74.0"/>
      <point x="296.0" y="4.0"/>
      <point x="216.0" y="74.0" type="curve"/>
      <point x="112.0" y="47.0"/>
      <point x="23.0" y="2.0"/>
      <point x="23.0" y="-105.0" type="curve"/>
      <point x="23.0" y="-269.0"/>
      <point x="192.0" y="-304.0"/>
      <point x="378.0" y="-304.0" type="curve"/>
      <point x="576.0" y="-304.0"/>
      <point x="761.0" y="-278.0"/>
      <point x="757.0" y="-104.0" type="curve"/>
      <point x="757.0" y="65.0"/>
      <point x="579.0" y="68.0"/>
      <point x="397.0" y="77.0" type="curve"/>
      <point x="325.0" y="81.0"/>
      <point x="246.0" y="80.0"/>
      <point x="246.0" y="125.0" type="curve"/>
      <point x="246.0" y="154.0"/>
      <point x="267.0" y="169.0"/>
      <point x="294.0" y="179.0" type="curve"/>
    </contour>
    <contour>
      <point x="386" y="670" type="move" name="top"/>
    </contour>
  </outline>
</glyph>
<glyph name="h" format="1">
  <advance width="921"/>
  <unicode hex="0068"/>
  <outline>
    <contour>
      <point x="704.0" y="-1.0"/>
      <point x="704.0" y="116.0"/>
      <point x="704.0" y="-1.0" type="curve"/>
      <point x="769.0" y="-1.0"/>
      <point x="833.0" y="0.0"/>
      <point x="898.0" y="0.0" type="curve"/>
      <point x="898.0" y="117.0"/>
      <point x="898.0" y="0.0"/>
      <point x="898.0" y="117.0" type="curve"/>
      <point x="704.0" y="116.0"/>
      <point x="898.0" y="117.0"/>
      <point x="704.0" y="116.0" type="curve"/>
    </contour>
    <contour>
      <point x="222.0" y="-1.0"/>
      <point x="222.0" y="116.0"/>
      <point x="222.0" y="-1.0" type="curve"/>
      <point x="282.0" y="-1.0"/>
      <point x="222.0" y="-1.0"/>
      <point x="403.0" y="0.0" type="curve"/>
      <point x="403.0" y="117.0"/>
      <point x="403.0" y="0.0"/>
      <point x="403.0" y="117.0" type="curve"/>
      <point x="222.0" y="116.0"/>
      <point x="403.0" y="117.0"/>
      <point x="222.0" y="116.0" type="curve"/>
    </contour>
    <contour>
      <point x="222.0" y="799.0"/>
      <point x="222.0" y="683.0"/>
      <point x="222.0" y="799.0" type="curve"/>
      <point x="157.0" y="799.0"/>
      <point x="92.0" y="800.0"/>
      <point x="28.0" y="800.0" type="curve"/>
      <point x="28.0" y="683.0"/>
      <point x="28.0" y="800.0"/>
      <point x="28.0" y="683.0" type="curve"/>
      <point x="222.0" y="683.0"/>
      <point x="28.0" y="683.0"/>
      <point x="222.0" y="683.0" type="curve"/>
    </contour>
    <contour>
      <point x="222.0" y="116.0"/>
      <point x="222.0" y="-1.0"/>
      <point x="222.0" y="116.0" type="curve"/>
      <point x="28.0" y="117.0"/>
      <point x="222.0" y="116.0"/>
      <point x="28.0" y="117.0" type="curve"/>
      <point x="28.0" y="0.0"/>
      <point x="28.0" y="117.0"/>
      <point x="28.0" y="0.0" type="curve"/>
      <point x="92.0" y="0.0"/>
      <point x="157.0" y="-1.0"/>
      <point x="222.0" y="-1.0" type="curve"/>
    </contour>
    <contour>
      <point x="704.0" y="116.0"/>
      <point x="704.0" y="-1.0"/>
      <point x="704.0" y="116.0" type="curve"/>
      <point x="523.0" y="117.0"/>
      <point x="704.0" y="116.0"/>
      <point x="523.0" y="117.0" type="curve"/>
      <point x="523.0" y="0.0"/>
      <point x="523.0" y="117.0"/>
      <point x="523.0" y="0.0" type="curve"/>
      <point x="583.0" y="0.0"/>
      <point x="644.0" y="-1.0"/>
      <point x="704.0" y="-1.0" type="curve"/>
    </contour>
    <contour>
      <point x="266.0" y="297.0"/>
      <point x="182.0" y="356.0"/>
      <point x="266.0" y="297.0" type="curve"/>
      <point x="308.370107285" y="379.673380068"/>
      <point x="398.0" y="421.0"/>
      <point x="489.0" y="421.0" type="curve"/>
      <point x="572.0" y="421.0"/>
      <point x="625.0" y="385.468468468"/>
      <point x="625.0" y="305.0" type="curve"/>
      <point x="625.0" y="204.0"/>
      <point x="625.0" y="102.0"/>
      <point x="625.0" y="0.0" type="curve"/>
      <point x="786.0" y="0.0"/>
      <point x="625.0" y="0.0"/>
      <point x="786.0" y="0.0" type="curve"/>
      <point x="786.0" y="106.0"/>
      <point x="786.0" y="211.0"/>
      <point x="786.0" y="317.0" type="curve"/>
      <point x="786.0" y="474.564814815"/>
      <point x="675.0" y="538.0"/>
      <point x="508.0" y="538.0" type="curve"/>
      <point x="371.0" y="538.0"/>
      <point x="235.24572831" y="480.922670265"/>
      <point x="182.0" y="356.0" type="curve"/>
    </contour>
    <contour>
      <point x="302.0" y="0.0"/>
      <point x="141.0" y="0.0"/>
      <point x="302.0" y="0.0" type="curve"/>
      <point x="302.0" y="267.0"/>
      <point x="302.0" y="533.0"/>
      <point x="302.0" y="800.0" type="curve"/>
      <point x="141.0" y="800.0"/>
      <point x="302.0" y="800.0"/>
      <point x="141.0" y="800.0" type="curve"/>
      <point x="141.0" y="533.0"/>
      <point x="141.0" y="267.0"/>
      <point x="141.0" y="0.0" type="curve"/>
    </contour>
  </outline>
</glyph>
<glyph name="i" format="1">
  <advance width="409"/>
  <unicode hex="0069"/>
  <outline>
    <contour>
      <point x="209.0" y="117.0"/>
      <point x="209.0" y="0.0"/>
      <point x="209.0" y="117.0" type="curve"/>
      <point x="15.0" y="117.0"/>
      <point x="209.0" y="117.0"/>
      <point x="15.0" y="117.0" type="curve"/>
      <point x="15.0" y="0.0"/>
      <point x="15.0" y="117.0"/>
      <point x="15.0" y="0.0" type="curve"/>
      <point x="80.0" y="0.0"/>
      <point x="145.0" y="0.0"/>
      <point x="209.0" y="0.0" type="curve"/>
    </contour>
    <contour>
      <point x="209.0" y="0.0"/>
      <point x="209.0" y="117.0"/>
      <point x="209.0" y="0.0" type="curve"/>
      <point x="270.0" y="0.0"/>
      <point x="330.0" y="0.0"/>
      <point x="390.0" y="0.0" type="curve"/>
      <point x="390.0" y="117.0"/>
      <point x="390.0" y="0.0"/>
      <point x="390.0" y="117.0" type="curve"/>
      <point x="209.0" y="117.0"/>
      <point x="390.0" y="117.0"/>
      <point x="209.0" y="117.0" type="curve"/>
    </contour>
    <contour>
      <point x="209.0" y="533.0"/>
      <point x="209.0" y="416.0"/>
      <point x="209.0" y="533.0" type="curve"/>
      <point x="145.0" y="533.0"/>
      <point x="80.0" y="533.0"/>
      <point x="15.0" y="533.0" type="curve"/>
      <point x="15.0" y="416.0"/>
      <point x="15.0" y="533.0"/>
      <point x="15.0" y="416.0" type="curve"/>
      <point x="209.0" y="416.0"/>
      <point x="15.0" y="416.0"/>
      <point x="209.0" y="416.0" type="curve"/>
    </contour>
    <contour>
      <point x="303.0" y="670.0"/>
      <point x="114.0" y="670.0"/>
      <point x="303.0" y="670.0" type="curve"/>
      <point x="303.0" y="722.0"/>
      <point x="262.0" y="746.0"/>
      <point x="207.0" y="746.0" type="curve"/>
      <point x="152.0" y="746.0"/>
      <point x="114.0" y="719.0"/>
      <point x="114.0" y="670.0" type="curve"/>
      <point x="303.0" y="670.0"/>
      <point x="114.0" y="670.0"/>
      <point x="303.0" y="670.0" type="curve"/>
      <point x="303.0" y="617.0"/>
      <point x="263.0" y="595.0"/>
      <point x="207.0" y="595.0" type="curve"/>
      <point x="151.0" y="595.0"/>
      <point x="114.0" y="619.0"/>
      <point x="114.0" y="670.0" type="curve"/>
    </contour>
    <contour>
      <point x="294.0" y="0.0"/>
      <point x="126.0" y="0.0"/>
      <point x="294.0" y="0.0" type="curve"/>
      <point x="294.0" y="178.0"/>
      <point x="294.0" y="355.0"/>
      <point x="294.0" y="533.0" type="curve"/>
      <point x="126.0" y="533.0"/>
      <point x="294.0" y="533.0"/>
      <point x="126.0" y="533.0" type="curve"/>
      <point x="126.0" y="355.0"/>
      <point x="126.0" y="178.0"/>
      <point x="126.0" y="0.0" type="curve"/>
    </contour>
    <contour>
      <point x="207" y="670" type="move" name="top"/>
    </contour>
    <contour>
      <point x="281" y="14" type="move" name="bottom"/>
    </contour>
  </outline>
</glyph>
<glyph name="j" format="1">
  <advance width="438"/>
  <unicode hex="006A"/>
  <outline>
    <contour>
      <point x="279.5" y="533.0"/>
      <point x="279.5" y="416.2"/>
      <point x="279.5" y="533.0" type="curve"/>
      <point x="214.867313" y="533.0"/>
      <point x="150.232687" y="533.0"/>
      <point x="85.6" y="533.0" type="curve"/>
      <point x="85.6" y="416.2"/>
      <point x="85.6" y="533.0"/>
      <point x="85.6" y="416.2" type="curve"/>
      <point x="279.5" y="416.2"/>
      <point x="85.6" y="416.2"/>
      <point x="279.5" y="416.2" type="curve"/>
    </contour>
    <contour>
      <point x="377.285" y="670.0"/>
      <point x="188.215" y="670.0"/>
      <point x="377.285" y="670.0" type="curve"/>
      <point x="377.285" y="721.982330183"/>
      <point x="335.960477822" y="746.128"/>
      <point x="280.8" y="746.128" type="curve"/>
      <point x="226.333747424" y="746.128"/>
      <point x="188.215" y="719.180729423"/>
      <point x="188.215" y="670.0" type="curve"/>
      <point x="377.285" y="670.0"/>
      <point x="188.215" y="670.0"/>
      <point x="377.285" y="670.0" type="curve"/>
      <point x="377.285" y="616.594340872"/>
      <point x="336.663807347" y="594.872"/>
      <point x="280.8" y="594.872" type="curve"/>
      <point x="225.377761441" y="594.872"/>
      <point x="188.215" y="619.246478086"/>
      <point x="188.215" y="670.0" type="curve"/>
    </contour>
    <contour>
      <point x="43.0" y="-302.0"/>
      <point x="65.0" y="-191.0"/>
      <point x="43.0" y="-302.0" type="curve"/>
      <point x="54.9585490989" y="-302.996545758"/>
      <point x="70.0" y="-305.0"/>
      <point x="87.0" y="-305.0" type="curve"/>
      <point x="236.0" y="-305.0"/>
      <point x="361.0" y="-252.0"/>
      <point x="361.0" y="-118.0" type="curve"/>
      <point x="361.0" y="98.9796078196"/>
      <point x="361.1" y="316.473210801"/>
      <point x="361.1" y="533.961509361" type="curve"/>
      <point x="200.5" y="533.961509361"/>
      <point x="361.1" y="533.961509361"/>
      <point x="200.5" y="533.961509361" type="curve"/>
      <point x="200.5" y="316.473210801"/>
      <point x="201.0" y="98.9796078196"/>
      <point x="201.0" y="-118.0" type="curve"/>
      <point x="201.0" y="-171.0"/>
      <point x="152.0" y="-193.0"/>
      <point x="94.0" y="-193.0" type="curve"/>
      <point x="84.0" y="-193.0"/>
      <point x="71.2385029389" y="-192.03975049"/>
      <point x="65.0" y="-191.0" type="curve"/>
    </contour>
  </outline>
</glyph>
<glyph name="k" format="1">
  <advance width="881"/>
  <unicode hex="006B"/>
  <outline>
    <contour>
      <point x="219.0" y="116.0"/>
      <point x="219.0" y="-1.0"/>
      <point x="219.0" y="116.0" type="curve"/>
      <point x="26.0" y="117.0"/>
      <point x="219.0" y="116.0"/>
      <point x="26.0" y="117.0" type="curve"/>
      <point x="26.0" y="0.0"/>
      <point x="26.0" y="117.0"/>
      <point x="26.0" y="0.0" type="curve"/>
      <point x="90.0" y="0.0"/>
      <point x="155.0" y="-1.0"/>
      <point x="219.0" y="-1.0" type="curve"/>
    </contour>
    <contour>
      <point x="629.0" y="-1.0"/>
      <point x="629.0" y="116.0"/>
      <point x="629.0" y="-1.0" type="curve"/>
      <point x="710.0" y="-1.0"/>
      <point x="791.0" y="0.0"/>
      <point x="871.0" y="0.0" type="curve"/>
      <point x="871.0" y="117.0"/>
      <point x="871.0" y="0.0"/>
      <point x="871.0" y="117.0" type="curve"/>
      <point x="629.0" y="116.0"/>
      <point x="871.0" y="117.0"/>
      <point x="629.0" y="116.0" type="curve"/>
    </contour>
    <contour>
      <point x="664.0" y="416.0"/>
      <point x="664.0" y="533.0"/>
      <point x="664.0" y="416.0" type="curve"/>
      <point x="841.0" y="416.0"/>
      <point x="664.0" y="416.0"/>
      <point x="841.0" y="416.0" type="curve"/>
      <point x="841.0" y="533.0"/>
      <point x="841.0" y="416.0"/>
      <point x="841.0" y="533.0" type="curve"/>
      <point x="782.0" y="533.0"/>
      <point x="722.0" y="533.0"/>
      <point x="664.0" y="533.0" type="curve"/>
    </contour>
    <contour>
      <point x="219.0" y="-1.0"/>
      <point x="219.0" y="116.0"/>
      <point x="219.0" y="-1.0" type="curve"/>
      <point x="267.0" y="-1.0"/>
      <point x="219.0" y="-1.0"/>
      <point x="363.0" y="0.0" type="curve"/>
      <point x="363.0" y="117.0"/>
      <point x="363.0" y="0.0"/>
      <point x="363.0" y="117.0" type="curve"/>
      <point x="219.0" y="116.0"/>
      <point x="363.0" y="117.0"/>
      <point x="219.0" y="116.0" type="curve"/>
    </contour>
    <contour>
      <point x="664.0" y="533.0"/>
      <point x="664.0" y="416.0"/>
      <point x="664.0" y="533.0" type="curve"/>
      <point x="551.0" y="533.0"/>
      <point x="439.0" y="533.0"/>
      <point x="328.0" y="533.0" type="curve"/>
      <point x="328.0" y="416.0"/>
      <point x="328.0" y="533.0"/>
      <point x="328.0" y="416.0" type="curve"/>
      <point x="664.0" y="416.0"/>
      <point x="328.0" y="416.0"/>
      <point x="664.0" y="416.0" type="curve"/>
    </contour>
    <contour>
      <point x="222.0" y="799.0"/>
      <point x="222.0" y="683.0"/>
      <point x="222.0" y="799.0" type="curve"/>
      <point x="157.0" y="799.0"/>
      <point x="93.0" y="800.0"/>
      <point x="28.0" y="800.0" type="curve"/>
      <point x="28.0" y="683.0"/>
      <point x="28.0" y="800.0"/>
      <point x="28.0" y="683.0" type="curve"/>
      <point x="222.0" y="683.0"/>
      <point x="28.0" y="683.0"/>
      <point x="222.0" y="683.0" type="curve"/>
    </contour>
    <contour>
      <point x="301.0" y="0.0"/>
      <point x="140.0" y="0.0"/>
      <point x="301.0" y="0.0" type="curve"/>
      <point x="301.0" y="0.0"/>
      <point x="301.0" y="800.0"/>
      <point x="301.0" y="800.0" type="curve"/>
      <point x="140.0" y="800.0"/>
      <point x="301.0" y="800.0"/>
      <point x="140.0" y="800.0" type="curve"/>
      <point x="140.0" y="533.0"/>
      <point x="140.0" y="267.0"/>
      <point x="140.0" y="0.0" type="curve"/>
    </contour>
    <contour>
      <point x="582.0" y="533.0"/>
      <point x="830.0" y="533.0"/>
      <point x="582.0" y="533.0" type="curve"/>
      <point x="437.0" y="451.0"/>
      <point x="300.0" y="357.0"/>
      <point x="155.0" y="275.0" type="curve"/>
      <point x="373.0" y="275.0"/>
      <point x="155.0" y="275.0"/>
      <point x="373.0" y="275.0" type="curve"/>
      <point x="525.0" y="361.0"/>
      <point x="678.0" y="447.0"/>
      <point x="830.0" y="533.0" type="curve"/>
    </contour>
    <contour>
      <point x="864.0" y="0.0"/>
      <point x="615.0" y="0.0"/>
      <point x="864.0" y="0.0" type="curve"/>
      <point x="700.0" y="92.0"/>
      <point x="537.0" y="183.0"/>
      <point x="373.0" y="275.0" type="curve"/>
      <point x="155.0" y="275.0"/>
      <point x="373.0" y="275.0"/>
      <point x="155.0" y="275.0" type="curve"/>
      <point x="311.0" y="187.0"/>
      <point x="459.0" y="87.0"/>
      <point x="615.0" y="0.0" type="curve"/>
    </contour>
    <contour>
      <point x="437" y="29" type="move" name="bottom"/>
    </contour>
  </outline>
</glyph>
<glyph name="l" format="1">
  <advance width="415"/>
  <unicode hex="006C"/>
  <outline>
    <contour>
      <point x="213.0" y="116.0"/>
      <point x="213.0" y="-1.0"/>
      <point x="213.0" y="116.0" type="curve"/>
      <point x="19.0" y="117.0"/>
      <point x="213.0" y="116.0"/>
      <point x="19.0" y="117.0" type="curve"/>
      <point x="19.0" y="0.0"/>
      <point x="19.0" y="117.0"/>
      <point x="19.0" y="0.0" type="curve"/>
      <point x="84.0" y="0.0"/>
      <point x="148.0" y="-1.0"/>
      <point x="213.0" y="-1.0" type="curve"/>
    </contour>
    <contour>
      <point x="216.0" y="799.0"/>
      <point x="216.0" y="683.0"/>
      <point x="216.0" y="799.0" type="curve"/>
      <point x="151.0" y="799.0"/>
      <point x="86.0" y="800.0"/>
      <point x="22.0" y="800.0" type="curve"/>
      <point x="22.0" y="683.0"/>
      <point x="22.0" y="800.0"/>
      <point x="22.0" y="683.0" type="curve"/>
      <point x="216.0" y="683.0"/>
      <point x="22.0" y="683.0"/>
      <point x="216.0" y="683.0" type="curve"/>
    </contour>
    <contour>
      <point x="213.0" y="-1.0"/>
      <point x="213.0" y="116.0"/>
      <point x="213.0" y="-1.0" type="curve"/>
      <point x="278.0" y="-1.0"/>
      <point x="342.0" y="0.0"/>
      <point x="407.0" y="0.0" type="curve"/>
      <point x="407.0" y="117.0"/>
      <point x="407.0" y="0.0"/>
      <point x="407.0" y="117.0" type="curve"/>
      <point x="213.0" y="116.0"/>
      <point x="407.0" y="117.0"/>
      <point x="213.0" y="116.0" type="curve"/>
    </contour>
    <contour>
      <point x="292.0" y="0.0"/>
      <point x="132.0" y="0.0"/>
      <point x="292.0" y="0.0" type="curve"/>
      <point x="292.0" y="267.0"/>
      <point x="292.0" y="533.0"/>
      <point x="292.0" y="800.0" type="curve"/>
      <point x="132.0" y="800.0"/>
      <point x="292.0" y="800.0"/>
      <point x="132.0" y="800.0" type="curve"/>
      <point x="132.0" y="533.0"/>
      <point x="132.0" y="267.0"/>
      <point x="132.0" y="0.0" type="curve"/>
    </contour>
    <contour>
      <point x="213" y="917" type="move" name="top"/>
    </contour>
    <contour>
      <point x="212" y="39" type="move" name="bottom"/>
    </contour>
  </outline>
</glyph>
<glyph name="m" format="1">
  <advance width="1315"/>
  <unicode hex="006D"/>
  <outline>
    <contour>
      <point x="676.0" y="0.0"/>
      <point x="676.0" y="117.0"/>
      <point x="676.0" y="0.0" type="curve"/>
      <point x="844.0" y="0.0"/>
      <point x="676.0" y="0.0"/>
      <point x="844.0" y="0.0" type="curve"/>
      <point x="844.0" y="117.0"/>
      <point x="844.0" y="0.0"/>
      <point x="844.0" y="117.0" type="curve"/>
      <point x="676.0" y="117.0"/>
      <point x="844.0" y="117.0"/>
      <point x="676.0" y="117.0" type="curve"/>
    </contour>
    <contour>
      <point x="676.0" y="117.0"/>
      <point x="676.0" y="0.0"/>
      <point x="676.0" y="117.0" type="curve"/>
      <point x="508.0" y="117.0"/>
      <point x="676.0" y="117.0"/>
      <point x="508.0" y="117.0" type="curve"/>
      <point x="508.0" y="0.0"/>
      <point x="508.0" y="117.0"/>
      <point x="508.0" y="0.0" type="curve"/>
      <point x="676.0" y="0.0"/>
      <point x="508.0" y="0.0"/>
      <point x="676.0" y="0.0" type="curve"/>
    </contour>
    <contour>
      <point x="1109.0" y="0.0"/>
      <point x="1109.0" y="117.0"/>
      <point x="1109.0" y="0.0" type="curve"/>
      <point x="1174.0" y="0.0"/>
      <point x="1238.0" y="0.0"/>
      <point x="1303.0" y="0.0" type="curve"/>
      <point x="1303.0" y="117.0"/>
      <point x="1303.0" y="0.0"/>
      <point x="1303.0" y="117.0" type="curve"/>
      <point x="1109.0" y="117.0"/>
      <point x="1303.0" y="117.0"/>
      <point x="1109.0" y="117.0" type="curve"/>
    </contour>
    <contour>
      <point x="245.0" y="117.0"/>
      <point x="245.0" y="0.0"/>
      <point x="245.0" y="117.0" type="curve"/>
      <point x="51.0" y="117.0"/>
      <point x="245.0" y="117.0"/>
      <point x="51.0" y="117.0" type="curve"/>
      <point x="51.0" y="0.0"/>
      <point x="51.0" y="117.0"/>
      <point x="51.0" y="0.0" type="curve"/>
      <point x="115.0" y="0.0"/>
      <point x="180.0" y="0.0"/>
      <point x="245.0" y="0.0" type="curve"/>
    </contour>
    <contour>
      <point x="245.0" y="0.0"/>
      <point x="245.0" y="117.0"/>
      <point x="245.0" y="0.0" type="curve"/>
      <point x="301.0" y="0.0"/>
      <point x="245.0" y="0.0"/>
      <point x="413.0" y="0.0" type="curve"/>
      <point x="413.0" y="117.0"/>
      <point x="413.0" y="0.0"/>
      <point x="413.0" y="117.0" type="curve"/>
      <point x="245.0" y="117.0"/>
      <point x="413.0" y="117.0"/>
      <point x="245.0" y="117.0" type="curve"/>
    </contour>
    <contour>
      <point x="245.0" y="533.0"/>
      <point x="245.0" y="416.0"/>
      <point x="245.0" y="533.0" type="curve"/>
      <point x="180.0" y="533.0"/>
      <point x="115.0" y="533.0"/>
      <point x="51.0" y="533.0" type="curve"/>
      <point x="51.0" y="416.0"/>
      <point x="51.0" y="533.0"/>
      <point x="51.0" y="416.0" type="curve"/>
      <point x="245.0" y="416.0"/>
      <point x="51.0" y="416.0"/>
      <point x="245.0" y="416.0" type="curve"/>
    </contour>
    <contour>
      <point x="1109.0" y="117.0"/>
      <point x="1109.0" y="0.0"/>
      <point x="1109.0" y="117.0" type="curve"/>
      <point x="941.0" y="117.0"/>
      <point x="1109.0" y="117.0"/>
      <point x="941.0" y="117.0" type="curve"/>
      <point x="941.0" y="0.0"/>
      <point x="941.0" y="117.0"/>
      <point x="941.0" y="0.0" type="curve"/>
      <point x="997.0" y="0.0"/>
      <point x="1053.0" y="0.0"/>
      <point x="1109.0" y="0.0" type="curve"/>
    </contour>
    <contour>
      <point x="720.0" y="297.0"/>
      <point x="637.0" y="356.0"/>
      <point x="720.0" y="297.0" type="curve"/>
      <point x="759.0" y="373.0"/>
      <point x="824.0" y="416.0"/>
      <point x="909.0" y="416.0" type="curve"/>
      <point x="988.0" y="416.0"/>
      <point x="1028.0" y="383.0"/>
      <point x="1028.0" y="305.0" type="curve"/>
      <point x="1028.0" y="204.0"/>
      <point x="1028.0" y="102.0"/>
      <point x="1028.0" y="0.0" type="curve"/>
      <point x="1188.0" y="0.0"/>
      <point x="1028.0" y="0.0"/>
      <point x="1188.0" y="0.0" type="curve"/>
      <point x="1188.0" y="106.0"/>
      <point x="1188.0" y="211.0"/>
      <point x="1188.0" y="317.0" type="curve"/>
      <point x="1188.0" y="471.0"/>
      <point x="1104.0" y="533.0"/>
      <point x="942.0" y="533.0" type="curve"/>
      <point x="805.0" y="533.0"/>
      <point x="706.0" y="473.0"/>
      <point x="637.0" y="356.0" type="curve"/>
    </contour>
    <contour>
      <point x="289.0" y="297.0"/>
      <point x="205.0" y="356.0"/>
      <point x="289.0" y="297.0" type="curve"/>
      <point x="329.0" y="374.0"/>
      <point x="392.0" y="416.0"/>
      <point x="477.0" y="416.0" type="curve"/>
      <point x="556.0" y="416.0"/>
      <point x="596.0" y="383.0"/>
      <point x="596.0" y="305.0" type="curve"/>
      <point x="596.0" y="204.0"/>
      <point x="596.0" y="102.0"/>
      <point x="596.0" y="0.0" type="curve"/>
      <point x="757.0" y="0.0"/>
      <point x="596.0" y="0.0"/>
      <point x="757.0" y="0.0" type="curve"/>
      <point x="757.0" y="106.0"/>
      <point x="757.0" y="211.0"/>
      <point x="757.0" y="317.0" type="curve"/>
      <point x="757.0" y="471.0"/>
      <point x="673.0" y="533.0"/>
      <point x="511.0" y="533.0" type="curve"/>
      <point x="372.0" y="533.0"/>
      <point x="291.0" y="479.0"/>
      <point x="205.0" y="356.0" type="curve"/>
    </contour>
    <contour>
      <point x="325.0" y="0.0"/>
      <point x="164.0" y="0.0"/>
      <point x="325.0" y="0.0" type="curve"/>
      <point x="325.0" y="178.0"/>
      <point x="325.0" y="355.0"/>
      <point x="325.0" y="533.0" type="curve"/>
      <point x="164.0" y="533.0"/>
      <point x="325.0" y="533.0"/>
      <point x="164.0" y="533.0" type="curve"/>
      <point x="164.0" y="355.0"/>
      <point x="164.0" y="178.0"/>
      <point x="164.0" y="0.0" type="curve"/>
    </contour>
  </outline>
</glyph>
<glyph name="n" format="1">
  <advance width="915"/>
  <unicode hex="006E"/>
  <outline>
    <contour>
      <point x="278.0" y="297.0"/>
      <point x="195.0" y="356.0"/>
      <point x="278.0" y="297.0" type="curve"/>
      <point x="319.0" y="375.0"/>
      <point x="404.0" y="416.0"/>
      <point x="493.0" y="416.0" type="curve"/>
      <point x="579.0" y="416.0"/>
      <point x="638.0" y="384.0"/>
      <point x="638.0" y="305.0" type="curve"/>
      <point x="638.0" y="204.0"/>
      <point x="638.0" y="102.0"/>
      <point x="638.0" y="0.0" type="curve"/>
      <point x="798.0" y="0.0"/>
      <point x="638.0" y="0.0"/>
      <point x="798.0" y="0.0" type="curve"/>
      <point x="798.0" y="106.0"/>
      <point x="798.0" y="211.0"/>
      <point x="798.0" y="317.0" type="curve"/>
      <point x="798.0" y="470.0"/>
      <point x="691.0" y="533.0"/>
      <point x="526.0" y="533.0" type="curve"/>
      <point x="388.0" y="533.0"/>
      <point x="281.0" y="487.0"/>
      <point x="195.0" y="356.0" type="curve"/>
    </contour>
    <contour>
      <point x="717.0" y="0.0"/>
      <point x="717.0" y="117.0"/>
      <point x="717.0" y="0.0" type="curve"/>
      <point x="781.0" y="0.0"/>
      <point x="846.0" y="0.0"/>
      <point x="911.0" y="0.0" type="curve"/>
      <point x="911.0" y="117.0"/>
      <point x="911.0" y="0.0"/>
      <point x="911.0" y="117.0" type="curve"/>
      <point x="717.0" y="117.0"/>
      <point x="911.0" y="117.0"/>
      <point x="717.0" y="117.0" type="curve"/>
    </contour>
    <contour>
      <point x="234.0" y="117.0"/>
      <point x="234.0" y="0.0"/>
      <point x="234.0" y="117.0" type="curve"/>
      <point x="41.0" y="117.0"/>
      <point x="234.0" y="117.0"/>
      <point x="41.0" y="117.0" type="curve"/>
      <point x="41.0" y="0.0"/>
      <point x="41.0" y="117.0"/>
      <point x="41.0" y="0.0" type="curve"/>
      <point x="105.0" y="0.0"/>
      <point x="170.0" y="0.0"/>
      <point x="234.0" y="0.0" type="curve"/>
    </contour>
    <contour>
      <point x="234.0" y="0.0"/>
      <point x="234.0" y="117.0"/>
      <point x="234.0" y="0.0" type="curve"/>
      <point x="295.0" y="0.0"/>
      <point x="234.0" y="0.0"/>
      <point x="415.0" y="0.0" type="curve"/>
      <point x="415.0" y="117.0"/>
      <point x="415.0" y="0.0"/>
      <point x="415.0" y="117.0" type="curve"/>
      <point x="234.0" y="117.0"/>
      <point x="415.0" y="117.0"/>
      <point x="234.0" y="117.0" type="curve"/>
    </contour>
    <contour>
      <point x="315.0" y="0.0"/>
      <point x="154.0" y="0.0"/>
      <point x="315.0" y="0.0" type="curve"/>
      <point x="315.0" y="178.0"/>
      <point x="315.0" y="355.0"/>
      <point x="315.0" y="533.0" type="curve"/>
      <point x="154.0" y="533.0"/>
      <point x="315.0" y="533.0"/>
      <point x="154.0" y="533.0" type="curve"/>
      <point x="154.0" y="355.0"/>
      <point x="154.0" y="178.0"/>
      <point x="154.0" y="0.0" type="curve"/>
    </contour>
    <contour>
      <point x="234.0" y="533.0"/>
      <point x="234.0" y="416.0"/>
      <point x="234.0" y="533.0" type="curve"/>
      <point x="170.0" y="533.0"/>
      <point x="105.0" y="533.0"/>
      <point x="41.0" y="533.0" type="curve"/>
      <point x="41.0" y="416.0"/>
      <point x="41.0" y="533.0"/>
      <point x="41.0" y="416.0" type="curve"/>
      <point x="234.0" y="416.0"/>
      <point x="41.0" y="416.0"/>
      <point x="234.0" y="416.0" type="curve"/>
    </contour>
    <contour>
      <point x="717.0" y="117.0"/>
      <point x="717.0" y="0.0"/>
      <point x="717.0" y="117.0" type="curve"/>
      <point x="536.0" y="117.0"/>
      <point x="717.0" y="117.0"/>
      <point x="536.0" y="117.0" type="curve"/>
      <point x="536.0" y="0.0"/>
      <point x="536.0" y="117.0"/>
      <point x="536.0" y="0.0" type="curve"/>
      <point x="596.0" y="0.0"/>
      <point x="656.0" y="0.0"/>
      <point x="717.0" y="0.0" type="curve"/>
    </contour>
    <contour>
      <point x="503.0" y="670.0" type="move" name="top"/>
    </contour>
    <contour>
      <point x="476.0" y="44.0" type="move" name="bottom"/>
    </contour>
  </outline>
</glyph>
<glyph name="o" format="1">
  <advance width="799"/>
  <unicode hex="006F"/>
  <outline>
    <contour>
      <point x="209.0" y="268.0" type="curve"/>
      <point x="209.0" y="367.0"/>
      <point x="285.0" y="421.0"/>
      <point x="401.0" y="421.0" type="curve"/>
      <point x="525.0" y="421.0"/>
      <point x="609.0" y="368.0"/>
      <point x="609.0" y="266.0" type="curve"/>
      <point x="609.0" y="160.0"/>
      <point x="526.0" y="112.0"/>
      <point x="413.0" y="112.0" type="curve"/>
      <point x="294.0" y="112.0"/>
      <point x="209.0" y="160.0"/>
      <point x="209.0" y="268.0" type="curve"/>
      <point x="48.0" y="268.0"/>
      <point x="209.0" y="268.0"/>
      <point x="48.0" y="268.0" type="curve"/>
      <point x="48.0" y="78.0"/>
      <point x="199.0" y="-5.0"/>
      <point x="405.0" y="-5.0" type="curve"/>
      <point x="615.0" y="-5.0"/>
      <point x="769.0" y="74.0"/>
      <point x="769.0" y="266.0" type="curve"/>
      <point x="769.0" y="448.0"/>
      <point x="621.0" y="538.0"/>
      <point x="409.0" y="538.0" type="curve"/>
      <point x="197.0" y="538.0"/>
      <point x="48.0" y="448.0"/>
      <point x="48.0" y="268.0" type="curve"/>
      <point x="209.0" y="268.0"/>
      <point x="48.0" y="268.0"/>
    </contour>
    <contour>
      <point x="408.0" y="671.0" type="move" name="top"/>
    </contour>
  </outline>
</glyph>
<glyph name="p" format="1">
  <advance width="870"/>
  <unicode hex="0070"/>
  <outline>
    <contour>
      <point x="229.0" y="-183.0"/>
      <point x="229.0" y="-300.0"/>
      <point x="229.0" y="-183.0" type="curve"/>
      <point x="35.0" y="-183.0"/>
      <point x="229.0" y="-183.0"/>
      <point x="35.0" y="-183.0" type="curve"/>
      <point x="35.0" y="-300.0"/>
      <point x="35.0" y="-183.0"/>
      <point x="35.0" y="-300.0" type="curve"/>
      <point x="100.0" y="-300.0"/>
      <point x="164.0" y="-300.0"/>
      <point x="229.0" y="-300.0" type="curve"/>
    </contour>
    <contour>
      <point x="229.0" y="-300.0"/>
      <point x="229.0" y="-183.0"/>
      <point x="229.0" y="-300.0" type="curve"/>
      <point x="289.0" y="-300.0"/>
      <point x="350.0" y="-300.0"/>
      <point x="410.0" y="-300.0" type="curve"/>
      <point x="410.0" y="-183.0"/>
      <point x="410.0" y="-300.0"/>
      <point x="410.0" y="-183.0" type="curve"/>
      <point x="229.0" y="-183.0"/>
      <point x="410.0" y="-183.0"/>
      <point x="229.0" y="-183.0" type="curve"/>
    </contour>
    <contour>
      <point x="230.0" y="533.0"/>
      <point x="230.0" y="416.0"/>
      <point x="230.0" y="533.0" type="curve"/>
      <point x="166.0" y="533.0"/>
      <point x="101.0" y="533.0"/>
      <point x="37.0" y="533.0" type="curve"/>
      <point x="36.0" y="416.0"/>
      <point x="37.0" y="533.0"/>
      <point x="36.0" y="416.0" type="curve"/>
      <point x="230.0" y="416.0"/>
      <point x="36.0" y="416.0"/>
      <point x="230.0" y="416.0" type="curve"/>
    </contour>
    <contour>
      <point x="269.0" y="340.0"/>
      <point x="188.0" y="422.0"/>
      <point x="269.0" y="340.0" type="curve"/>
      <point x="317.0" y="381.0"/>
      <point x="403.0" y="423.0"/>
      <point x="503.0" y="423.0" type="curve"/>
      <point x="621.0" y="423.0"/>
      <point x="695.0" y="358.0"/>
      <point x="695.0" y="263.0" type="curve"/>
      <point x="697.0" y="155.0"/>
      <point x="610.0" y="111.0"/>
      <point x="505.0" y="112.0" type="curve"/>
      <point x="421.0" y="112.0"/>
      <point x="375.0" y="121.0"/>
      <point x="280.0" y="168.0" type="curve"/>
      <point x="178.0" y="104.0"/>
      <point x="280.0" y="168.0"/>
      <point x="178.0" y="104.0" type="curve"/>
      <point x="294.0" y="15.0"/>
      <point x="379.0" y="-5.0"/>
      <point x="505.0" y="-5.0" type="curve"/>
      <point x="699.0" y="-5.0"/>
      <point x="856.0" y="80.0"/>
      <point x="855.0" y="269.0" type="curve"/>
      <point x="855.0" y="437.0"/>
      <point x="711.0" y="540.0"/>
      <point x="510.0" y="540.0" type="curve"/>
      <point x="374.0" y="540.0"/>
      <point x="256.0" y="480.0"/>
      <point x="188.0" y="422.0" type="curve"/>
    </contour>
    <contour>
      <point x="309.0" y="-300.0"/>
      <point x="149.0" y="-300.0"/>
      <point x="309.0" y="-300.0" type="curve"/>
      <point x="309.0" y="-22.0"/>
      <point x="309.0" y="255.0"/>
      <point x="309.0" y="533.0" type="curve"/>
      <point x="149.0" y="533.0"/>
      <point x="309.0" y="533.0"/>
      <point x="149.0" y="533.0" type="curve"/>
      <point x="149.0" y="255.0"/>
      <point x="149.0" y="-22.0"/>
      <point x="149.0" y="-300.0" type="curve"/>
    </contour>
  </outline>
</glyph>
<glyph name="r" format="1">
  <advance width="569"/>
  <unicode hex="0072"/>
  <outline>
    <contour>
      <point x="226.0" y="0.0"/>
      <point x="226.0" y="117.0"/>
      <point x="226.0" y="0.0" type="curve"/>
      <point x="286.0" y="0.0"/>
      <point x="346.0" y="0.0"/>
      <point x="407.0" y="0.0" type="curve"/>
      <point x="407.0" y="117.0"/>
      <point x="407.0" y="0.0"/>
      <point x="407.0" y="117.0" type="curve"/>
      <point x="226.0" y="117.0"/>
      <point x="407.0" y="117.0"/>
      <point x="226.0" y="117.0" type="curve"/>
    </contour>
    <contour>
      <point x="226.0" y="117.0"/>
      <point x="226.0" y="0.0"/>
      <point x="226.0" y="117.0" type="curve"/>
      <point x="32.0" y="117.0"/>
      <point x="226.0" y="117.0"/>
      <point x="32.0" y="117.0" type="curve"/>
      <point x="32.0" y="0.0"/>
      <point x="32.0" y="117.0"/>
      <point x="32.0" y="0.0" type="curve"/>
      <point x="96.0" y="0.0"/>
      <point x="161.0" y="0.0"/>
      <point x="226.0" y="0.0" type="curve"/>
    </contour>
    <contour>
      <point x="224.0" y="533.0"/>
      <point x="224.0" y="416.0"/>
      <point x="224.0" y="533.0" type="curve"/>
      <point x="160.0" y="533.0"/>
      <point x="95.0" y="533.0"/>
      <point x="31.0" y="533.0" type="curve"/>
      <point x="30.0" y="416.0"/>
      <point x="31.0" y="533.0"/>
      <point x="30.0" y="416.0" type="curve"/>
      <point x="224.0" y="416.0"/>
      <point x="30.0" y="416.0"/>
      <point x="224.0" y="416.0" type="curve"/>
    </contour>
    <contour>
      <point x="306.0" y="0.0"/>
      <point x="145.0" y="0.0"/>
      <point x="306.0" y="0.0" type="curve"/>
      <point x="306.0" y="178.0"/>
      <point x="306.0" y="355.0"/>
      <point x="306.0" y="533.0" type="curve"/>
      <point x="145.0" y="533.0"/>
      <point x="306.0" y="533.0"/>
      <point x="145.0" y="533.0" type="curve"/>
      <point x="145.0" y="355.0"/>
      <point x="145.0" y="178.0"/>
      <point x="145.0" y="0.0" type="curve"/>
    </contour>
    <contour>
      <point x="265.0" y="308.0"/>
      <point x="213.0" y="396.0"/>
      <point x="265.0" y="308.0" type="curve"/>
      <point x="337.0" y="420.0"/>
      <point x="437.0" y="417.0"/>
      <point x="549.0" y="417.0" type="curve"/>
      <point x="549.0" y="539.0"/>
      <point x="549.0" y="416.0"/>
      <point x="549.0" y="538.0" type="curve"/>
      <point x="411.0" y="538.0"/>
      <point x="300.0" y="503.0"/>
      <point x="213.0" y="396.0" type="curve"/>
    </contour>
    <contour>
      <point x="278.0" y="670.0" type="move" name="top"/>
    </contour>
    <contour>
      <point x="230.0" y="35.0" type="move" name="bottom"/>
    </contour>
  </outline>
</glyph>
<glyph name="s" format="1">
  <advance width="615"/>
  <unicode hex="0073"/>
  <outline>
    <contour>
      <point x="44.0" y="46.0"/>
      <point x="125.0" y="152.0"/>
      <point x="44.0" y="46.0" type="curve"/>
      <point x="139.0" y="16.0"/>
      <point x="207.0" y="-5.0"/>
      <point x="303.0" y="-5.0" type="curve"/>
      <point x="461.0" y="-5.0"/>
      <point x="585.6" y="27.1554070557"/>
      <point x="585.6" y="163.869785575" type="curve"/>
      <point x="586.0" y="294.0"/>
      <point x="462.592057116" y="302.478100942"/>
      <point x="323.9" y="330.093060429" type="curve"/>
      <point x="260.465710502" y="342.786607751"/>
      <point x="193.0" y="351.0"/>
      <point x="193.0" y="387.0" type="curve"/>
      <point x="193.0" y="410.0"/>
      <point x="237.0" y="421.0"/>
      <point x="286.0" y="421.0" type="curve"/>
      <point x="342.0" y="421.0"/>
      <point x="411.464699159" y="404.45066577"/>
      <point x="451.0" y="387.965146199" type="curve"/>
      <point x="524.0" y="493.085146199"/>
      <point x="451.0" y="387.965146199"/>
      <point x="524.0" y="493.085146199" type="curve"/>
      <point x="468.798562396" y="515.675212801"/>
      <point x="371.0" y="538.0"/>
      <point x="293.0" y="538.0" type="curve"/>
      <point x="154.0" y="538.0"/>
      <point x="46.6" y="506.475467809"/>
      <point x="46.6" y="386.167641326" type="curve"/>
      <point x="46.6" y="269.297494837"/>
      <point x="147.0" y="241.0"/>
      <point x="273.0" y="216.0" type="curve"/>
      <point x="347.0" y="200.0"/>
      <point x="432.0" y="198.0"/>
      <point x="432.0" y="161.0" type="curve"/>
      <point x="432.0" y="130.0"/>
      <point x="382.0" y="112.0"/>
      <point x="325.0" y="112.0" type="curve"/>
      <point x="249.0" y="112.0"/>
      <point x="200.0" y="127.0"/>
      <point x="125.0" y="152.0" type="curve"/>
    </contour>
    <contour>
      <point x="401.36" y="493.085146199"/>
      <point x="524.0" y="493.085146199"/>
      <point x="401.36" y="493.085146199" type="curve"/>
      <point x="401.36" y="373.085146199"/>
      <point x="401.0" y="475.0"/>
      <point x="401.0" y="355.0" type="curve"/>
      <point x="524.0" y="355.0"/>
      <point x="401.0" y="355.0"/>
      <point x="524.0" y="355.0" type="curve"/>
      <point x="524.0" y="475.0"/>
      <point x="524.0" y="373.085146199"/>
      <point x="524.0" y="493.085146199" type="curve"/>
    </contour>
    <contour>
      <point x="164.0" y="46.0"/>
      <point x="41.0" y="46.0"/>
      <point x="164.0" y="46.0" type="curve"/>
      <point x="164.0" y="166.0"/>
      <point x="164.0" y="73.0"/>
      <point x="164.0" y="193.0" type="curve"/>
      <point x="41.0" y="193.0"/>
      <point x="164.0" y="193.0"/>
      <point x="41.0" y="193.0" type="curve"/>
      <point x="41.0" y="73.0"/>
      <point x="41.0" y="166.0"/>
      <point x="41.0" y="46.0" type="curve"/>
    </contour>
    <contour>
      <point x="231" y="40" type="move" name="bottom"/>
    </contour>
    <contour>
      <point x="295" y="669" type="move" name="top"/>
    </contour>
  </outline>
</glyph>
<glyph name="t" format="1">
  <advance width="554"/>
  <unicode hex="0074"/>
  <outline>
    <contour>
      <point x="40.0" y="417.0"/>
      <point x="40.0" y="534.0"/>
      <point x="40.0" y="417.0" type="curve"/>
      <point x="40.0" y="417.0"/>
      <point x="496.0" y="417.0"/>
      <point x="496.0" y="417.0" type="curve"/>
      <point x="496.0" y="534.0"/>
      <point x="496.0" y="417.0"/>
      <point x="496.0" y="534.0" type="curve"/>
      <point x="496.0" y="534.0"/>
      <point x="40.0" y="534.0"/>
      <point x="40.0" y="534.0" type="curve"/>
    </contour>
    <contour>
      <point x="490.0" y="131.0"/>
      <point x="529.0" y="27.0"/>
      <point x="490.0" y="131.0" type="curve"/>
      <point x="457.0" y="118.0"/>
      <point x="431.0" y="116.0"/>
      <point x="396.0" y="116.0" type="curve"/>
      <point x="349.0" y="116.0"/>
      <point x="320.0" y="133.0"/>
      <point x="320.0" y="178.0" type="curve"/>
      <point x="320.0" y="178.0"/>
      <point x="320.0" y="661.0"/>
      <point x="320.0" y="661.0" type="curve"/>
      <point x="160.0" y="586.0"/>
      <point x="320.0" y="661.0"/>
      <point x="160.0" y="586.0" type="curve"/>
      <point x="160.0" y="586.0"/>
      <point x="160.0" y="172.0"/>
      <point x="160.0" y="172.0" type="curve"/>
      <point x="160.0" y="45.0"/>
      <point x="249.0" y="-6.0"/>
      <point x="381.0" y="-6.0" type="curve"/>
      <point x="447.0" y="-6.0"/>
      <point x="492.0" y="10.0"/>
      <point x="529.0" y="27.0" type="curve"/>
    </contour>
    <contour>
      <point x="332.0" y="22.0" type="move" name="bottom"/>
    </contour>
  </outline>
</glyph>
<glyph name="u" format="1">
  <advance width="892"/>
  <unicode hex="0075"/>
  <outline>
    <contour>
      <point x="690.0" y="533.0"/>
      <point x="690.0" y="416.0"/>
      <point x="690.0" y="533.0" type="curve"/>
      <point x="626.0" y="533.0"/>
      <point x="561.0" y="533.0"/>
      <point x="496.0" y="533.0" type="curve"/>
      <point x="496.0" y="416.0"/>
      <point x="496.0" y="533.0"/>
      <point x="496.0" y="416.0" type="curve"/>
      <point x="690.0" y="416.0"/>
      <point x="496.0" y="416.0"/>
      <point x="690.0" y="416.0" type="curve"/>
    </contour>
    <contour>
      <point x="216.0" y="533.0"/>
      <point x="216.0" y="416.0"/>
      <point x="216.0" y="533.0" type="curve"/>
      <point x="151.0" y="533.0"/>
      <point x="86.0" y="533.0"/>
      <point x="22.0" y="533.0" type="curve"/>
      <point x="22.0" y="416.0"/>
      <point x="22.0" y="533.0"/>
      <point x="22.0" y="416.0" type="curve"/>
      <point x="216.0" y="416.0"/>
      <point x="22.0" y="416.0"/>
      <point x="216.0" y="416.0" type="curve"/>
    </contour>
    <contour>
      <point x="690.0" y="0.0"/>
      <point x="690.0" y="117.0"/>
      <point x="690.0" y="0.0" type="curve"/>
      <point x="750.0" y="0.0"/>
      <point x="811.0" y="0.0"/>
      <point x="871.0" y="0.0" type="curve"/>
      <point x="871.0" y="117.0"/>
      <point x="871.0" y="0.0"/>
      <point x="871.0" y="117.0" type="curve"/>
      <point x="690.0" y="117.0"/>
      <point x="871.0" y="117.0"/>
      <point x="690.0" y="117.0" type="curve"/>
    </contour>
    <contour>
      <point x="771.0" y="0.0"/>
      <point x="610.0" y="0.0"/>
      <point x="771.0" y="0.0" type="curve"/>
      <point x="771.0" y="178.0"/>
      <point x="771.0" y="355.0"/>
      <point x="771.0" y="533.0" type="curve"/>
      <point x="610.0" y="533.0"/>
      <point x="771.0" y="533.0"/>
      <point x="610.0" y="533.0" type="curve"/>
      <point x="610.0" y="355.0"/>
      <point x="610.0" y="178.0"/>
      <point x="610.0" y="0.0" type="curve"/>
    </contour>
    <contour>
      <point x="636.0" y="218.0"/>
      <point x="710.0" y="178.0"/>
      <point x="636.0" y="218.0" type="curve"/>
      <point x="594.0" y="159.0"/>
      <point x="517.0" y="112.0"/>
      <point x="440.0" y="112.0" type="curve"/>
      <point x="354.0" y="112.0"/>
      <point x="296.0" y="145.0"/>
      <point x="296.0" y="222.0" type="curve"/>
      <point x="296.0" y="326.0"/>
      <point x="296.0" y="429.0"/>
      <point x="296.0" y="533.0" type="curve"/>
      <point x="135.0" y="533.0"/>
      <point x="296.0" y="533.0"/>
      <point x="135.0" y="533.0" type="curve"/>
      <point x="135.0" y="427.0"/>
      <point x="135.0" y="322.0"/>
      <point x="135.0" y="216.0" type="curve"/>
      <point x="135.0" y="57.0"/>
      <point x="254.0" y="-5.0"/>
      <point x="428.0" y="-5.0" type="curve"/>
      <point x="553.0" y="-5.0"/>
      <point x="664.0" y="69.0"/>
      <point x="710.0" y="178.0" type="curve"/>
    </contour>
    <contour>
      <point x="434" y="670" type="move" name="top"/>
    </contour>
    <contour>
      <point x="725" y="19" type="move" name="bottom"/>
    </contour>
  </outline>
</glyph>
<glyph name="v" format="1">
  <advance width="916"/>
  <unicode hex="0076"/>
  <outline>
    <contour>
      <point x="212.0" y="533.0"/>
      <point x="212.0" y="416.0"/>
      <point x="212.0" y="533.0" type="curve"/>
      <point x="147.0" y="533.0"/>
      <point x="82.0" y="533.0"/>
      <point x="18.0" y="533.0" type="curve"/>
      <point x="18.0" y="416.0"/>
      <point x="18.0" y="533.0"/>
      <point x="18.0" y="416.0" type="curve"/>
      <point x="212.0" y="416.0"/>
      <point x="18.0" y="416.0"/>
      <point x="212.0" y="416.0" type="curve"/>
    </contour>
    <contour>
      <point x="212.0" y="416.0"/>
      <point x="212.0" y="533.0"/>
      <point x="212.0" y="416.0" type="curve"/>
      <point x="406.0" y="416.0"/>
      <point x="212.0" y="416.0"/>
      <point x="406.0" y="416.0" type="curve"/>
      <point x="406.0" y="533.0"/>
      <point x="406.0" y="416.0"/>
      <point x="406.0" y="533.0" type="curve"/>
      <point x="341.0" y="533.0"/>
      <point x="276.0" y="533.0"/>
      <point x="212.0" y="533.0" type="curve"/>
    </contour>
    <contour>
      <point x="703.0" y="533.0"/>
      <point x="703.0" y="416.0"/>
      <point x="703.0" y="533.0" type="curve"/>
      <point x="639.0" y="533.0"/>
      <point x="574.0" y="533.0"/>
      <point x="509.0" y="533.0" type="curve"/>
      <point x="509.0" y="416.0"/>
      <point x="509.0" y="533.0"/>
      <point x="509.0" y="416.0" type="curve"/>
      <point x="703.0" y="416.0"/>
      <point x="509.0" y="416.0"/>
      <point x="703.0" y="416.0" type="curve"/>
    </contour>
    <contour>
      <point x="703.0" y="416.0"/>
      <point x="703.0" y="533.0"/>
      <point x="703.0" y="416.0" type="curve"/>
      <point x="897.0" y="416.0"/>
      <point x="703.0" y="416.0"/>
      <point x="897.0" y="416.0" type="curve"/>
      <point x="897.0" y="533.0"/>
      <point x="897.0" y="416.0"/>
      <point x="897.0" y="533.0" type="curve"/>
      <point x="833.0" y="533.0"/>
      <point x="768.0" y="533.0"/>
      <point x="703.0" y="533.0" type="curve"/>
    </contour>
    <contour>
      <point x="97.0" y="533.0"/>
      <point x="260.0" y="533.0"/>
      <point x="97.0" y="533.0" type="curve"/>
      <point x="187.0" y="355.0"/>
      <point x="277.0" y="178.0"/>
      <point x="367.0" y="0.0" type="curve"/>
      <point x="528.0" y="0.0"/>
      <point x="367.0" y="0.0"/>
      <point x="528.0" y="0.0" type="curve"/>
      <point x="439.0" y="178.0"/>
      <point x="349.0" y="355.0"/>
      <point x="260.0" y="533.0" type="curve"/>
    </contour>
    <contour>
      <point x="656.0" y="533.0"/>
      <point x="818.0" y="533.0"/>
      <point x="656.0" y="533.0" type="curve"/>
      <point x="656.0" y="533.0"/>
      <point x="373.0" y="0.0"/>
      <point x="373.0" y="0.0" type="curve"/>
      <point x="534.0" y="0.0"/>
      <point x="373.0" y="0.0"/>
      <point x="534.0" y="0.0" type="curve"/>
      <point x="629.0" y="178.0"/>
      <point x="723.0" y="355.0"/>
      <point x="818.0" y="533.0" type="curve"/>
    </contour>
  </outline>
</glyph>
